<mxfile host="app.diagrams.net" modified="2021-09-28T17:13:47.164Z" agent="5.0 (Windows NT 10.0; Win64; x64) AppleWebKit/537.36 (KHTML, like Gecko) Chrome/94.0.4606.61 Safari/537.36" etag="688XVfoIMFO3A0QZaAzy" version="15.3.5" type="github" pages="4">
  <diagram name="Form" id="2cc2dc42-3aac-f2a9-1cec-7a8b7cbee084">
    <mxGraphModel dx="1414" dy="795" grid="0" gridSize="10" guides="1" tooltips="1" connect="1" arrows="1" fold="1" page="1" pageScale="1" pageWidth="1169" pageHeight="827" background="#ffffff" math="0" shadow="0">
      <root>
        <mxCell id="0" />
        <mxCell id="1" parent="0" />
        <mxCell id="OI_sCRz20BsgHnKaaoa2-176" value="" style="rounded=0;whiteSpace=wrap;html=1;shadow=0;glass=0;labelBackgroundColor=none;sketch=0;hachureGap=4;pointerEvents=0;fontFamily=Helvetica;fontSize=10;fontColor=#333333;strokeColor=none;strokeWidth=1;fillColor=#FAFAFA;gradientDirection=south;align=left;verticalAlign=middle;" parent="1" vertex="1">
          <mxGeometry x="237" y="13" width="903" height="138" as="geometry" />
        </mxCell>
        <mxCell id="OI_sCRz20BsgHnKaaoa2-163" value="" style="rounded=0;fillColor=#D5E8D4;strokeColor=none;shadow=0;html=1;align=left;fontSize=12;spacingLeft=10;fontColor=#333333;resizeWidth=1;sketch=1;hachureGap=4;pointerEvents=0;fontFamily=Helvetica;fillStyle=auto;" parent="1" vertex="1">
          <mxGeometry x="167" y="691" width="306" height="33" as="geometry" />
        </mxCell>
        <mxCell id="OI_sCRz20BsgHnKaaoa2-109" value="" style="rounded=1;shadow=0;labelBackgroundColor=none;sketch=0;hachureGap=4;pointerEvents=0;fontFamily=Helvetica;fontSize=15;fontColor=none;strokeColor=none;strokeWidth=2;fillColor=#F1F1F4;gradientDirection=south;noLabel=1;fillStyle=auto;" parent="1" vertex="1">
          <mxGeometry x="448" y="37.5" width="22" height="22" as="geometry" />
        </mxCell>
        <mxCell id="OI_sCRz20BsgHnKaaoa2-107" value="" style="rounded=1;shadow=0;labelBackgroundColor=none;sketch=0;hachureGap=4;pointerEvents=0;fontFamily=Helvetica;fontSize=15;fontColor=none;strokeColor=none;strokeWidth=2;fillColor=#F1F1F4;gradientDirection=south;noLabel=1;fillStyle=auto;" parent="1" vertex="1">
          <mxGeometry x="496" y="37.5" width="22" height="22" as="geometry" />
        </mxCell>
        <mxCell id="OI_sCRz20BsgHnKaaoa2-7" value="&amp;nbsp; &amp;nbsp; &amp;nbsp; &amp;nbsp; Pra" style="rounded=1;arcSize=9;fillColor=#ffffff;strokeColor=#4C9AFF;html=1;strokeWidth=2;spacingLeft=5;fontColor=#000000;align=left;sketch=0;hachureGap=4;pointerEvents=0;fontFamily=Helvetica;fontSize=14;shadow=0;" parent="1" vertex="1">
          <mxGeometry x="277" y="82" width="230" height="33" as="geometry" />
        </mxCell>
        <mxCell id="OI_sCRz20BsgHnKaaoa2-8" value="" style="html=1;shadow=0;dashed=0;shape=mxgraph.atlassian.close;fillColor=#97A0AF;strokeColor=none;sketch=0;hachureGap=4;pointerEvents=0;fontFamily=Architects Daughter;fontSource=https%3A%2F%2Ffonts.googleapis.com%2Fcss%3Ffamily%3DArchitects%2BDaughter;fontSize=20;" parent="OI_sCRz20BsgHnKaaoa2-7" vertex="1">
          <mxGeometry x="1" y="0.5" width="14" height="14" relative="1" as="geometry">
            <mxPoint x="-28" y="-7" as="offset" />
          </mxGeometry>
        </mxCell>
        <mxCell id="OI_sCRz20BsgHnKaaoa2-32" value="" style="shape=mxgraph.signs.transportation.airplane_1;html=1;pointerEvents=1;fillColor=#596780;strokeColor=none;verticalLabelPosition=bottom;verticalAlign=top;align=center;hachureGap=4;shadow=0;labelBackgroundColor=none;sketch=0;fontFamily=Helvetica;fontSize=15;fontColor=none;" parent="OI_sCRz20BsgHnKaaoa2-7" vertex="1">
          <mxGeometry x="11" y="14" width="16.26" height="5.75" as="geometry" />
        </mxCell>
        <mxCell id="OI_sCRz20BsgHnKaaoa2-9" value="&lt;b&gt;&lt;font color=&quot;#596780&quot;&gt;SUGGESTIONS&lt;/font&gt;&lt;/b&gt;&lt;div&gt;&lt;br&gt;&lt;div&gt;&lt;b&gt;Pra&lt;/b&gt;gue&amp;nbsp;Vaclav Havel Airport&amp;nbsp;&lt;font color=&quot;#596780&quot;&gt;(PRG)&lt;/font&gt;&lt;/div&gt;&lt;br&gt;&lt;div&gt;New &lt;b&gt;Pra&lt;/b&gt;gue, Minnesota, USA&lt;/div&gt;&lt;div&gt;&lt;br&gt;&lt;/div&gt;&lt;b&gt;Pra&lt;/b&gt;gue, Oklahoma, USA&lt;div&gt;&lt;/div&gt;&lt;/div&gt;" style="html=1;rounded=1;fillColor=default;strokeColor=#DFE1E5;fontSize=12;align=left;fontColor=#000000;shadow=1;arcSize=1;whiteSpace=wrap;spacing=2;verticalAlign=top;fontStyle=0;spacingLeft=20;spacingTop=15;sketch=0;hachureGap=4;pointerEvents=0;fontFamily=Helvetica;" parent="1" vertex="1">
          <mxGeometry x="277" y="117" width="230" height="140" as="geometry" />
        </mxCell>
        <mxCell id="OI_sCRz20BsgHnKaaoa2-10" value="" style="rounded=0;fillColor=#000000;strokeColor=none;html=1;opacity=10;resizeWidth=1;sketch=1;hachureGap=4;pointerEvents=0;fontFamily=Architects Daughter;fontSource=https%3A%2F%2Ffonts.googleapis.com%2Fcss%3Ffamily%3DArchitects%2BDaughter;fontSize=20;" parent="OI_sCRz20BsgHnKaaoa2-9" vertex="1">
          <mxGeometry width="230" height="33" relative="1" as="geometry">
            <mxPoint y="40" as="offset" />
          </mxGeometry>
        </mxCell>
        <mxCell id="OI_sCRz20BsgHnKaaoa2-110" style="edgeStyle=none;curved=1;orthogonalLoop=1;jettySize=auto;html=1;fontFamily=Helvetica;fontSize=13;fontColor=none;endArrow=open;startSize=14;endSize=14;sourcePerimeterSpacing=8;targetPerimeterSpacing=8;strokeColor=#B3B3B3;exitX=-0.007;exitY=0.63;exitDx=0;exitDy=0;exitPerimeter=0;" parent="1" source="OI_sCRz20BsgHnKaaoa2-12" edge="1">
          <mxGeometry relative="1" as="geometry">
            <mxPoint x="136" y="155" as="targetPoint" />
            <Array as="points">
              <mxPoint x="190" y="73" />
            </Array>
          </mxGeometry>
        </mxCell>
        <mxCell id="OI_sCRz20BsgHnKaaoa2-12" value="Return trip" style="rounded=1;fillColor=none;strokeColor=default;html=1;fontColor=#596780;align=left;fontSize=14;spacingLeft=10;sketch=0;hachureGap=4;pointerEvents=0;fontFamily=Helvetica;shadow=0;opacity=10;" parent="1" vertex="1">
          <mxGeometry x="277" y="32" width="112" height="33" as="geometry" />
        </mxCell>
        <mxCell id="OI_sCRz20BsgHnKaaoa2-13" value="" style="shape=triangle;direction=south;fillColor=#596780;strokeColor=none;html=1;sketch=0;hachureGap=4;pointerEvents=0;fontFamily=Architects Daughter;fontSource=https%3A%2F%2Ffonts.googleapis.com%2Fcss%3Ffamily%3DArchitects%2BDaughter;fontSize=20;" parent="OI_sCRz20BsgHnKaaoa2-12" vertex="1">
          <mxGeometry x="1" y="0.5" width="12" height="6" relative="1" as="geometry">
            <mxPoint x="-20" y="-3" as="offset" />
          </mxGeometry>
        </mxCell>
        <mxCell id="OI_sCRz20BsgHnKaaoa2-15" value="&lt;font style=&quot;font-size: 12px&quot;&gt;Return trip&lt;/font&gt;" style="rounded=1;fillColor=#D4E1F5;strokeColor=none;html=1;fontColor=#333333;align=left;fontSize=14;spacingLeft=10;sketch=0;hachureGap=4;pointerEvents=0;fontFamily=Helvetica;shadow=0;" parent="1" vertex="1">
          <mxGeometry x="53" y="163" width="100" height="33" as="geometry" />
        </mxCell>
        <mxCell id="OI_sCRz20BsgHnKaaoa2-16" value="" style="shape=triangle;direction=south;fillColor=#596780;strokeColor=none;html=1;sketch=0;hachureGap=4;pointerEvents=0;fontFamily=Helvetica;fontSize=20;fontColor=#ffffff;flipV=1;" parent="OI_sCRz20BsgHnKaaoa2-15" vertex="1">
          <mxGeometry x="1" y="0.5" width="12" height="6" relative="1" as="geometry">
            <mxPoint x="-20" y="-3" as="offset" />
          </mxGeometry>
        </mxCell>
        <mxCell id="OI_sCRz20BsgHnKaaoa2-17" value="" style="rounded=1;fillColor=#ffffff;strokeColor=#DFE1E5;shadow=1;html=1;arcSize=4;sketch=0;hachureGap=4;pointerEvents=0;fontFamily=Helvetica;fontSize=20;" parent="1" vertex="1">
          <mxGeometry x="53" y="199" width="110" height="117" as="geometry" />
        </mxCell>
        <mxCell id="OI_sCRz20BsgHnKaaoa2-18" value="Return trip" style="rounded=0;fillColor=#E6E6E6;strokeColor=none;shadow=0;html=1;align=left;fontSize=12;spacingLeft=10;fontColor=#333333;resizeWidth=1;sketch=1;hachureGap=4;pointerEvents=0;fontFamily=Helvetica;fillStyle=auto;" parent="OI_sCRz20BsgHnKaaoa2-17" vertex="1">
          <mxGeometry width="110" height="33" relative="1" as="geometry">
            <mxPoint y="6" as="offset" />
          </mxGeometry>
        </mxCell>
        <mxCell id="OI_sCRz20BsgHnKaaoa2-19" value="One way" style="rounded=0;fillColor=none;strokeColor=none;shadow=0;html=1;align=left;fontSize=12;spacingLeft=10;fontColor=#253858;resizeWidth=1;sketch=1;hachureGap=4;pointerEvents=0;fontFamily=Helvetica;" parent="OI_sCRz20BsgHnKaaoa2-17" vertex="1">
          <mxGeometry width="110" height="33" relative="1" as="geometry">
            <mxPoint y="39" as="offset" />
          </mxGeometry>
        </mxCell>
        <mxCell id="OI_sCRz20BsgHnKaaoa2-20" value="Multi-city" style="rounded=0;fillColor=none;strokeColor=none;shadow=0;html=1;align=left;fontSize=12;spacingLeft=10;fontColor=#253858;resizeWidth=1;sketch=1;hachureGap=4;pointerEvents=0;fontFamily=Helvetica;" parent="OI_sCRz20BsgHnKaaoa2-17" vertex="1">
          <mxGeometry width="110" height="33" relative="1" as="geometry">
            <mxPoint y="72" as="offset" />
          </mxGeometry>
        </mxCell>
        <mxCell id="OI_sCRz20BsgHnKaaoa2-25" value="&lt;font style=&quot;font-size: 15px&quot; color=&quot;#cccccc&quot;&gt;&amp;nbsp; &amp;nbsp; &amp;nbsp; &amp;nbsp; Where&lt;/font&gt;" style="rounded=1;arcSize=9;fillColor=#ffffff;strokeColor=#DEE1E6;html=1;strokeWidth=2;spacingLeft=5;fontColor=#000000;align=left;sketch=0;hachureGap=4;pointerEvents=0;fontFamily=Helvetica;fontSize=15;shadow=0;" parent="1" vertex="1">
          <mxGeometry x="553" y="82" width="230" height="33" as="geometry" />
        </mxCell>
        <mxCell id="OI_sCRz20BsgHnKaaoa2-27" value="" style="shape=image;verticalAlign=top;verticalLabelPosition=bottom;labelBackgroundColor=none;imageAspect=0;aspect=fixed;image=https://cdn1.iconfinder.com/data/icons/heroicons-ui/24/switch-horizontal-512.png;hachureGap=4;pointerEvents=0;shadow=0;sketch=0;fontFamily=Helvetica;fontSize=15;fontColor=none;strokeColor=#CCCCCC;fillColor=#CCCCCC;gradientDirection=south;strokeWidth=3;imageBackground=#FAFAFA;noLabel=1;imageBorder=none;" parent="1" vertex="1">
          <mxGeometry x="520" y="88.5" width="20" height="20" as="geometry" />
        </mxCell>
        <mxCell id="OI_sCRz20BsgHnKaaoa2-28" value="" style="shape=actor;whiteSpace=wrap;html=1;hachureGap=4;pointerEvents=0;shadow=0;labelBackgroundColor=none;sketch=0;fontFamily=Helvetica;fontSize=15;fontColor=none;strokeColor=#596780;strokeWidth=1;fillColor=none;gradientDirection=south;" parent="1" vertex="1">
          <mxGeometry x="417" y="39.5" width="12" height="18" as="geometry" />
        </mxCell>
        <mxCell id="OI_sCRz20BsgHnKaaoa2-34" value="" style="shape=mxgraph.signs.transportation.airplane_2;html=1;pointerEvents=1;fillColor=#596780;strokeColor=none;verticalLabelPosition=bottom;verticalAlign=top;align=center;hachureGap=4;shadow=0;labelBackgroundColor=none;sketch=0;fontFamily=Helvetica;fontSize=14;fontColor=none;" parent="1" vertex="1">
          <mxGeometry x="567" y="94" width="16.1" height="9" as="geometry" />
        </mxCell>
        <mxCell id="OI_sCRz20BsgHnKaaoa2-153" style="edgeStyle=none;curved=1;orthogonalLoop=1;jettySize=auto;html=1;fontFamily=Helvetica;fontSize=13;fontColor=#596780;endArrow=open;startSize=14;endSize=14;sourcePerimeterSpacing=8;targetPerimeterSpacing=8;strokeColor=#B3B3B3;exitX=0;exitY=0.5;exitDx=0;exitDy=0;" parent="1" source="OI_sCRz20BsgHnKaaoa2-39" edge="1">
          <mxGeometry relative="1" as="geometry">
            <mxPoint x="386" y="453" as="targetPoint" />
            <Array as="points">
              <mxPoint x="566" y="226" />
            </Array>
          </mxGeometry>
        </mxCell>
        <mxCell id="OI_sCRz20BsgHnKaaoa2-39" value="Request" style="rounded=1;fillColor=#0057D8;align=center;strokeColor=none;html=1;fontColor=#ffffff;fontSize=12;sketch=0;hachureGap=4;pointerEvents=0;shadow=0;labelBackgroundColor=none;fontFamily=Helvetica;" parent="1" vertex="1">
          <mxGeometry x="1009" y="82" width="86" height="33" as="geometry" />
        </mxCell>
        <mxCell id="OI_sCRz20BsgHnKaaoa2-40" value="" style="html=1;shadow=0;dashed=0;shape=mxgraph.atlassian.checkbox;fillColor=#008465;strokeColor=none;html=1;sketch=0;hachureGap=4;pointerEvents=0;labelBackgroundColor=none;fontFamily=Helvetica;fontSize=15;fontColor=none;" parent="1" vertex="1">
          <mxGeometry x="984" y="91" width="14" height="14" as="geometry" />
        </mxCell>
        <mxCell id="OI_sCRz20BsgHnKaaoa2-98" value="" style="edgeStyle=none;curved=1;orthogonalLoop=1;jettySize=auto;html=1;fontFamily=Helvetica;fontSize=15;fontColor=none;endArrow=open;startSize=14;endSize=14;sourcePerimeterSpacing=8;targetPerimeterSpacing=8;" parent="1" source="OI_sCRz20BsgHnKaaoa2-42" target="OI_sCRz20BsgHnKaaoa2-47" edge="1">
          <mxGeometry relative="1" as="geometry" />
        </mxCell>
        <mxCell id="OI_sCRz20BsgHnKaaoa2-42" value="&lt;font style=&quot;font-size: 15px&quot;&gt;&amp;nbsp; &amp;nbsp; &amp;nbsp; &amp;nbsp; &amp;nbsp;Today&lt;/font&gt;" style="rounded=1;arcSize=9;fillColor=#ffffff;align=left;spacingLeft=5;strokeColor=#4C9AFF;html=1;strokeWidth=2;fontColor=#253858;fontSize=12;hachureGap=4;pointerEvents=0;shadow=0;labelBackgroundColor=none;sketch=0;fontFamily=Helvetica;" parent="1" vertex="1">
          <mxGeometry x="812" y="82" width="150" height="33" as="geometry" />
        </mxCell>
        <mxCell id="OI_sCRz20BsgHnKaaoa2-43" value="" style="shape=mxgraph.gmdl.calendar;fillColor=#596780;strokeColor=none" parent="OI_sCRz20BsgHnKaaoa2-42" vertex="1">
          <mxGeometry x="1" y="0.5" width="18" height="18" relative="1" as="geometry">
            <mxPoint x="-134" y="-9" as="offset" />
          </mxGeometry>
        </mxCell>
        <mxCell id="OI_sCRz20BsgHnKaaoa2-44" value="" style="shape=mxgraph.mockup.forms.rrect;rSize=5;strokeColor=#DFE1E5;fillColor=#ffffff;shadow=1;hachureGap=4;pointerEvents=0;labelBackgroundColor=none;sketch=0;fontFamily=Helvetica;fontSize=15;fontColor=none;html=0;" parent="1" vertex="1">
          <mxGeometry x="812" y="122" width="320" height="350" as="geometry" />
        </mxCell>
        <mxCell id="OI_sCRz20BsgHnKaaoa2-45" value="November 2021" style="strokeColor=none;fillColor=none;fontColor=#253858;fontSize=16;fontStyle=1" parent="OI_sCRz20BsgHnKaaoa2-44" vertex="1">
          <mxGeometry x="60" y="16" width="200" height="40" as="geometry" />
        </mxCell>
        <mxCell id="OI_sCRz20BsgHnKaaoa2-46" value="&lt;" style="strokeColor=none;fillColor=none;fontColor=#253858;fontSize=19;fontStyle=1;" parent="OI_sCRz20BsgHnKaaoa2-44" vertex="1">
          <mxGeometry x="16" y="16" width="50" height="40" as="geometry" />
        </mxCell>
        <mxCell id="OI_sCRz20BsgHnKaaoa2-47" value="&gt;" style="strokeColor=none;fillColor=none;fontColor=#253858;fontSize=19;fontStyle=1;" parent="OI_sCRz20BsgHnKaaoa2-44" vertex="1">
          <mxGeometry x="254" y="16" width="50" height="40" as="geometry" />
        </mxCell>
        <mxCell id="OI_sCRz20BsgHnKaaoa2-48" value="SUN" style="strokeColor=none;fillColor=none;fontColor=#999999;fontSize=12;fontStyle=1" parent="OI_sCRz20BsgHnKaaoa2-44" vertex="1">
          <mxGeometry x="20" y="56" width="40" height="40" as="geometry" />
        </mxCell>
        <mxCell id="OI_sCRz20BsgHnKaaoa2-49" value="MON" style="strokeColor=none;fillColor=none;fontColor=#999999;fontSize=12;fontStyle=1" parent="OI_sCRz20BsgHnKaaoa2-44" vertex="1">
          <mxGeometry x="60" y="56" width="40" height="40" as="geometry" />
        </mxCell>
        <mxCell id="OI_sCRz20BsgHnKaaoa2-50" value="TUE" style="strokeColor=none;fillColor=none;fontColor=#999999;fontSize=12;fontStyle=1" parent="OI_sCRz20BsgHnKaaoa2-44" vertex="1">
          <mxGeometry x="100" y="56" width="40" height="40" as="geometry" />
        </mxCell>
        <mxCell id="OI_sCRz20BsgHnKaaoa2-51" value="WED" style="strokeColor=none;fillColor=none;fontColor=#999999;fontSize=12;fontStyle=1" parent="OI_sCRz20BsgHnKaaoa2-44" vertex="1">
          <mxGeometry x="140" y="56" width="40" height="40" as="geometry" />
        </mxCell>
        <mxCell id="OI_sCRz20BsgHnKaaoa2-52" value="THU" style="strokeColor=none;fillColor=none;fontColor=#999999;fontSize=12;fontStyle=1" parent="OI_sCRz20BsgHnKaaoa2-44" vertex="1">
          <mxGeometry x="180" y="56" width="40" height="40" as="geometry" />
        </mxCell>
        <mxCell id="OI_sCRz20BsgHnKaaoa2-53" value="FRI" style="strokeColor=none;fillColor=none;fontColor=#999999;fontSize=12;fontStyle=1" parent="OI_sCRz20BsgHnKaaoa2-44" vertex="1">
          <mxGeometry x="220" y="56" width="40" height="40" as="geometry" />
        </mxCell>
        <mxCell id="OI_sCRz20BsgHnKaaoa2-54" value="SAT" style="strokeColor=none;fillColor=none;fontColor=#999999;fontSize=12;fontStyle=1" parent="OI_sCRz20BsgHnKaaoa2-44" vertex="1">
          <mxGeometry x="260" y="56" width="40" height="40" as="geometry" />
        </mxCell>
        <mxCell id="OI_sCRz20BsgHnKaaoa2-55" value="31" style="strokeColor=none;fillColor=none;fontColor=#999999;fontSize=16" parent="OI_sCRz20BsgHnKaaoa2-44" vertex="1">
          <mxGeometry x="20" y="96" width="40" height="40" as="geometry" />
        </mxCell>
        <mxCell id="OI_sCRz20BsgHnKaaoa2-56" value="1" style="strokeColor=none;fillColor=none;fontColor=#000000;fontSize=16" parent="OI_sCRz20BsgHnKaaoa2-44" vertex="1">
          <mxGeometry x="60" y="96" width="40" height="40" as="geometry" />
        </mxCell>
        <mxCell id="OI_sCRz20BsgHnKaaoa2-57" value="2" style="strokeColor=none;fillColor=none;fontColor=#000000;fontSize=16" parent="OI_sCRz20BsgHnKaaoa2-44" vertex="1">
          <mxGeometry x="100" y="96" width="40" height="40" as="geometry" />
        </mxCell>
        <mxCell id="OI_sCRz20BsgHnKaaoa2-58" value="3" style="strokeColor=none;fillColor=none;fontColor=#000000;fontSize=16" parent="OI_sCRz20BsgHnKaaoa2-44" vertex="1">
          <mxGeometry x="140" y="96" width="40" height="40" as="geometry" />
        </mxCell>
        <mxCell id="OI_sCRz20BsgHnKaaoa2-59" value="4" style="strokeColor=none;fillColor=none;fontColor=#000000;fontSize=16" parent="OI_sCRz20BsgHnKaaoa2-44" vertex="1">
          <mxGeometry x="180" y="96" width="40" height="40" as="geometry" />
        </mxCell>
        <mxCell id="OI_sCRz20BsgHnKaaoa2-60" value="5" style="strokeColor=none;fillColor=none;fontColor=#000000;fontSize=16" parent="OI_sCRz20BsgHnKaaoa2-44" vertex="1">
          <mxGeometry x="220" y="96" width="40" height="40" as="geometry" />
        </mxCell>
        <mxCell id="OI_sCRz20BsgHnKaaoa2-61" value="6" style="strokeColor=none;fillColor=none;fontColor=#000000;fontSize=16" parent="OI_sCRz20BsgHnKaaoa2-44" vertex="1">
          <mxGeometry x="260" y="96" width="40" height="40" as="geometry" />
        </mxCell>
        <mxCell id="OI_sCRz20BsgHnKaaoa2-62" value="7" style="strokeColor=none;fillColor=none;fontColor=#000000;fontSize=16" parent="OI_sCRz20BsgHnKaaoa2-44" vertex="1">
          <mxGeometry x="20" y="136" width="40" height="40" as="geometry" />
        </mxCell>
        <mxCell id="OI_sCRz20BsgHnKaaoa2-63" value="8" style="strokeColor=none;fillColor=none;fontColor=#000000;fontSize=16" parent="OI_sCRz20BsgHnKaaoa2-44" vertex="1">
          <mxGeometry x="60" y="136" width="40" height="40" as="geometry" />
        </mxCell>
        <mxCell id="OI_sCRz20BsgHnKaaoa2-64" value="9" style="strokeColor=none;fillColor=none;fontColor=#000000;fontSize=16" parent="OI_sCRz20BsgHnKaaoa2-44" vertex="1">
          <mxGeometry x="100" y="136" width="40" height="40" as="geometry" />
        </mxCell>
        <mxCell id="OI_sCRz20BsgHnKaaoa2-65" value="10" style="strokeColor=none;fillColor=none;fontColor=#0057D8;fontSize=16;fontStyle=4" parent="OI_sCRz20BsgHnKaaoa2-44" vertex="1">
          <mxGeometry x="140" y="136" width="40" height="40" as="geometry" />
        </mxCell>
        <mxCell id="OI_sCRz20BsgHnKaaoa2-66" value="11" style="strokeColor=none;fillColor=#A9C4EB;fontColor=#000000;fontSize=16;rounded=0;arcSize=10;glass=0;shadow=0;" parent="OI_sCRz20BsgHnKaaoa2-44" vertex="1">
          <mxGeometry x="180" y="136" width="40" height="40" as="geometry" />
        </mxCell>
        <mxCell id="OI_sCRz20BsgHnKaaoa2-67" value="12" style="strokeColor=none;fillColor=#D4E1F5;fontColor=#000000;fontSize=16" parent="OI_sCRz20BsgHnKaaoa2-44" vertex="1">
          <mxGeometry x="220" y="136" width="40" height="40" as="geometry" />
        </mxCell>
        <mxCell id="OI_sCRz20BsgHnKaaoa2-68" value="13" style="strokeColor=none;fillColor=#D4E1F5;fontColor=#000000;fontSize=16" parent="OI_sCRz20BsgHnKaaoa2-44" vertex="1">
          <mxGeometry x="260" y="136" width="40" height="40" as="geometry" />
        </mxCell>
        <mxCell id="OI_sCRz20BsgHnKaaoa2-69" value="14" style="strokeColor=none;fillColor=#D4E1F5;fontColor=#000000;fontSize=16" parent="OI_sCRz20BsgHnKaaoa2-44" vertex="1">
          <mxGeometry x="20" y="176" width="40" height="40" as="geometry" />
        </mxCell>
        <mxCell id="OI_sCRz20BsgHnKaaoa2-70" value="15" style="strokeColor=none;fillColor=#A9C4EB;fontColor=#000000;fontSize=16" parent="OI_sCRz20BsgHnKaaoa2-44" vertex="1">
          <mxGeometry x="60" y="176" width="40" height="40" as="geometry" />
        </mxCell>
        <mxCell id="OI_sCRz20BsgHnKaaoa2-71" value="16" style="strokeColor=none;fillColor=none;fontColor=#000000;fontSize=16" parent="OI_sCRz20BsgHnKaaoa2-44" vertex="1">
          <mxGeometry x="100" y="176" width="40" height="40" as="geometry" />
        </mxCell>
        <mxCell id="OI_sCRz20BsgHnKaaoa2-72" value="17" style="strokeColor=none;fillColor=none;fontColor=#000000;fontSize=16" parent="OI_sCRz20BsgHnKaaoa2-44" vertex="1">
          <mxGeometry x="140" y="176" width="40" height="40" as="geometry" />
        </mxCell>
        <mxCell id="OI_sCRz20BsgHnKaaoa2-73" value="18" style="strokeColor=none;fillColor=none;fontColor=#000000;fontSize=16" parent="OI_sCRz20BsgHnKaaoa2-44" vertex="1">
          <mxGeometry x="180" y="176" width="40" height="40" as="geometry" />
        </mxCell>
        <mxCell id="OI_sCRz20BsgHnKaaoa2-74" value="19" style="strokeColor=none;fillColor=none;fontColor=#000000;fontSize=16" parent="OI_sCRz20BsgHnKaaoa2-44" vertex="1">
          <mxGeometry x="220" y="176" width="40" height="40" as="geometry" />
        </mxCell>
        <mxCell id="OI_sCRz20BsgHnKaaoa2-75" value="20" style="strokeColor=none;fillColor=none;fontColor=#000000;fontSize=16" parent="OI_sCRz20BsgHnKaaoa2-44" vertex="1">
          <mxGeometry x="260" y="176" width="40" height="40" as="geometry" />
        </mxCell>
        <mxCell id="OI_sCRz20BsgHnKaaoa2-76" value="21" style="strokeColor=none;fillColor=none;fontColor=#000000;fontSize=16" parent="OI_sCRz20BsgHnKaaoa2-44" vertex="1">
          <mxGeometry x="20" y="216" width="40" height="40" as="geometry" />
        </mxCell>
        <mxCell id="OI_sCRz20BsgHnKaaoa2-77" value="22" style="strokeColor=none;fillColor=none;fontColor=#000000;fontSize=16" parent="OI_sCRz20BsgHnKaaoa2-44" vertex="1">
          <mxGeometry x="60" y="216" width="40" height="40" as="geometry" />
        </mxCell>
        <mxCell id="OI_sCRz20BsgHnKaaoa2-78" value="23" style="strokeColor=none;fillColor=none;fontColor=#999999;fontSize=16" parent="OI_sCRz20BsgHnKaaoa2-44" vertex="1">
          <mxGeometry x="100" y="216" width="40" height="40" as="geometry" />
        </mxCell>
        <mxCell id="OI_sCRz20BsgHnKaaoa2-79" value="24" style="strokeColor=none;fillColor=none;fontColor=#000000;fontSize=16" parent="OI_sCRz20BsgHnKaaoa2-44" vertex="1">
          <mxGeometry x="140" y="216" width="40" height="40" as="geometry" />
        </mxCell>
        <mxCell id="OI_sCRz20BsgHnKaaoa2-80" value="25" style="strokeColor=none;fillColor=none;fontColor=#000000;fontSize=16" parent="OI_sCRz20BsgHnKaaoa2-44" vertex="1">
          <mxGeometry x="180" y="216" width="40" height="40" as="geometry" />
        </mxCell>
        <mxCell id="OI_sCRz20BsgHnKaaoa2-81" value="26" style="strokeColor=none;fillColor=none;fontColor=#000000;fontSize=16" parent="OI_sCRz20BsgHnKaaoa2-44" vertex="1">
          <mxGeometry x="220" y="216" width="40" height="40" as="geometry" />
        </mxCell>
        <mxCell id="OI_sCRz20BsgHnKaaoa2-82" value="27" style="strokeColor=none;fillColor=none;fontColor=#000000;fontSize=16" parent="OI_sCRz20BsgHnKaaoa2-44" vertex="1">
          <mxGeometry x="260" y="216" width="40" height="40" as="geometry" />
        </mxCell>
        <mxCell id="OI_sCRz20BsgHnKaaoa2-83" value="28" style="strokeColor=none;fillColor=none;fontColor=#000000;fontSize=16" parent="OI_sCRz20BsgHnKaaoa2-44" vertex="1">
          <mxGeometry x="20" y="256" width="40" height="40" as="geometry" />
        </mxCell>
        <mxCell id="OI_sCRz20BsgHnKaaoa2-84" value="29" style="strokeColor=none;fillColor=none;fontColor=#000000;fontSize=16" parent="OI_sCRz20BsgHnKaaoa2-44" vertex="1">
          <mxGeometry x="60" y="256" width="40" height="40" as="geometry" />
        </mxCell>
        <mxCell id="OI_sCRz20BsgHnKaaoa2-85" value="30" style="strokeColor=none;fillColor=none;fontColor=#000000;fontSize=16" parent="OI_sCRz20BsgHnKaaoa2-44" vertex="1">
          <mxGeometry x="100" y="256" width="40" height="40" as="geometry" />
        </mxCell>
        <mxCell id="OI_sCRz20BsgHnKaaoa2-86" value="1" style="strokeColor=none;fillColor=none;fontColor=#999999;fontSize=16" parent="OI_sCRz20BsgHnKaaoa2-44" vertex="1">
          <mxGeometry x="140" y="256" width="40" height="40" as="geometry" />
        </mxCell>
        <mxCell id="OI_sCRz20BsgHnKaaoa2-87" value="2" style="strokeColor=none;fillColor=none;fontColor=#999999;fontSize=16" parent="OI_sCRz20BsgHnKaaoa2-44" vertex="1">
          <mxGeometry x="180" y="256" width="40" height="40" as="geometry" />
        </mxCell>
        <mxCell id="OI_sCRz20BsgHnKaaoa2-88" value="3" style="strokeColor=none;fillColor=none;fontColor=#999999;fontSize=16" parent="OI_sCRz20BsgHnKaaoa2-44" vertex="1">
          <mxGeometry x="220" y="256" width="40" height="40" as="geometry" />
        </mxCell>
        <mxCell id="OI_sCRz20BsgHnKaaoa2-89" value="4" style="strokeColor=none;fillColor=none;fontColor=#999999;fontSize=16" parent="OI_sCRz20BsgHnKaaoa2-44" vertex="1">
          <mxGeometry x="260" y="256" width="40" height="40" as="geometry" />
        </mxCell>
        <mxCell id="OI_sCRz20BsgHnKaaoa2-90" value="5" style="strokeColor=none;fillColor=none;fontColor=#999999;fontSize=16" parent="OI_sCRz20BsgHnKaaoa2-44" vertex="1">
          <mxGeometry x="20" y="296" width="40" height="40" as="geometry" />
        </mxCell>
        <mxCell id="OI_sCRz20BsgHnKaaoa2-91" value="6" style="strokeColor=none;fillColor=none;fontColor=#999999;fontSize=16" parent="OI_sCRz20BsgHnKaaoa2-44" vertex="1">
          <mxGeometry x="60" y="296" width="40" height="40" as="geometry" />
        </mxCell>
        <mxCell id="OI_sCRz20BsgHnKaaoa2-92" value="7" style="strokeColor=none;fillColor=none;fontColor=#999999;fontSize=16" parent="OI_sCRz20BsgHnKaaoa2-44" vertex="1">
          <mxGeometry x="100" y="296" width="40" height="40" as="geometry" />
        </mxCell>
        <mxCell id="OI_sCRz20BsgHnKaaoa2-93" value="8" style="strokeColor=none;fillColor=none;fontColor=#999999;fontSize=16" parent="OI_sCRz20BsgHnKaaoa2-44" vertex="1">
          <mxGeometry x="140" y="296" width="40" height="40" as="geometry" />
        </mxCell>
        <mxCell id="OI_sCRz20BsgHnKaaoa2-94" value="9" style="strokeColor=none;fillColor=none;fontColor=#999999;fontSize=16" parent="OI_sCRz20BsgHnKaaoa2-44" vertex="1">
          <mxGeometry x="180" y="296" width="40" height="40" as="geometry" />
        </mxCell>
        <mxCell id="OI_sCRz20BsgHnKaaoa2-95" value="10" style="strokeColor=none;fillColor=none;fontColor=#999999;fontSize=16" parent="OI_sCRz20BsgHnKaaoa2-44" vertex="1">
          <mxGeometry x="220" y="296" width="40" height="40" as="geometry" />
        </mxCell>
        <mxCell id="OI_sCRz20BsgHnKaaoa2-96" value="11" style="strokeColor=none;fillColor=none;fontColor=#999999;fontSize=16" parent="OI_sCRz20BsgHnKaaoa2-44" vertex="1">
          <mxGeometry x="260" y="296" width="40" height="40" as="geometry" />
        </mxCell>
        <mxCell id="OI_sCRz20BsgHnKaaoa2-102" value="" style="endArrow=none;html=1;fontFamily=Helvetica;fontSize=15;fontColor=none;startSize=14;endSize=14;sourcePerimeterSpacing=8;targetPerimeterSpacing=8;strokeColor=#596780;" parent="1" edge="1">
          <mxGeometry width="50" height="50" relative="1" as="geometry">
            <mxPoint x="454" y="48.42999999999995" as="sourcePoint" />
            <mxPoint x="463.5" y="48.42999999999995" as="targetPoint" />
          </mxGeometry>
        </mxCell>
        <mxCell id="OI_sCRz20BsgHnKaaoa2-103" value="" style="endArrow=none;html=1;fontFamily=Helvetica;fontSize=15;fontColor=none;startSize=14;endSize=14;sourcePerimeterSpacing=8;targetPerimeterSpacing=8;strokeColor=#596780;" parent="1" edge="1">
          <mxGeometry width="50" height="50" relative="1" as="geometry">
            <mxPoint x="502" y="48.44999999999999" as="sourcePoint" />
            <mxPoint x="511.5" y="48.44999999999999" as="targetPoint" />
          </mxGeometry>
        </mxCell>
        <mxCell id="OI_sCRz20BsgHnKaaoa2-105" value="" style="endArrow=none;html=1;fontFamily=Helvetica;fontSize=15;fontColor=none;startSize=14;endSize=14;sourcePerimeterSpacing=8;targetPerimeterSpacing=8;strokeColor=#596780;" parent="1" edge="1">
          <mxGeometry width="50" height="50" relative="1" as="geometry">
            <mxPoint x="507" y="44.27999999999997" as="sourcePoint" />
            <mxPoint x="507" y="52.73000000000002" as="targetPoint" />
          </mxGeometry>
        </mxCell>
        <mxCell id="OI_sCRz20BsgHnKaaoa2-106" value="1" style="text;html=1;strokeColor=none;fillColor=none;align=center;verticalAlign=middle;whiteSpace=wrap;rounded=0;shadow=0;labelBackgroundColor=none;sketch=0;hachureGap=4;pointerEvents=0;fontFamily=Helvetica;fontSize=13;fontColor=#4D4D4D;" parent="1" vertex="1">
          <mxGeometry x="476" y="37.5" width="15" height="20" as="geometry" />
        </mxCell>
        <mxCell id="OI_sCRz20BsgHnKaaoa2-112" value="Name&amp;nbsp;&lt;sup&gt;&lt;font color=&quot;#ff0000&quot;&gt;*&lt;/font&gt;&lt;/sup&gt;" style="fillColor=none;strokeColor=none;html=1;fontSize=11;fontStyle=0;align=left;fontColor=#596780;fontStyle=1;fontSize=11;hachureGap=4;pointerEvents=0;shadow=0;glass=0;labelBackgroundColor=none;sketch=0;fontFamily=Helvetica;" parent="1" vertex="1">
          <mxGeometry x="60" y="468" width="172" height="20" as="geometry" />
        </mxCell>
        <mxCell id="OI_sCRz20BsgHnKaaoa2-113" value="Messina Cake" style="rounded=1;arcSize=9;align=left;spacingLeft=5;strokeColor=#4C9AFF;html=1;strokeWidth=2;fontSize=12;hachureGap=4;pointerEvents=0;shadow=0;glass=0;labelBackgroundColor=none;sketch=0;fontFamily=Helvetica;fontColor=none;fillColor=none;gradientDirection=south;" parent="1" vertex="1">
          <mxGeometry x="60" y="493" width="172" height="33" as="geometry" />
        </mxCell>
        <mxCell id="OI_sCRz20BsgHnKaaoa2-115" value="Email&amp;nbsp;&lt;sup&gt;&lt;font color=&quot;#ff0000&quot;&gt;*&lt;/font&gt;&lt;/sup&gt;" style="fillColor=none;strokeColor=none;html=1;fontSize=11;fontStyle=0;align=left;fontColor=#596780;fontStyle=1;fontSize=11;hachureGap=4;pointerEvents=0;shadow=0;glass=0;labelBackgroundColor=none;sketch=0;fontFamily=Helvetica;" parent="1" vertex="1">
          <mxGeometry x="257" y="469" width="172" height="20" as="geometry" />
        </mxCell>
        <mxCell id="OI_sCRz20BsgHnKaaoa2-116" value="" style="rounded=1;arcSize=9;align=left;spacingLeft=5;strokeColor=#DEE1E6;html=1;strokeWidth=2;fontSize=12;hachureGap=4;pointerEvents=0;shadow=0;glass=0;labelBackgroundColor=none;sketch=0;fontFamily=Helvetica;fontColor=none;fillColor=none;gradientDirection=south;" parent="1" vertex="1">
          <mxGeometry x="257" y="494" width="172" height="33" as="geometry" />
        </mxCell>
        <mxCell id="OI_sCRz20BsgHnKaaoa2-117" value="Phone" style="fillColor=none;strokeColor=none;html=1;fontSize=11;fontStyle=0;align=left;fontColor=#596780;fontStyle=1;fontSize=11;hachureGap=4;pointerEvents=0;shadow=0;glass=0;labelBackgroundColor=none;sketch=0;fontFamily=Helvetica;" parent="1" vertex="1">
          <mxGeometry x="453" y="469" width="172" height="20" as="geometry" />
        </mxCell>
        <mxCell id="OI_sCRz20BsgHnKaaoa2-118" value="" style="rounded=1;arcSize=9;align=left;spacingLeft=5;strokeColor=#DEE1E6;html=1;strokeWidth=2;fontSize=12;hachureGap=4;pointerEvents=0;shadow=0;glass=0;labelBackgroundColor=none;sketch=0;fontFamily=Helvetica;fontColor=none;fillColor=none;gradientDirection=south;" parent="1" vertex="1">
          <mxGeometry x="453" y="494" width="172" height="33" as="geometry" />
        </mxCell>
        <mxCell id="OI_sCRz20BsgHnKaaoa2-127" value="&lt;font face=&quot;Helvetica&quot;&gt;Enter your additional requests&lt;/font&gt;" style="rounded=1;arcSize=4;fillColor=none;align=left;spacingLeft=5;strokeColor=#DEE1E6;html=1;strokeWidth=2;fontColor=#B3B3B3;fontSize=12;verticalAlign=top;sketch=0;hachureGap=4;pointerEvents=0;fontFamily=Architects Daughter;fontSource=https%3A%2F%2Ffonts.googleapis.com%2Fcss%3Ffamily%3DArchitects%2BDaughter;shadow=0;glass=0;labelBackgroundColor=none;" parent="1" vertex="1">
          <mxGeometry x="60" y="551" width="371" height="115" as="geometry" />
        </mxCell>
        <mxCell id="OI_sCRz20BsgHnKaaoa2-135" value="" style="fillColor=#F1F2F4;strokeColor=none;rounded=1;arcSize=50;sketch=0;hachureGap=4;pointerEvents=0;fontFamily=Architects Daughter;fontSource=https%3A%2F%2Ffonts.googleapis.com%2Fcss%3Ffamily%3DArchitects%2BDaughter;fontSize=20;shadow=0;glass=0;labelBackgroundColor=none;fontColor=#B3B3B3;html=0;" parent="1" vertex="1">
          <mxGeometry x="453" y="553" width="30" height="16" as="geometry" />
        </mxCell>
        <mxCell id="OI_sCRz20BsgHnKaaoa2-136" value="" style="shape=ellipse;strokeColor=none;fillColor=#C2C7D0;sketch=0;hachureGap=4;pointerEvents=0;fontFamily=Architects Daughter;fontSource=https%3A%2F%2Ffonts.googleapis.com%2Fcss%3Ffamily%3DArchitects%2BDaughter;fontSize=20;" parent="OI_sCRz20BsgHnKaaoa2-135" vertex="1">
          <mxGeometry y="0.5" width="12" height="12" relative="1" as="geometry">
            <mxPoint x="2" y="-6" as="offset" />
          </mxGeometry>
        </mxCell>
        <mxCell id="OI_sCRz20BsgHnKaaoa2-137" value="" style="html=1;shadow=0;dashed=0;shape=mxgraph.atlassian.x;strokeColor=#C2C7D0;sketch=1;hachureGap=4;pointerEvents=0;fontFamily=Architects Daughter;fontSource=https%3A%2F%2Ffonts.googleapis.com%2Fcss%3Ffamily%3DArchitects%2BDaughter;fontSize=20;" parent="OI_sCRz20BsgHnKaaoa2-135" vertex="1">
          <mxGeometry x="1" y="0.5" width="5" height="5" relative="1" as="geometry">
            <mxPoint x="-10" y="-3" as="offset" />
          </mxGeometry>
        </mxCell>
        <mxCell id="OI_sCRz20BsgHnKaaoa2-138" value="Hostess" style="rounded=1;arcSize=10;fillColor=none;strokeColor=none;html=1;fontSize=11;align=left;fontColor=#596780;fontStyle=0;fontSize=11;sketch=0;hachureGap=4;pointerEvents=0;fontFamily=Helvetica;shadow=0;glass=0;labelBackgroundColor=none;" parent="1" vertex="1">
          <mxGeometry x="513" y="551" width="65" height="20" as="geometry" />
        </mxCell>
        <mxCell id="OI_sCRz20BsgHnKaaoa2-139" value="" style="fillColor=#36B37E;strokeColor=none;rounded=1;arcSize=50;sketch=0;hachureGap=4;pointerEvents=0;fontFamily=Architects Daughter;fontSource=https%3A%2F%2Ffonts.googleapis.com%2Fcss%3Ffamily%3DArchitects%2BDaughter;fontSize=20;shadow=0;glass=0;labelBackgroundColor=none;fontColor=#596780;html=0;" parent="1" vertex="1">
          <mxGeometry x="453" y="584" width="30" height="16" as="geometry" />
        </mxCell>
        <mxCell id="OI_sCRz20BsgHnKaaoa2-140" value="" style="shape=ellipse;strokeColor=none;fillColor=#9AD9BE;sketch=0;hachureGap=4;pointerEvents=0;fontFamily=Architects Daughter;fontSource=https%3A%2F%2Ffonts.googleapis.com%2Fcss%3Ffamily%3DArchitects%2BDaughter;fontSize=20;" parent="OI_sCRz20BsgHnKaaoa2-139" vertex="1">
          <mxGeometry x="1" y="0.5" width="12" height="12" relative="1" as="geometry">
            <mxPoint x="-14" y="-6" as="offset" />
          </mxGeometry>
        </mxCell>
        <mxCell id="OI_sCRz20BsgHnKaaoa2-141" value="" style="html=1;shadow=0;dashed=0;shape=mxgraph.atlassian.check;strokeColor=#9AD9BE;sketch=1;hachureGap=4;pointerEvents=0;fontFamily=Architects Daughter;fontSource=https%3A%2F%2Ffonts.googleapis.com%2Fcss%3Ffamily%3DArchitects%2BDaughter;fontSize=20;" parent="OI_sCRz20BsgHnKaaoa2-139" vertex="1">
          <mxGeometry y="0.5" width="6" height="5" relative="1" as="geometry">
            <mxPoint x="4" y="-3" as="offset" />
          </mxGeometry>
        </mxCell>
        <mxCell id="OI_sCRz20BsgHnKaaoa2-142" value="Catering" style="rounded=1;arcSize=10;fillColor=none;strokeColor=none;html=1;fontSize=11;align=left;fontColor=#596780;fontStyle=0;fontSize=11;sketch=0;hachureGap=4;pointerEvents=0;fontFamily=Helvetica;shadow=0;glass=0;labelBackgroundColor=none;" parent="1" vertex="1">
          <mxGeometry x="513" y="582" width="95" height="20" as="geometry" />
        </mxCell>
        <mxCell id="OI_sCRz20BsgHnKaaoa2-147" value="" style="fillColor=#F1F2F4;strokeColor=none;rounded=1;arcSize=50;sketch=0;hachureGap=4;pointerEvents=0;fontFamily=Architects Daughter;fontSource=https%3A%2F%2Ffonts.googleapis.com%2Fcss%3Ffamily%3DArchitects%2BDaughter;fontSize=20;shadow=0;glass=0;labelBackgroundColor=none;fontColor=#B3B3B3;html=0;" parent="1" vertex="1">
          <mxGeometry x="453" y="615" width="30" height="16" as="geometry" />
        </mxCell>
        <mxCell id="OI_sCRz20BsgHnKaaoa2-148" value="" style="shape=ellipse;strokeColor=none;fillColor=#C2C7D0;sketch=0;hachureGap=4;pointerEvents=0;fontFamily=Architects Daughter;fontSource=https%3A%2F%2Ffonts.googleapis.com%2Fcss%3Ffamily%3DArchitects%2BDaughter;fontSize=20;" parent="OI_sCRz20BsgHnKaaoa2-147" vertex="1">
          <mxGeometry y="0.5" width="12" height="12" relative="1" as="geometry">
            <mxPoint x="2" y="-6" as="offset" />
          </mxGeometry>
        </mxCell>
        <mxCell id="OI_sCRz20BsgHnKaaoa2-149" value="" style="html=1;shadow=0;dashed=0;shape=mxgraph.atlassian.x;strokeColor=#C2C7D0;sketch=1;hachureGap=4;pointerEvents=0;fontFamily=Architects Daughter;fontSource=https%3A%2F%2Ffonts.googleapis.com%2Fcss%3Ffamily%3DArchitects%2BDaughter;fontSize=20;" parent="OI_sCRz20BsgHnKaaoa2-147" vertex="1">
          <mxGeometry x="1" y="0.5" width="5" height="5" relative="1" as="geometry">
            <mxPoint x="-10" y="-3" as="offset" />
          </mxGeometry>
        </mxCell>
        <mxCell id="OI_sCRz20BsgHnKaaoa2-150" value="Limousine transfer" style="rounded=1;arcSize=10;fillColor=none;strokeColor=none;html=1;fontSize=11;align=left;fontColor=#596780;fontStyle=0;fontSize=11;sketch=0;hachureGap=4;pointerEvents=0;fontFamily=Helvetica;shadow=0;glass=0;labelBackgroundColor=none;" parent="1" vertex="1">
          <mxGeometry x="513" y="613" width="101" height="20" as="geometry" />
        </mxCell>
        <mxCell id="OI_sCRz20BsgHnKaaoa2-152" value="Send" style="rounded=1;fillColor=#0057D8;strokeColor=none;html=1;fontColor=#ffffff;align=center;verticalAlign=middle;fontStyle=0;fontSize=12;sketch=0;hachureGap=4;pointerEvents=0;shadow=0;glass=0;labelBackgroundColor=none;fontFamily=Helvetica;" parent="1" vertex="1">
          <mxGeometry x="57" y="691" width="86" height="33" as="geometry" />
        </mxCell>
        <mxCell id="OI_sCRz20BsgHnKaaoa2-154" value="" style="fillColor=#F1F2F4;strokeColor=none;rounded=1;arcSize=50;sketch=0;hachureGap=4;pointerEvents=0;fontFamily=Architects Daughter;fontSource=https%3A%2F%2Ffonts.googleapis.com%2Fcss%3Ffamily%3DArchitects%2BDaughter;fontSize=20;shadow=0;glass=0;labelBackgroundColor=none;fontColor=#B3B3B3;html=0;" parent="1" vertex="1">
          <mxGeometry x="453" y="648" width="30" height="16" as="geometry" />
        </mxCell>
        <mxCell id="OI_sCRz20BsgHnKaaoa2-155" value="" style="shape=ellipse;strokeColor=none;fillColor=#C2C7D0;sketch=0;hachureGap=4;pointerEvents=0;fontFamily=Architects Daughter;fontSource=https%3A%2F%2Ffonts.googleapis.com%2Fcss%3Ffamily%3DArchitects%2BDaughter;fontSize=20;" parent="OI_sCRz20BsgHnKaaoa2-154" vertex="1">
          <mxGeometry y="0.5" width="12" height="12" relative="1" as="geometry">
            <mxPoint x="2" y="-6" as="offset" />
          </mxGeometry>
        </mxCell>
        <mxCell id="OI_sCRz20BsgHnKaaoa2-156" value="" style="html=1;shadow=0;dashed=0;shape=mxgraph.atlassian.x;strokeColor=#C2C7D0;sketch=1;hachureGap=4;pointerEvents=0;fontFamily=Architects Daughter;fontSource=https%3A%2F%2Ffonts.googleapis.com%2Fcss%3Ffamily%3DArchitects%2BDaughter;fontSize=20;" parent="OI_sCRz20BsgHnKaaoa2-154" vertex="1">
          <mxGeometry x="1" y="0.5" width="5" height="5" relative="1" as="geometry">
            <mxPoint x="-10" y="-3" as="offset" />
          </mxGeometry>
        </mxCell>
        <mxCell id="OI_sCRz20BsgHnKaaoa2-157" value="" style="shape=mxgraph.signs.animals.dog_on_leash;html=1;pointerEvents=1;fillColor=#596780;strokeColor=none;verticalLabelPosition=bottom;verticalAlign=top;align=center;hachureGap=4;shadow=0;glass=0;labelBackgroundColor=none;sketch=0;fontFamily=Helvetica;fontSize=13;fontColor=#596780;" parent="1" vertex="1">
          <mxGeometry x="545" y="648.5" width="15.99" height="15" as="geometry" />
        </mxCell>
        <mxCell id="OI_sCRz20BsgHnKaaoa2-158" value="Pets" style="rounded=1;arcSize=10;fillColor=none;strokeColor=none;html=1;fontSize=11;align=left;fontColor=#596780;fontStyle=0;fontSize=11;sketch=0;hachureGap=4;pointerEvents=0;fontFamily=Helvetica;shadow=0;glass=0;labelBackgroundColor=none;" parent="1" vertex="1">
          <mxGeometry x="513" y="646" width="101" height="20" as="geometry" />
        </mxCell>
        <mxCell id="OI_sCRz20BsgHnKaaoa2-160" value="SUCCESS" style="dashed=0;html=1;rounded=1;strokeColor=#008364;fontSize=10;align=center;fontStyle=1;strokeWidth=1;fontColor=#008364;hachureGap=4;pointerEvents=0;shadow=0;glass=0;labelBackgroundColor=none;sketch=0;fontFamily=Helvetica;fillColor=#D5E8D4;gradientDirection=south;" parent="1" vertex="1">
          <mxGeometry x="185" y="697.5" width="70" height="20" as="geometry" />
        </mxCell>
        <mxCell id="OI_sCRz20BsgHnKaaoa2-161" value="Our representative will contact you soon!" style="text;html=1;strokeColor=none;fillColor=none;align=center;verticalAlign=middle;whiteSpace=wrap;rounded=0;shadow=0;glass=0;labelBackgroundColor=none;sketch=0;hachureGap=4;pointerEvents=0;fontFamily=Helvetica;fontSize=10;fontColor=#596780;" parent="1" vertex="1">
          <mxGeometry x="266" y="697.5" width="193" height="20" as="geometry" />
        </mxCell>
        <mxCell id="OI_sCRz20BsgHnKaaoa2-167" value="" style="endArrow=open;html=1;fontFamily=Helvetica;fontSize=13;fontColor=#596780;startSize=14;endSize=14;sourcePerimeterSpacing=8;targetPerimeterSpacing=8;strokeColor=#B3B3B3;rounded=1;" parent="1" edge="1">
          <mxGeometry relative="1" as="geometry">
            <mxPoint x="496" y="705" as="sourcePoint" />
            <mxPoint x="783" y="705" as="targetPoint" />
          </mxGeometry>
        </mxCell>
        <mxCell id="OI_sCRz20BsgHnKaaoa2-168" value="" style="shape=message;html=1;outlineConnect=0;fillColor=default;strokeColor=#008364;" parent="OI_sCRz20BsgHnKaaoa2-167" vertex="1">
          <mxGeometry width="20" height="14" relative="1" as="geometry">
            <mxPoint x="-18" y="-6" as="offset" />
          </mxGeometry>
        </mxCell>
        <mxCell id="OI_sCRz20BsgHnKaaoa2-169" value="&lt;font style=&quot;font-size: 8px ; line-height: 100%&quot;&gt;Email 1&lt;/font&gt;" style="sketch=0;outlineConnect=0;fontColor=#232F3E;gradientColor=none;strokeColor=none;fillColor=#ffffff;dashed=0;verticalLabelPosition=bottom;verticalAlign=top;align=center;html=1;fontSize=12;fontStyle=0;aspect=fixed;shape=mxgraph.aws4.resourceIcon;resIcon=mxgraph.aws4.email_notification;hachureGap=4;pointerEvents=0;shadow=0;glass=0;labelBackgroundColor=none;fontFamily=Helvetica;" parent="1" vertex="1">
          <mxGeometry x="830" y="670" width="60" height="60" as="geometry" />
        </mxCell>
        <mxCell id="OI_sCRz20BsgHnKaaoa2-170" value="&lt;font style=&quot;font-size: 8px ; line-height: 100%&quot;&gt;Email 2&lt;/font&gt;" style="sketch=0;outlineConnect=0;fontColor=#232F3E;gradientColor=none;strokeColor=none;fillColor=#ffffff;dashed=0;verticalLabelPosition=bottom;verticalAlign=top;align=center;html=1;fontSize=12;fontStyle=0;aspect=fixed;shape=mxgraph.aws4.resourceIcon;resIcon=mxgraph.aws4.email_notification;hachureGap=4;pointerEvents=0;shadow=0;glass=0;labelBackgroundColor=none;fontFamily=Helvetica;" parent="1" vertex="1">
          <mxGeometry x="909" y="670" width="60" height="60" as="geometry" />
        </mxCell>
        <mxCell id="OI_sCRz20BsgHnKaaoa2-171" value="&lt;font style=&quot;font-size: 8px ; line-height: 100%&quot;&gt;Email 3&lt;/font&gt;" style="sketch=0;outlineConnect=0;fontColor=#232F3E;gradientColor=none;strokeColor=none;fillColor=#ffffff;dashed=0;verticalLabelPosition=bottom;verticalAlign=top;align=center;html=1;fontSize=12;fontStyle=0;aspect=fixed;shape=mxgraph.aws4.resourceIcon;resIcon=mxgraph.aws4.email_notification;hachureGap=4;pointerEvents=0;shadow=0;glass=0;labelBackgroundColor=none;fontFamily=Helvetica;" parent="1" vertex="1">
          <mxGeometry x="988" y="670" width="60" height="60" as="geometry" />
        </mxCell>
        <mxCell id="OI_sCRz20BsgHnKaaoa2-172" value="" style="shape=image;html=1;verticalAlign=top;verticalLabelPosition=bottom;labelBackgroundColor=#ffffff;imageAspect=0;aspect=fixed;image=https://cdn3.iconfinder.com/data/icons/the-elegant-set/96/document-spreadsheet.png;hachureGap=4;pointerEvents=0;shadow=0;glass=0;sketch=0;fontFamily=Helvetica;fontSize=10;fontColor=#596780;strokeColor=default;strokeWidth=1;fillColor=default;gradientDirection=south;" parent="1" vertex="1">
          <mxGeometry x="1067" y="678.5" width="47" height="47" as="geometry" />
        </mxCell>
        <mxCell id="OI_sCRz20BsgHnKaaoa2-173" value="&lt;font style=&quot;font-size: 8px&quot;&gt;CSV&lt;/font&gt;" style="text;html=1;strokeColor=none;fillColor=none;align=center;verticalAlign=middle;whiteSpace=wrap;rounded=0;shadow=0;glass=0;labelBackgroundColor=none;sketch=0;hachureGap=4;pointerEvents=0;fontFamily=Helvetica;fontSize=10;fontColor=#596780;" parent="1" vertex="1">
          <mxGeometry x="1070.5" y="735" width="40" height="20" as="geometry" />
        </mxCell>
        <mxCell id="OI_sCRz20BsgHnKaaoa2-174" value="on click" style="text;html=1;strokeColor=none;fillColor=none;align=center;verticalAlign=middle;whiteSpace=wrap;rounded=0;shadow=0;glass=0;labelBackgroundColor=none;sketch=0;hachureGap=4;pointerEvents=0;fontFamily=Helvetica;fontSize=10;fontColor=#CCCCCC;fontStyle=2;rotation=-35;" parent="1" vertex="1">
          <mxGeometry x="167" y="74" width="40" height="20" as="geometry" />
        </mxCell>
        <mxCell id="OI_sCRz20BsgHnKaaoa2-175" value="on submit" style="text;html=1;strokeColor=none;fillColor=none;align=center;verticalAlign=middle;whiteSpace=wrap;rounded=0;shadow=0;glass=0;labelBackgroundColor=none;sketch=0;hachureGap=4;pointerEvents=0;fontFamily=Helvetica;fontSize=10;fontColor=#CCCCCC;fontStyle=2;rotation=-30;" parent="1" vertex="1">
          <mxGeometry x="607.13" y="223.75" width="53" height="20" as="geometry" />
        </mxCell>
      </root>
    </mxGraphModel>
  </diagram>
  <diagram name="Form - date2" id="GEAuaNhM3-Sk239vJQOE">
    <mxGraphModel dx="1202" dy="676" grid="0" gridSize="10" guides="1" tooltips="1" connect="1" arrows="1" fold="1" page="1" pageScale="1" pageWidth="1169" pageHeight="827" background="#ffffff" math="0" shadow="0">
      <root>
        <mxCell id="UmMyU7tWUx3Kh3aOtCam-0" />
        <mxCell id="UmMyU7tWUx3Kh3aOtCam-1" parent="UmMyU7tWUx3Kh3aOtCam-0" />
        <mxCell id="UmMyU7tWUx3Kh3aOtCam-2" value="" style="rounded=0;whiteSpace=wrap;html=1;shadow=0;glass=0;labelBackgroundColor=none;sketch=0;hachureGap=4;pointerEvents=0;fontFamily=Helvetica;fontSize=10;fontColor=#333333;strokeColor=none;strokeWidth=1;fillColor=#FAFAFA;gradientDirection=south;align=left;verticalAlign=middle;" vertex="1" parent="UmMyU7tWUx3Kh3aOtCam-1">
          <mxGeometry x="138" y="47" width="1002" height="119" as="geometry" />
        </mxCell>
        <mxCell id="UmMyU7tWUx3Kh3aOtCam-3" value="" style="rounded=0;fillColor=#D5E8D4;strokeColor=none;shadow=0;html=1;align=left;fontSize=12;spacingLeft=10;fontColor=#333333;resizeWidth=1;sketch=1;hachureGap=4;pointerEvents=0;fontFamily=Helvetica;fillStyle=auto;" vertex="1" parent="UmMyU7tWUx3Kh3aOtCam-1">
          <mxGeometry x="167" y="691" width="306" height="33" as="geometry" />
        </mxCell>
        <mxCell id="UmMyU7tWUx3Kh3aOtCam-6" value="&amp;nbsp; &amp;nbsp; &amp;nbsp; &amp;nbsp; Ro" style="rounded=1;arcSize=9;fillColor=#ffffff;strokeColor=#4C9AFF;html=1;strokeWidth=2;spacingLeft=5;fontColor=#000000;align=left;sketch=0;hachureGap=4;pointerEvents=0;fontFamily=Helvetica;fontSize=14;shadow=0;" vertex="1" parent="UmMyU7tWUx3Kh3aOtCam-1">
          <mxGeometry x="445.5" y="82" width="230" height="33" as="geometry" />
        </mxCell>
        <mxCell id="UmMyU7tWUx3Kh3aOtCam-7" value="" style="html=1;shadow=0;dashed=0;shape=mxgraph.atlassian.close;fillColor=#97A0AF;strokeColor=none;sketch=0;hachureGap=4;pointerEvents=0;fontFamily=Architects Daughter;fontSource=https%3A%2F%2Ffonts.googleapis.com%2Fcss%3Ffamily%3DArchitects%2BDaughter;fontSize=20;" vertex="1" parent="UmMyU7tWUx3Kh3aOtCam-6">
          <mxGeometry x="1" y="0.5" width="14" height="14" relative="1" as="geometry">
            <mxPoint x="-28" y="-7" as="offset" />
          </mxGeometry>
        </mxCell>
        <mxCell id="UmMyU7tWUx3Kh3aOtCam-8" value="" style="shape=mxgraph.signs.transportation.airplane_1;html=1;pointerEvents=1;fillColor=#596780;strokeColor=none;verticalLabelPosition=bottom;verticalAlign=top;align=center;hachureGap=4;shadow=0;labelBackgroundColor=none;sketch=0;fontFamily=Helvetica;fontSize=15;fontColor=none;" vertex="1" parent="UmMyU7tWUx3Kh3aOtCam-6">
          <mxGeometry x="11" y="14" width="16.26" height="5.75" as="geometry" />
        </mxCell>
        <mxCell id="UmMyU7tWUx3Kh3aOtCam-9" value="&lt;b&gt;&lt;font color=&quot;#596780&quot;&gt;SUGGESTIONS&lt;/font&gt;&lt;/b&gt;&lt;div&gt;&lt;br&gt;&lt;div&gt;&lt;b&gt;Ro&lt;/b&gt;me Leonardo Da Vinci ..&amp;nbsp;&lt;font color=&quot;#596780&quot;&gt;(FCO)&lt;/font&gt;&lt;/div&gt;&lt;br&gt;&lt;div&gt;&lt;b&gt;Ro&lt;/b&gt;me Ciampino Giovan .. (CIA)&lt;/div&gt;&lt;div&gt;&lt;br&gt;&lt;/div&gt;&lt;b&gt;Ro&lt;/b&gt;tterdam, Netherlands&lt;div&gt;&lt;/div&gt;&lt;/div&gt;" style="html=1;rounded=1;fillColor=default;strokeColor=#DFE1E5;fontSize=12;align=left;fontColor=#000000;shadow=1;arcSize=1;whiteSpace=wrap;spacing=2;verticalAlign=top;fontStyle=0;spacingLeft=20;spacingTop=15;sketch=0;hachureGap=4;pointerEvents=0;fontFamily=Helvetica;" vertex="1" parent="UmMyU7tWUx3Kh3aOtCam-1">
          <mxGeometry x="445.5" y="117" width="230" height="140" as="geometry" />
        </mxCell>
        <mxCell id="UmMyU7tWUx3Kh3aOtCam-10" value="" style="rounded=0;fillColor=#000000;strokeColor=none;html=1;opacity=10;resizeWidth=1;sketch=1;hachureGap=4;pointerEvents=0;fontFamily=Architects Daughter;fontSource=https%3A%2F%2Ffonts.googleapis.com%2Fcss%3Ffamily%3DArchitects%2BDaughter;fontSize=20;" vertex="1" parent="UmMyU7tWUx3Kh3aOtCam-9">
          <mxGeometry width="230" height="33" relative="1" as="geometry">
            <mxPoint y="40" as="offset" />
          </mxGeometry>
        </mxCell>
        <mxCell id="UmMyU7tWUx3Kh3aOtCam-20" value="&lt;font style=&quot;font-size: 15px&quot;&gt;&amp;nbsp; &amp;nbsp; &amp;nbsp; &amp;nbsp; Prague&lt;/font&gt;" style="rounded=1;arcSize=9;fillColor=#ffffff;strokeColor=#DEE1E6;html=1;strokeWidth=2;spacingLeft=5;fontColor=#596780;align=left;sketch=0;hachureGap=4;pointerEvents=0;fontFamily=Helvetica;fontSize=15;shadow=0;" vertex="1" parent="UmMyU7tWUx3Kh3aOtCam-1">
          <mxGeometry x="164" y="82" width="230" height="33" as="geometry" />
        </mxCell>
        <mxCell id="UmMyU7tWUx3Kh3aOtCam-21" value="" style="shape=image;verticalAlign=top;verticalLabelPosition=bottom;labelBackgroundColor=none;imageAspect=0;aspect=fixed;image=https://cdn1.iconfinder.com/data/icons/heroicons-ui/24/switch-horizontal-512.png;hachureGap=4;pointerEvents=0;shadow=0;sketch=0;fontFamily=Helvetica;fontSize=15;fontColor=none;strokeColor=#CCCCCC;fillColor=#CCCCCC;gradientDirection=south;strokeWidth=3;imageBackground=#FAFAFA;noLabel=1;imageBorder=none;" vertex="1" parent="UmMyU7tWUx3Kh3aOtCam-1">
          <mxGeometry x="410" y="88.5" width="20" height="20" as="geometry" />
        </mxCell>
        <mxCell id="UmMyU7tWUx3Kh3aOtCam-23" value="" style="shape=mxgraph.signs.transportation.airplane_2;html=1;pointerEvents=1;fillColor=#596780;strokeColor=none;verticalLabelPosition=bottom;verticalAlign=top;align=center;hachureGap=4;shadow=0;labelBackgroundColor=none;sketch=0;fontFamily=Helvetica;fontSize=14;fontColor=none;" vertex="1" parent="UmMyU7tWUx3Kh3aOtCam-1">
          <mxGeometry x="178" y="94" width="16.1" height="9" as="geometry" />
        </mxCell>
        <mxCell id="UmMyU7tWUx3Kh3aOtCam-24" style="edgeStyle=none;curved=1;orthogonalLoop=1;jettySize=auto;html=1;fontFamily=Helvetica;fontSize=13;fontColor=#596780;endArrow=open;startSize=14;endSize=14;sourcePerimeterSpacing=8;targetPerimeterSpacing=8;strokeColor=#B3B3B3;exitX=0.5;exitY=1;exitDx=0;exitDy=0;" edge="1" parent="UmMyU7tWUx3Kh3aOtCam-1" source="UmMyU7tWUx3Kh3aOtCam-25">
          <mxGeometry relative="1" as="geometry">
            <mxPoint x="367" y="410" as="targetPoint" />
            <Array as="points">
              <mxPoint x="689" y="369" />
            </Array>
          </mxGeometry>
        </mxCell>
        <mxCell id="UmMyU7tWUx3Kh3aOtCam-25" value="Request" style="rounded=1;fillColor=#0057D8;align=center;strokeColor=none;html=1;fontColor=#ffffff;fontSize=12;sketch=0;hachureGap=4;pointerEvents=0;shadow=0;labelBackgroundColor=none;fontFamily=Helvetica;" vertex="1" parent="UmMyU7tWUx3Kh3aOtCam-1">
          <mxGeometry x="1009" y="82" width="86" height="33" as="geometry" />
        </mxCell>
        <mxCell id="UmMyU7tWUx3Kh3aOtCam-27" value="" style="edgeStyle=none;curved=1;orthogonalLoop=1;jettySize=auto;html=1;fontFamily=Helvetica;fontSize=13;fontColor=#596780;endArrow=open;startSize=14;endSize=14;sourcePerimeterSpacing=8;targetPerimeterSpacing=8;strokeColor=#B3B3B3;" edge="1" parent="UmMyU7tWUx3Kh3aOtCam-1" source="UmMyU7tWUx3Kh3aOtCam-28">
          <mxGeometry relative="1" as="geometry">
            <mxPoint x="809" y="167" as="targetPoint" />
          </mxGeometry>
        </mxCell>
        <mxCell id="UmMyU7tWUx3Kh3aOtCam-28" value="&lt;font style=&quot;font-size: 15px&quot;&gt;&amp;nbsp; &amp;nbsp; &amp;nbsp; &amp;nbsp; &amp;nbsp;Depart - Arrive&lt;/font&gt;" style="rounded=1;arcSize=9;fillColor=#ffffff;align=left;spacingLeft=5;strokeColor=#4C9AFF;html=1;strokeWidth=2;fontColor=#253858;fontSize=12;hachureGap=4;pointerEvents=0;shadow=0;labelBackgroundColor=none;sketch=0;fontFamily=Helvetica;" vertex="1" parent="UmMyU7tWUx3Kh3aOtCam-1">
          <mxGeometry x="696" y="82" width="162" height="33" as="geometry" />
        </mxCell>
        <mxCell id="UmMyU7tWUx3Kh3aOtCam-29" value="" style="shape=mxgraph.gmdl.calendar;fillColor=#596780;strokeColor=none" vertex="1" parent="UmMyU7tWUx3Kh3aOtCam-28">
          <mxGeometry x="1" y="0.5" width="18" height="18" relative="1" as="geometry">
            <mxPoint x="-145" y="-9" as="offset" />
          </mxGeometry>
        </mxCell>
        <mxCell id="UmMyU7tWUx3Kh3aOtCam-30" value="" style="shape=mxgraph.mockup.forms.rrect;rSize=5;strokeColor=#DFE1E5;fillColor=#ffffff;shadow=1;hachureGap=4;pointerEvents=0;labelBackgroundColor=none;sketch=0;fontFamily=Helvetica;fontSize=15;fontColor=none;html=0;container=0;" vertex="1" parent="UmMyU7tWUx3Kh3aOtCam-1">
          <mxGeometry x="811" y="176" width="322" height="437" as="geometry" />
        </mxCell>
        <mxCell id="UmMyU7tWUx3Kh3aOtCam-87" value="Name&amp;nbsp;&lt;sup&gt;&lt;font color=&quot;#ff0000&quot;&gt;*&lt;/font&gt;&lt;/sup&gt;" style="fillColor=none;strokeColor=none;html=1;fontSize=11;fontStyle=0;align=left;fontColor=#596780;fontStyle=1;fontSize=11;hachureGap=4;pointerEvents=0;shadow=0;glass=0;labelBackgroundColor=none;sketch=0;fontFamily=Helvetica;" vertex="1" parent="UmMyU7tWUx3Kh3aOtCam-1">
          <mxGeometry x="60" y="468" width="172" height="20" as="geometry" />
        </mxCell>
        <mxCell id="UmMyU7tWUx3Kh3aOtCam-88" value="Messina Cake" style="rounded=1;arcSize=9;align=left;spacingLeft=5;strokeColor=#4C9AFF;html=1;strokeWidth=2;fontSize=12;hachureGap=4;pointerEvents=0;shadow=0;glass=0;labelBackgroundColor=none;sketch=0;fontFamily=Helvetica;fontColor=none;fillColor=none;gradientDirection=south;" vertex="1" parent="UmMyU7tWUx3Kh3aOtCam-1">
          <mxGeometry x="60" y="493" width="172" height="33" as="geometry" />
        </mxCell>
        <mxCell id="UmMyU7tWUx3Kh3aOtCam-89" value="Email&amp;nbsp;&lt;sup&gt;&lt;font color=&quot;#ff0000&quot;&gt;*&lt;/font&gt;&lt;/sup&gt;" style="fillColor=none;strokeColor=none;html=1;fontSize=11;fontStyle=0;align=left;fontColor=#596780;fontStyle=1;fontSize=11;hachureGap=4;pointerEvents=0;shadow=0;glass=0;labelBackgroundColor=none;sketch=0;fontFamily=Helvetica;" vertex="1" parent="UmMyU7tWUx3Kh3aOtCam-1">
          <mxGeometry x="257" y="469" width="172" height="20" as="geometry" />
        </mxCell>
        <mxCell id="UmMyU7tWUx3Kh3aOtCam-90" value="" style="rounded=1;arcSize=9;align=left;spacingLeft=5;strokeColor=#DEE1E6;html=1;strokeWidth=2;fontSize=12;hachureGap=4;pointerEvents=0;shadow=0;glass=0;labelBackgroundColor=none;sketch=0;fontFamily=Helvetica;fontColor=none;fillColor=none;gradientDirection=south;" vertex="1" parent="UmMyU7tWUx3Kh3aOtCam-1">
          <mxGeometry x="257" y="494" width="172" height="33" as="geometry" />
        </mxCell>
        <mxCell id="UmMyU7tWUx3Kh3aOtCam-91" value="Phone" style="fillColor=none;strokeColor=none;html=1;fontSize=11;fontStyle=0;align=left;fontColor=#596780;fontStyle=1;fontSize=11;hachureGap=4;pointerEvents=0;shadow=0;glass=0;labelBackgroundColor=none;sketch=0;fontFamily=Helvetica;" vertex="1" parent="UmMyU7tWUx3Kh3aOtCam-1">
          <mxGeometry x="453" y="469" width="172" height="20" as="geometry" />
        </mxCell>
        <mxCell id="UmMyU7tWUx3Kh3aOtCam-92" value="" style="rounded=1;arcSize=9;align=left;spacingLeft=5;strokeColor=#DEE1E6;html=1;strokeWidth=2;fontSize=12;hachureGap=4;pointerEvents=0;shadow=0;glass=0;labelBackgroundColor=none;sketch=0;fontFamily=Helvetica;fontColor=none;fillColor=none;gradientDirection=south;" vertex="1" parent="UmMyU7tWUx3Kh3aOtCam-1">
          <mxGeometry x="453" y="494" width="172" height="33" as="geometry" />
        </mxCell>
        <mxCell id="UmMyU7tWUx3Kh3aOtCam-93" value="&lt;font face=&quot;Helvetica&quot;&gt;Enter your additional requests&lt;/font&gt;" style="rounded=1;arcSize=4;fillColor=none;align=left;spacingLeft=5;strokeColor=#DEE1E6;html=1;strokeWidth=2;fontColor=#B3B3B3;fontSize=12;verticalAlign=top;sketch=0;hachureGap=4;pointerEvents=0;fontFamily=Architects Daughter;fontSource=https%3A%2F%2Ffonts.googleapis.com%2Fcss%3Ffamily%3DArchitects%2BDaughter;shadow=0;glass=0;labelBackgroundColor=none;" vertex="1" parent="UmMyU7tWUx3Kh3aOtCam-1">
          <mxGeometry x="60" y="551" width="371" height="115" as="geometry" />
        </mxCell>
        <mxCell id="UmMyU7tWUx3Kh3aOtCam-94" value="" style="fillColor=#F1F2F4;strokeColor=none;rounded=1;arcSize=50;sketch=0;hachureGap=4;pointerEvents=0;fontFamily=Architects Daughter;fontSource=https%3A%2F%2Ffonts.googleapis.com%2Fcss%3Ffamily%3DArchitects%2BDaughter;fontSize=20;shadow=0;glass=0;labelBackgroundColor=none;fontColor=#B3B3B3;html=0;" vertex="1" parent="UmMyU7tWUx3Kh3aOtCam-1">
          <mxGeometry x="453" y="553" width="30" height="16" as="geometry" />
        </mxCell>
        <mxCell id="UmMyU7tWUx3Kh3aOtCam-95" value="" style="shape=ellipse;strokeColor=none;fillColor=#C2C7D0;sketch=0;hachureGap=4;pointerEvents=0;fontFamily=Architects Daughter;fontSource=https%3A%2F%2Ffonts.googleapis.com%2Fcss%3Ffamily%3DArchitects%2BDaughter;fontSize=20;" vertex="1" parent="UmMyU7tWUx3Kh3aOtCam-94">
          <mxGeometry y="0.5" width="12" height="12" relative="1" as="geometry">
            <mxPoint x="2" y="-6" as="offset" />
          </mxGeometry>
        </mxCell>
        <mxCell id="UmMyU7tWUx3Kh3aOtCam-96" value="" style="html=1;shadow=0;dashed=0;shape=mxgraph.atlassian.x;strokeColor=#C2C7D0;sketch=1;hachureGap=4;pointerEvents=0;fontFamily=Architects Daughter;fontSource=https%3A%2F%2Ffonts.googleapis.com%2Fcss%3Ffamily%3DArchitects%2BDaughter;fontSize=20;" vertex="1" parent="UmMyU7tWUx3Kh3aOtCam-94">
          <mxGeometry x="1" y="0.5" width="5" height="5" relative="1" as="geometry">
            <mxPoint x="-10" y="-3" as="offset" />
          </mxGeometry>
        </mxCell>
        <mxCell id="UmMyU7tWUx3Kh3aOtCam-97" value="Hostess" style="rounded=1;arcSize=10;fillColor=none;strokeColor=none;html=1;fontSize=11;align=left;fontColor=#596780;fontStyle=0;fontSize=11;sketch=0;hachureGap=4;pointerEvents=0;fontFamily=Helvetica;shadow=0;glass=0;labelBackgroundColor=none;" vertex="1" parent="UmMyU7tWUx3Kh3aOtCam-1">
          <mxGeometry x="513" y="551" width="65" height="20" as="geometry" />
        </mxCell>
        <mxCell id="UmMyU7tWUx3Kh3aOtCam-98" value="" style="fillColor=#36B37E;strokeColor=none;rounded=1;arcSize=50;sketch=0;hachureGap=4;pointerEvents=0;fontFamily=Architects Daughter;fontSource=https%3A%2F%2Ffonts.googleapis.com%2Fcss%3Ffamily%3DArchitects%2BDaughter;fontSize=20;shadow=0;glass=0;labelBackgroundColor=none;fontColor=#596780;html=0;" vertex="1" parent="UmMyU7tWUx3Kh3aOtCam-1">
          <mxGeometry x="453" y="584" width="30" height="16" as="geometry" />
        </mxCell>
        <mxCell id="UmMyU7tWUx3Kh3aOtCam-99" value="" style="shape=ellipse;strokeColor=none;fillColor=#9AD9BE;sketch=0;hachureGap=4;pointerEvents=0;fontFamily=Architects Daughter;fontSource=https%3A%2F%2Ffonts.googleapis.com%2Fcss%3Ffamily%3DArchitects%2BDaughter;fontSize=20;" vertex="1" parent="UmMyU7tWUx3Kh3aOtCam-98">
          <mxGeometry x="1" y="0.5" width="12" height="12" relative="1" as="geometry">
            <mxPoint x="-14" y="-6" as="offset" />
          </mxGeometry>
        </mxCell>
        <mxCell id="UmMyU7tWUx3Kh3aOtCam-100" value="" style="html=1;shadow=0;dashed=0;shape=mxgraph.atlassian.check;strokeColor=#9AD9BE;sketch=1;hachureGap=4;pointerEvents=0;fontFamily=Architects Daughter;fontSource=https%3A%2F%2Ffonts.googleapis.com%2Fcss%3Ffamily%3DArchitects%2BDaughter;fontSize=20;" vertex="1" parent="UmMyU7tWUx3Kh3aOtCam-98">
          <mxGeometry y="0.5" width="6" height="5" relative="1" as="geometry">
            <mxPoint x="4" y="-3" as="offset" />
          </mxGeometry>
        </mxCell>
        <mxCell id="UmMyU7tWUx3Kh3aOtCam-101" value="Catering" style="rounded=1;arcSize=10;fillColor=none;strokeColor=none;html=1;fontSize=11;align=left;fontColor=#596780;fontStyle=0;fontSize=11;sketch=0;hachureGap=4;pointerEvents=0;fontFamily=Helvetica;shadow=0;glass=0;labelBackgroundColor=none;" vertex="1" parent="UmMyU7tWUx3Kh3aOtCam-1">
          <mxGeometry x="513" y="582" width="95" height="20" as="geometry" />
        </mxCell>
        <mxCell id="UmMyU7tWUx3Kh3aOtCam-102" value="" style="fillColor=#F1F2F4;strokeColor=none;rounded=1;arcSize=50;sketch=0;hachureGap=4;pointerEvents=0;fontFamily=Architects Daughter;fontSource=https%3A%2F%2Ffonts.googleapis.com%2Fcss%3Ffamily%3DArchitects%2BDaughter;fontSize=20;shadow=0;glass=0;labelBackgroundColor=none;fontColor=#B3B3B3;html=0;" vertex="1" parent="UmMyU7tWUx3Kh3aOtCam-1">
          <mxGeometry x="453" y="615" width="30" height="16" as="geometry" />
        </mxCell>
        <mxCell id="UmMyU7tWUx3Kh3aOtCam-103" value="" style="shape=ellipse;strokeColor=none;fillColor=#C2C7D0;sketch=0;hachureGap=4;pointerEvents=0;fontFamily=Architects Daughter;fontSource=https%3A%2F%2Ffonts.googleapis.com%2Fcss%3Ffamily%3DArchitects%2BDaughter;fontSize=20;" vertex="1" parent="UmMyU7tWUx3Kh3aOtCam-102">
          <mxGeometry y="0.5" width="12" height="12" relative="1" as="geometry">
            <mxPoint x="2" y="-6" as="offset" />
          </mxGeometry>
        </mxCell>
        <mxCell id="UmMyU7tWUx3Kh3aOtCam-104" value="" style="html=1;shadow=0;dashed=0;shape=mxgraph.atlassian.x;strokeColor=#C2C7D0;sketch=1;hachureGap=4;pointerEvents=0;fontFamily=Architects Daughter;fontSource=https%3A%2F%2Ffonts.googleapis.com%2Fcss%3Ffamily%3DArchitects%2BDaughter;fontSize=20;" vertex="1" parent="UmMyU7tWUx3Kh3aOtCam-102">
          <mxGeometry x="1" y="0.5" width="5" height="5" relative="1" as="geometry">
            <mxPoint x="-10" y="-3" as="offset" />
          </mxGeometry>
        </mxCell>
        <mxCell id="UmMyU7tWUx3Kh3aOtCam-105" value="Limousine transfer" style="rounded=1;arcSize=10;fillColor=none;strokeColor=none;html=1;fontSize=11;align=left;fontColor=#596780;fontStyle=0;fontSize=11;sketch=0;hachureGap=4;pointerEvents=0;fontFamily=Helvetica;shadow=0;glass=0;labelBackgroundColor=none;" vertex="1" parent="UmMyU7tWUx3Kh3aOtCam-1">
          <mxGeometry x="513" y="613" width="101" height="20" as="geometry" />
        </mxCell>
        <mxCell id="UmMyU7tWUx3Kh3aOtCam-106" value="Send" style="rounded=1;fillColor=#0057D8;strokeColor=none;html=1;fontColor=#ffffff;align=center;verticalAlign=middle;fontStyle=0;fontSize=12;sketch=0;hachureGap=4;pointerEvents=0;shadow=0;glass=0;labelBackgroundColor=none;fontFamily=Helvetica;" vertex="1" parent="UmMyU7tWUx3Kh3aOtCam-1">
          <mxGeometry x="57" y="691" width="86" height="33" as="geometry" />
        </mxCell>
        <mxCell id="UmMyU7tWUx3Kh3aOtCam-107" value="" style="fillColor=#F1F2F4;strokeColor=none;rounded=1;arcSize=50;sketch=0;hachureGap=4;pointerEvents=0;fontFamily=Architects Daughter;fontSource=https%3A%2F%2Ffonts.googleapis.com%2Fcss%3Ffamily%3DArchitects%2BDaughter;fontSize=20;shadow=0;glass=0;labelBackgroundColor=none;fontColor=#B3B3B3;html=0;" vertex="1" parent="UmMyU7tWUx3Kh3aOtCam-1">
          <mxGeometry x="453" y="648" width="30" height="16" as="geometry" />
        </mxCell>
        <mxCell id="UmMyU7tWUx3Kh3aOtCam-108" value="" style="shape=ellipse;strokeColor=none;fillColor=#C2C7D0;sketch=0;hachureGap=4;pointerEvents=0;fontFamily=Architects Daughter;fontSource=https%3A%2F%2Ffonts.googleapis.com%2Fcss%3Ffamily%3DArchitects%2BDaughter;fontSize=20;" vertex="1" parent="UmMyU7tWUx3Kh3aOtCam-107">
          <mxGeometry y="0.5" width="12" height="12" relative="1" as="geometry">
            <mxPoint x="2" y="-6" as="offset" />
          </mxGeometry>
        </mxCell>
        <mxCell id="UmMyU7tWUx3Kh3aOtCam-109" value="" style="html=1;shadow=0;dashed=0;shape=mxgraph.atlassian.x;strokeColor=#C2C7D0;sketch=1;hachureGap=4;pointerEvents=0;fontFamily=Architects Daughter;fontSource=https%3A%2F%2Ffonts.googleapis.com%2Fcss%3Ffamily%3DArchitects%2BDaughter;fontSize=20;" vertex="1" parent="UmMyU7tWUx3Kh3aOtCam-107">
          <mxGeometry x="1" y="0.5" width="5" height="5" relative="1" as="geometry">
            <mxPoint x="-10" y="-3" as="offset" />
          </mxGeometry>
        </mxCell>
        <mxCell id="UmMyU7tWUx3Kh3aOtCam-110" value="" style="shape=mxgraph.signs.animals.dog_on_leash;html=1;pointerEvents=1;fillColor=#596780;strokeColor=none;verticalLabelPosition=bottom;verticalAlign=top;align=center;hachureGap=4;shadow=0;glass=0;labelBackgroundColor=none;sketch=0;fontFamily=Helvetica;fontSize=13;fontColor=#596780;" vertex="1" parent="UmMyU7tWUx3Kh3aOtCam-1">
          <mxGeometry x="545" y="648.5" width="15.99" height="15" as="geometry" />
        </mxCell>
        <mxCell id="UmMyU7tWUx3Kh3aOtCam-111" value="Pets" style="rounded=1;arcSize=10;fillColor=none;strokeColor=none;html=1;fontSize=11;align=left;fontColor=#596780;fontStyle=0;fontSize=11;sketch=0;hachureGap=4;pointerEvents=0;fontFamily=Helvetica;shadow=0;glass=0;labelBackgroundColor=none;" vertex="1" parent="UmMyU7tWUx3Kh3aOtCam-1">
          <mxGeometry x="513" y="646" width="101" height="20" as="geometry" />
        </mxCell>
        <mxCell id="UmMyU7tWUx3Kh3aOtCam-112" value="SUCCESS" style="dashed=0;html=1;rounded=1;strokeColor=#008364;fontSize=10;align=center;fontStyle=1;strokeWidth=1;fontColor=#008364;hachureGap=4;pointerEvents=0;shadow=0;glass=0;labelBackgroundColor=none;sketch=0;fontFamily=Helvetica;fillColor=#D5E8D4;gradientDirection=south;" vertex="1" parent="UmMyU7tWUx3Kh3aOtCam-1">
          <mxGeometry x="185" y="697.5" width="70" height="20" as="geometry" />
        </mxCell>
        <mxCell id="UmMyU7tWUx3Kh3aOtCam-113" value="Our representative will contact you soon!" style="text;html=1;strokeColor=none;fillColor=none;align=center;verticalAlign=middle;whiteSpace=wrap;rounded=0;shadow=0;glass=0;labelBackgroundColor=none;sketch=0;hachureGap=4;pointerEvents=0;fontFamily=Helvetica;fontSize=10;fontColor=#596780;" vertex="1" parent="UmMyU7tWUx3Kh3aOtCam-1">
          <mxGeometry x="266" y="697.5" width="193" height="20" as="geometry" />
        </mxCell>
        <mxCell id="UmMyU7tWUx3Kh3aOtCam-114" value="" style="endArrow=open;html=1;fontFamily=Helvetica;fontSize=13;fontColor=#596780;startSize=14;endSize=14;sourcePerimeterSpacing=8;targetPerimeterSpacing=8;strokeColor=#B3B3B3;rounded=1;" edge="1" parent="UmMyU7tWUx3Kh3aOtCam-1">
          <mxGeometry relative="1" as="geometry">
            <mxPoint x="496" y="705" as="sourcePoint" />
            <mxPoint x="783" y="705" as="targetPoint" />
          </mxGeometry>
        </mxCell>
        <mxCell id="UmMyU7tWUx3Kh3aOtCam-115" value="" style="shape=message;html=1;outlineConnect=0;fillColor=default;strokeColor=#008364;" vertex="1" parent="UmMyU7tWUx3Kh3aOtCam-114">
          <mxGeometry width="20" height="14" relative="1" as="geometry">
            <mxPoint x="-18" y="-6" as="offset" />
          </mxGeometry>
        </mxCell>
        <mxCell id="UmMyU7tWUx3Kh3aOtCam-116" value="&lt;font style=&quot;font-size: 8px ; line-height: 100%&quot;&gt;Email 1&lt;/font&gt;" style="sketch=0;outlineConnect=0;fontColor=#232F3E;gradientColor=none;strokeColor=none;fillColor=#ffffff;dashed=0;verticalLabelPosition=bottom;verticalAlign=top;align=center;html=1;fontSize=12;fontStyle=0;aspect=fixed;shape=mxgraph.aws4.resourceIcon;resIcon=mxgraph.aws4.email_notification;hachureGap=4;pointerEvents=0;shadow=0;glass=0;labelBackgroundColor=none;fontFamily=Helvetica;" vertex="1" parent="UmMyU7tWUx3Kh3aOtCam-1">
          <mxGeometry x="830" y="670" width="60" height="60" as="geometry" />
        </mxCell>
        <mxCell id="UmMyU7tWUx3Kh3aOtCam-117" value="&lt;font style=&quot;font-size: 8px ; line-height: 100%&quot;&gt;Email 2&lt;/font&gt;" style="sketch=0;outlineConnect=0;fontColor=#232F3E;gradientColor=none;strokeColor=none;fillColor=#ffffff;dashed=0;verticalLabelPosition=bottom;verticalAlign=top;align=center;html=1;fontSize=12;fontStyle=0;aspect=fixed;shape=mxgraph.aws4.resourceIcon;resIcon=mxgraph.aws4.email_notification;hachureGap=4;pointerEvents=0;shadow=0;glass=0;labelBackgroundColor=none;fontFamily=Helvetica;" vertex="1" parent="UmMyU7tWUx3Kh3aOtCam-1">
          <mxGeometry x="909" y="670" width="60" height="60" as="geometry" />
        </mxCell>
        <mxCell id="UmMyU7tWUx3Kh3aOtCam-118" value="&lt;font style=&quot;font-size: 8px ; line-height: 100%&quot;&gt;Email 3&lt;/font&gt;" style="sketch=0;outlineConnect=0;fontColor=#232F3E;gradientColor=none;strokeColor=none;fillColor=#ffffff;dashed=0;verticalLabelPosition=bottom;verticalAlign=top;align=center;html=1;fontSize=12;fontStyle=0;aspect=fixed;shape=mxgraph.aws4.resourceIcon;resIcon=mxgraph.aws4.email_notification;hachureGap=4;pointerEvents=0;shadow=0;glass=0;labelBackgroundColor=none;fontFamily=Helvetica;" vertex="1" parent="UmMyU7tWUx3Kh3aOtCam-1">
          <mxGeometry x="988" y="670" width="60" height="60" as="geometry" />
        </mxCell>
        <mxCell id="UmMyU7tWUx3Kh3aOtCam-119" value="" style="shape=image;html=1;verticalAlign=top;verticalLabelPosition=bottom;labelBackgroundColor=#ffffff;imageAspect=0;aspect=fixed;image=https://cdn3.iconfinder.com/data/icons/the-elegant-set/96/document-spreadsheet.png;hachureGap=4;pointerEvents=0;shadow=0;glass=0;sketch=0;fontFamily=Helvetica;fontSize=10;fontColor=#596780;strokeColor=default;strokeWidth=1;fillColor=default;gradientDirection=south;" vertex="1" parent="UmMyU7tWUx3Kh3aOtCam-1">
          <mxGeometry x="1067" y="678.5" width="47" height="47" as="geometry" />
        </mxCell>
        <mxCell id="UmMyU7tWUx3Kh3aOtCam-120" value="&lt;font style=&quot;font-size: 8px&quot;&gt;CSV&lt;/font&gt;" style="text;html=1;strokeColor=none;fillColor=none;align=center;verticalAlign=middle;whiteSpace=wrap;rounded=0;shadow=0;glass=0;labelBackgroundColor=none;sketch=0;hachureGap=4;pointerEvents=0;fontFamily=Helvetica;fontSize=10;fontColor=#596780;" vertex="1" parent="UmMyU7tWUx3Kh3aOtCam-1">
          <mxGeometry x="1070.5" y="735" width="40" height="20" as="geometry" />
        </mxCell>
        <mxCell id="UmMyU7tWUx3Kh3aOtCam-122" value="on submit" style="text;html=1;strokeColor=none;fillColor=none;align=center;verticalAlign=middle;whiteSpace=wrap;rounded=0;shadow=0;glass=0;labelBackgroundColor=none;sketch=0;hachureGap=4;pointerEvents=0;fontFamily=Helvetica;fontSize=10;fontColor=#CCCCCC;fontStyle=2;rotation=-15;" vertex="1" parent="UmMyU7tWUx3Kh3aOtCam-1">
          <mxGeometry x="473" y="361" width="53" height="20" as="geometry" />
        </mxCell>
        <mxCell id="UmMyU7tWUx3Kh3aOtCam-123" value="" style="group" vertex="1" connectable="0" parent="UmMyU7tWUx3Kh3aOtCam-1">
          <mxGeometry x="882.5" y="88" width="101" height="22" as="geometry" />
        </mxCell>
        <mxCell id="UmMyU7tWUx3Kh3aOtCam-4" value="" style="rounded=1;shadow=0;labelBackgroundColor=none;sketch=0;hachureGap=4;pointerEvents=0;fontFamily=Helvetica;fontSize=15;fontColor=none;strokeColor=none;strokeWidth=2;fillColor=#F1F1F4;gradientDirection=south;noLabel=1;fillStyle=auto;" vertex="1" parent="UmMyU7tWUx3Kh3aOtCam-123">
          <mxGeometry x="31" width="22" height="22" as="geometry" />
        </mxCell>
        <mxCell id="UmMyU7tWUx3Kh3aOtCam-5" value="" style="rounded=1;shadow=0;labelBackgroundColor=none;sketch=0;hachureGap=4;pointerEvents=0;fontFamily=Helvetica;fontSize=15;fontColor=none;strokeColor=none;strokeWidth=2;fillColor=#F1F1F4;gradientDirection=south;noLabel=1;fillStyle=auto;" vertex="1" parent="UmMyU7tWUx3Kh3aOtCam-123">
          <mxGeometry x="79" width="22" height="22" as="geometry" />
        </mxCell>
        <mxCell id="UmMyU7tWUx3Kh3aOtCam-22" value="" style="shape=actor;whiteSpace=wrap;html=1;hachureGap=4;pointerEvents=0;shadow=0;labelBackgroundColor=none;sketch=0;fontFamily=Helvetica;fontSize=15;fontColor=none;strokeColor=#596780;strokeWidth=1;fillColor=none;gradientDirection=south;" vertex="1" parent="UmMyU7tWUx3Kh3aOtCam-123">
          <mxGeometry y="2" width="12" height="18" as="geometry" />
        </mxCell>
        <mxCell id="UmMyU7tWUx3Kh3aOtCam-83" value="" style="endArrow=none;html=1;fontFamily=Helvetica;fontSize=15;fontColor=none;startSize=14;endSize=14;sourcePerimeterSpacing=8;targetPerimeterSpacing=8;strokeColor=#596780;" edge="1" parent="UmMyU7tWUx3Kh3aOtCam-123">
          <mxGeometry width="50" height="50" relative="1" as="geometry">
            <mxPoint x="37" y="10.92999999999995" as="sourcePoint" />
            <mxPoint x="46.5" y="10.92999999999995" as="targetPoint" />
          </mxGeometry>
        </mxCell>
        <mxCell id="UmMyU7tWUx3Kh3aOtCam-84" value="" style="endArrow=none;html=1;fontFamily=Helvetica;fontSize=15;fontColor=none;startSize=14;endSize=14;sourcePerimeterSpacing=8;targetPerimeterSpacing=8;strokeColor=#596780;" edge="1" parent="UmMyU7tWUx3Kh3aOtCam-123">
          <mxGeometry width="50" height="50" relative="1" as="geometry">
            <mxPoint x="85" y="10.949999999999989" as="sourcePoint" />
            <mxPoint x="94.5" y="10.949999999999989" as="targetPoint" />
          </mxGeometry>
        </mxCell>
        <mxCell id="UmMyU7tWUx3Kh3aOtCam-85" value="" style="endArrow=none;html=1;fontFamily=Helvetica;fontSize=15;fontColor=none;startSize=14;endSize=14;sourcePerimeterSpacing=8;targetPerimeterSpacing=8;strokeColor=#596780;" edge="1" parent="UmMyU7tWUx3Kh3aOtCam-123">
          <mxGeometry width="50" height="50" relative="1" as="geometry">
            <mxPoint x="90" y="6.779999999999973" as="sourcePoint" />
            <mxPoint x="90" y="15.230000000000018" as="targetPoint" />
          </mxGeometry>
        </mxCell>
        <mxCell id="UmMyU7tWUx3Kh3aOtCam-86" value="1" style="text;html=1;strokeColor=none;fillColor=none;align=center;verticalAlign=middle;whiteSpace=wrap;rounded=0;shadow=0;labelBackgroundColor=none;sketch=0;hachureGap=4;pointerEvents=0;fontFamily=Helvetica;fontSize=13;fontColor=#4D4D4D;" vertex="1" parent="UmMyU7tWUx3Kh3aOtCam-123">
          <mxGeometry x="59" width="15" height="20" as="geometry" />
        </mxCell>
        <mxCell id="UmMyU7tWUx3Kh3aOtCam-31" value="November 2021" style="strokeColor=none;fillColor=none;fontColor=#253858;fontSize=16;fontStyle=1" vertex="1" parent="UmMyU7tWUx3Kh3aOtCam-1">
          <mxGeometry x="873" y="271" width="200" height="40" as="geometry" />
        </mxCell>
        <mxCell id="UmMyU7tWUx3Kh3aOtCam-32" value="&lt;" style="strokeColor=none;fillColor=none;fontColor=#253858;fontSize=19;fontStyle=1;" vertex="1" parent="UmMyU7tWUx3Kh3aOtCam-1">
          <mxGeometry x="829" y="271" width="50" height="40" as="geometry" />
        </mxCell>
        <mxCell id="UmMyU7tWUx3Kh3aOtCam-33" value="&gt;" style="strokeColor=none;fillColor=none;fontColor=#253858;fontSize=19;fontStyle=1;" vertex="1" parent="UmMyU7tWUx3Kh3aOtCam-1">
          <mxGeometry x="1067" y="271" width="50" height="40" as="geometry" />
        </mxCell>
        <mxCell id="UmMyU7tWUx3Kh3aOtCam-34" value="SUN" style="strokeColor=none;fillColor=none;fontColor=#999999;fontSize=12;fontStyle=1" vertex="1" parent="UmMyU7tWUx3Kh3aOtCam-1">
          <mxGeometry x="833" y="311" width="40" height="40" as="geometry" />
        </mxCell>
        <mxCell id="UmMyU7tWUx3Kh3aOtCam-35" value="MON" style="strokeColor=none;fillColor=none;fontColor=#999999;fontSize=12;fontStyle=1" vertex="1" parent="UmMyU7tWUx3Kh3aOtCam-1">
          <mxGeometry x="873" y="311" width="40" height="40" as="geometry" />
        </mxCell>
        <mxCell id="UmMyU7tWUx3Kh3aOtCam-36" value="TUE" style="strokeColor=none;fillColor=none;fontColor=#999999;fontSize=12;fontStyle=1" vertex="1" parent="UmMyU7tWUx3Kh3aOtCam-1">
          <mxGeometry x="913" y="311" width="40" height="40" as="geometry" />
        </mxCell>
        <mxCell id="UmMyU7tWUx3Kh3aOtCam-37" value="WED" style="strokeColor=none;fillColor=none;fontColor=#999999;fontSize=12;fontStyle=1" vertex="1" parent="UmMyU7tWUx3Kh3aOtCam-1">
          <mxGeometry x="953" y="311" width="40" height="40" as="geometry" />
        </mxCell>
        <mxCell id="UmMyU7tWUx3Kh3aOtCam-38" value="THU" style="strokeColor=none;fillColor=none;fontColor=#999999;fontSize=12;fontStyle=1" vertex="1" parent="UmMyU7tWUx3Kh3aOtCam-1">
          <mxGeometry x="993" y="311" width="40" height="40" as="geometry" />
        </mxCell>
        <mxCell id="UmMyU7tWUx3Kh3aOtCam-39" value="FRI" style="strokeColor=none;fillColor=none;fontColor=#999999;fontSize=12;fontStyle=1" vertex="1" parent="UmMyU7tWUx3Kh3aOtCam-1">
          <mxGeometry x="1033" y="311" width="40" height="40" as="geometry" />
        </mxCell>
        <mxCell id="UmMyU7tWUx3Kh3aOtCam-40" value="SAT" style="strokeColor=none;fillColor=none;fontColor=#999999;fontSize=12;fontStyle=1" vertex="1" parent="UmMyU7tWUx3Kh3aOtCam-1">
          <mxGeometry x="1073" y="311" width="40" height="40" as="geometry" />
        </mxCell>
        <mxCell id="UmMyU7tWUx3Kh3aOtCam-41" value="31" style="strokeColor=none;fillColor=none;fontColor=#999999;fontSize=16" vertex="1" parent="UmMyU7tWUx3Kh3aOtCam-1">
          <mxGeometry x="833" y="351" width="40" height="40" as="geometry" />
        </mxCell>
        <mxCell id="UmMyU7tWUx3Kh3aOtCam-42" value="1" style="strokeColor=none;fillColor=none;fontColor=#000000;fontSize=16" vertex="1" parent="UmMyU7tWUx3Kh3aOtCam-1">
          <mxGeometry x="873" y="351" width="40" height="40" as="geometry" />
        </mxCell>
        <mxCell id="UmMyU7tWUx3Kh3aOtCam-43" value="2" style="strokeColor=none;fillColor=none;fontColor=#000000;fontSize=16" vertex="1" parent="UmMyU7tWUx3Kh3aOtCam-1">
          <mxGeometry x="913" y="351" width="40" height="40" as="geometry" />
        </mxCell>
        <mxCell id="UmMyU7tWUx3Kh3aOtCam-44" value="3" style="strokeColor=none;fillColor=none;fontColor=#000000;fontSize=16" vertex="1" parent="UmMyU7tWUx3Kh3aOtCam-1">
          <mxGeometry x="953" y="351" width="40" height="40" as="geometry" />
        </mxCell>
        <mxCell id="UmMyU7tWUx3Kh3aOtCam-45" value="4" style="strokeColor=none;fillColor=none;fontColor=#000000;fontSize=16" vertex="1" parent="UmMyU7tWUx3Kh3aOtCam-1">
          <mxGeometry x="993" y="351" width="40" height="40" as="geometry" />
        </mxCell>
        <mxCell id="UmMyU7tWUx3Kh3aOtCam-46" value="5" style="strokeColor=none;fillColor=none;fontColor=#000000;fontSize=16" vertex="1" parent="UmMyU7tWUx3Kh3aOtCam-1">
          <mxGeometry x="1033" y="351" width="40" height="40" as="geometry" />
        </mxCell>
        <mxCell id="UmMyU7tWUx3Kh3aOtCam-47" value="6" style="strokeColor=none;fillColor=none;fontColor=#000000;fontSize=16" vertex="1" parent="UmMyU7tWUx3Kh3aOtCam-1">
          <mxGeometry x="1073" y="351" width="40" height="40" as="geometry" />
        </mxCell>
        <mxCell id="UmMyU7tWUx3Kh3aOtCam-48" value="7" style="strokeColor=none;fillColor=none;fontColor=#000000;fontSize=16" vertex="1" parent="UmMyU7tWUx3Kh3aOtCam-1">
          <mxGeometry x="833" y="391" width="40" height="40" as="geometry" />
        </mxCell>
        <mxCell id="UmMyU7tWUx3Kh3aOtCam-49" value="8" style="strokeColor=none;fillColor=none;fontColor=#000000;fontSize=16" vertex="1" parent="UmMyU7tWUx3Kh3aOtCam-1">
          <mxGeometry x="873" y="391" width="40" height="40" as="geometry" />
        </mxCell>
        <mxCell id="UmMyU7tWUx3Kh3aOtCam-50" value="9" style="strokeColor=none;fillColor=none;fontColor=#000000;fontSize=16" vertex="1" parent="UmMyU7tWUx3Kh3aOtCam-1">
          <mxGeometry x="913" y="391" width="40" height="40" as="geometry" />
        </mxCell>
        <mxCell id="UmMyU7tWUx3Kh3aOtCam-51" value="10" style="strokeColor=none;fillColor=none;fontColor=#0057D8;fontSize=16;fontStyle=4" vertex="1" parent="UmMyU7tWUx3Kh3aOtCam-1">
          <mxGeometry x="953" y="391" width="40" height="40" as="geometry" />
        </mxCell>
        <mxCell id="UmMyU7tWUx3Kh3aOtCam-52" value="11" style="strokeColor=none;fillColor=#A9C4EB;fontColor=#000000;fontSize=16;rounded=0;arcSize=10;glass=0;shadow=0;" vertex="1" parent="UmMyU7tWUx3Kh3aOtCam-1">
          <mxGeometry x="993" y="391" width="40" height="40" as="geometry" />
        </mxCell>
        <mxCell id="UmMyU7tWUx3Kh3aOtCam-53" value="12" style="strokeColor=none;fillColor=#D4E1F5;fontColor=#000000;fontSize=16" vertex="1" parent="UmMyU7tWUx3Kh3aOtCam-1">
          <mxGeometry x="1033" y="391" width="40" height="40" as="geometry" />
        </mxCell>
        <mxCell id="UmMyU7tWUx3Kh3aOtCam-54" value="13" style="strokeColor=none;fillColor=#D4E1F5;fontColor=#000000;fontSize=16" vertex="1" parent="UmMyU7tWUx3Kh3aOtCam-1">
          <mxGeometry x="1073" y="391" width="40" height="40" as="geometry" />
        </mxCell>
        <mxCell id="UmMyU7tWUx3Kh3aOtCam-55" value="14" style="strokeColor=none;fillColor=#D4E1F5;fontColor=#000000;fontSize=16" vertex="1" parent="UmMyU7tWUx3Kh3aOtCam-1">
          <mxGeometry x="833" y="431" width="40" height="40" as="geometry" />
        </mxCell>
        <mxCell id="UmMyU7tWUx3Kh3aOtCam-56" value="15" style="strokeColor=none;fillColor=#A9C4EB;fontColor=#000000;fontSize=16" vertex="1" parent="UmMyU7tWUx3Kh3aOtCam-1">
          <mxGeometry x="873" y="431" width="40" height="40" as="geometry" />
        </mxCell>
        <mxCell id="UmMyU7tWUx3Kh3aOtCam-57" value="16" style="strokeColor=none;fillColor=none;fontColor=#000000;fontSize=16" vertex="1" parent="UmMyU7tWUx3Kh3aOtCam-1">
          <mxGeometry x="913" y="431" width="40" height="40" as="geometry" />
        </mxCell>
        <mxCell id="UmMyU7tWUx3Kh3aOtCam-58" value="17" style="strokeColor=none;fillColor=none;fontColor=#000000;fontSize=16" vertex="1" parent="UmMyU7tWUx3Kh3aOtCam-1">
          <mxGeometry x="953" y="431" width="40" height="40" as="geometry" />
        </mxCell>
        <mxCell id="UmMyU7tWUx3Kh3aOtCam-59" value="18" style="strokeColor=none;fillColor=none;fontColor=#000000;fontSize=16" vertex="1" parent="UmMyU7tWUx3Kh3aOtCam-1">
          <mxGeometry x="993" y="431" width="40" height="40" as="geometry" />
        </mxCell>
        <mxCell id="UmMyU7tWUx3Kh3aOtCam-60" value="19" style="strokeColor=none;fillColor=none;fontColor=#000000;fontSize=16" vertex="1" parent="UmMyU7tWUx3Kh3aOtCam-1">
          <mxGeometry x="1033" y="431" width="40" height="40" as="geometry" />
        </mxCell>
        <mxCell id="UmMyU7tWUx3Kh3aOtCam-61" value="20" style="strokeColor=none;fillColor=none;fontColor=#000000;fontSize=16" vertex="1" parent="UmMyU7tWUx3Kh3aOtCam-1">
          <mxGeometry x="1073" y="431" width="40" height="40" as="geometry" />
        </mxCell>
        <mxCell id="UmMyU7tWUx3Kh3aOtCam-62" value="21" style="strokeColor=none;fillColor=none;fontColor=#000000;fontSize=16" vertex="1" parent="UmMyU7tWUx3Kh3aOtCam-1">
          <mxGeometry x="833" y="471" width="40" height="40" as="geometry" />
        </mxCell>
        <mxCell id="UmMyU7tWUx3Kh3aOtCam-63" value="22" style="strokeColor=none;fillColor=none;fontColor=#000000;fontSize=16" vertex="1" parent="UmMyU7tWUx3Kh3aOtCam-1">
          <mxGeometry x="873" y="471" width="40" height="40" as="geometry" />
        </mxCell>
        <mxCell id="UmMyU7tWUx3Kh3aOtCam-64" value="23" style="strokeColor=none;fillColor=none;fontColor=#999999;fontSize=16" vertex="1" parent="UmMyU7tWUx3Kh3aOtCam-1">
          <mxGeometry x="913" y="471" width="40" height="40" as="geometry" />
        </mxCell>
        <mxCell id="UmMyU7tWUx3Kh3aOtCam-65" value="24" style="strokeColor=none;fillColor=none;fontColor=#000000;fontSize=16" vertex="1" parent="UmMyU7tWUx3Kh3aOtCam-1">
          <mxGeometry x="953" y="471" width="40" height="40" as="geometry" />
        </mxCell>
        <mxCell id="UmMyU7tWUx3Kh3aOtCam-66" value="25" style="strokeColor=none;fillColor=none;fontColor=#000000;fontSize=16" vertex="1" parent="UmMyU7tWUx3Kh3aOtCam-1">
          <mxGeometry x="993" y="471" width="40" height="40" as="geometry" />
        </mxCell>
        <mxCell id="UmMyU7tWUx3Kh3aOtCam-67" value="26" style="strokeColor=none;fillColor=none;fontColor=#000000;fontSize=16" vertex="1" parent="UmMyU7tWUx3Kh3aOtCam-1">
          <mxGeometry x="1033" y="471" width="40" height="40" as="geometry" />
        </mxCell>
        <mxCell id="UmMyU7tWUx3Kh3aOtCam-68" value="27" style="strokeColor=none;fillColor=none;fontColor=#000000;fontSize=16" vertex="1" parent="UmMyU7tWUx3Kh3aOtCam-1">
          <mxGeometry x="1073" y="471" width="40" height="40" as="geometry" />
        </mxCell>
        <mxCell id="UmMyU7tWUx3Kh3aOtCam-69" value="28" style="strokeColor=none;fillColor=none;fontColor=#000000;fontSize=16" vertex="1" parent="UmMyU7tWUx3Kh3aOtCam-1">
          <mxGeometry x="833" y="511" width="40" height="40" as="geometry" />
        </mxCell>
        <mxCell id="UmMyU7tWUx3Kh3aOtCam-70" value="29" style="strokeColor=none;fillColor=none;fontColor=#000000;fontSize=16" vertex="1" parent="UmMyU7tWUx3Kh3aOtCam-1">
          <mxGeometry x="873" y="511" width="40" height="40" as="geometry" />
        </mxCell>
        <mxCell id="UmMyU7tWUx3Kh3aOtCam-71" value="30" style="strokeColor=none;fillColor=none;fontColor=#000000;fontSize=16" vertex="1" parent="UmMyU7tWUx3Kh3aOtCam-1">
          <mxGeometry x="913" y="511" width="40" height="40" as="geometry" />
        </mxCell>
        <mxCell id="UmMyU7tWUx3Kh3aOtCam-72" value="1" style="strokeColor=none;fillColor=none;fontColor=#999999;fontSize=16" vertex="1" parent="UmMyU7tWUx3Kh3aOtCam-1">
          <mxGeometry x="953" y="511" width="40" height="40" as="geometry" />
        </mxCell>
        <mxCell id="UmMyU7tWUx3Kh3aOtCam-73" value="2" style="strokeColor=none;fillColor=none;fontColor=#999999;fontSize=16" vertex="1" parent="UmMyU7tWUx3Kh3aOtCam-1">
          <mxGeometry x="993" y="511" width="40" height="40" as="geometry" />
        </mxCell>
        <mxCell id="UmMyU7tWUx3Kh3aOtCam-74" value="3" style="strokeColor=none;fillColor=none;fontColor=#999999;fontSize=16" vertex="1" parent="UmMyU7tWUx3Kh3aOtCam-1">
          <mxGeometry x="1033" y="511" width="40" height="40" as="geometry" />
        </mxCell>
        <mxCell id="UmMyU7tWUx3Kh3aOtCam-75" value="4" style="strokeColor=none;fillColor=none;fontColor=#999999;fontSize=16" vertex="1" parent="UmMyU7tWUx3Kh3aOtCam-1">
          <mxGeometry x="1073" y="511" width="40" height="40" as="geometry" />
        </mxCell>
        <mxCell id="UmMyU7tWUx3Kh3aOtCam-76" value="5" style="strokeColor=none;fillColor=none;fontColor=#999999;fontSize=16" vertex="1" parent="UmMyU7tWUx3Kh3aOtCam-1">
          <mxGeometry x="833" y="551" width="40" height="40" as="geometry" />
        </mxCell>
        <mxCell id="UmMyU7tWUx3Kh3aOtCam-77" value="6" style="strokeColor=none;fillColor=none;fontColor=#999999;fontSize=16" vertex="1" parent="UmMyU7tWUx3Kh3aOtCam-1">
          <mxGeometry x="873" y="551" width="40" height="40" as="geometry" />
        </mxCell>
        <mxCell id="UmMyU7tWUx3Kh3aOtCam-78" value="7" style="strokeColor=none;fillColor=none;fontColor=#999999;fontSize=16" vertex="1" parent="UmMyU7tWUx3Kh3aOtCam-1">
          <mxGeometry x="913" y="551" width="40" height="40" as="geometry" />
        </mxCell>
        <mxCell id="UmMyU7tWUx3Kh3aOtCam-79" value="8" style="strokeColor=none;fillColor=none;fontColor=#999999;fontSize=16" vertex="1" parent="UmMyU7tWUx3Kh3aOtCam-1">
          <mxGeometry x="953" y="551" width="40" height="40" as="geometry" />
        </mxCell>
        <mxCell id="UmMyU7tWUx3Kh3aOtCam-80" value="9" style="strokeColor=none;fillColor=none;fontColor=#999999;fontSize=16" vertex="1" parent="UmMyU7tWUx3Kh3aOtCam-1">
          <mxGeometry x="993" y="551" width="40" height="40" as="geometry" />
        </mxCell>
        <mxCell id="UmMyU7tWUx3Kh3aOtCam-81" value="10" style="strokeColor=none;fillColor=none;fontColor=#999999;fontSize=16" vertex="1" parent="UmMyU7tWUx3Kh3aOtCam-1">
          <mxGeometry x="1033" y="551" width="40" height="40" as="geometry" />
        </mxCell>
        <mxCell id="UmMyU7tWUx3Kh3aOtCam-82" value="11" style="strokeColor=none;fillColor=none;fontColor=#999999;fontSize=16" vertex="1" parent="UmMyU7tWUx3Kh3aOtCam-1">
          <mxGeometry x="1073" y="551" width="40" height="40" as="geometry" />
        </mxCell>
        <mxCell id="o57VoulLwjYDWIvdbnLZ-1" value="&lt;font style=&quot;font-size: 15px&quot;&gt;&amp;nbsp; &amp;nbsp; &amp;nbsp; &amp;nbsp; &amp;nbsp;Nov 11 - Nov 15&lt;/font&gt;" style="rounded=1;arcSize=9;fillColor=#ffffff;align=left;spacingLeft=5;strokeColor=#4C9AFF;html=1;strokeWidth=2;fontColor=#253858;fontSize=12;hachureGap=4;pointerEvents=0;shadow=0;labelBackgroundColor=none;sketch=0;fontFamily=Helvetica;" vertex="1" parent="UmMyU7tWUx3Kh3aOtCam-1">
          <mxGeometry x="953" y="204" width="167" height="33" as="geometry" />
        </mxCell>
        <mxCell id="o57VoulLwjYDWIvdbnLZ-2" value="" style="shape=mxgraph.gmdl.calendar;fillColor=#596780;strokeColor=none" vertex="1" parent="o57VoulLwjYDWIvdbnLZ-1">
          <mxGeometry x="1" y="0.5" width="18" height="18" relative="1" as="geometry">
            <mxPoint x="-152" y="-9" as="offset" />
          </mxGeometry>
        </mxCell>
        <mxCell id="NByrXYBDSUuZ3wbs8CQa-1" value="One way" style="shape=ellipse;rounded=1;fillColor=#F0F2F5;strokeColor=#D8DCE3;fontColor=#000000;align=left;verticalAlign=middle;fontStyle=0;fontSize=12;labelPosition=right;verticalLabelPosition=middle;spacingLeft=10;html=1;shadow=0;dashed=0;sketch=0;hachureGap=4;pointerEvents=0;fontFamily=Helvetica;" vertex="1" parent="UmMyU7tWUx3Kh3aOtCam-1">
          <mxGeometry x="838" y="204" width="12" height="12" as="geometry" />
        </mxCell>
        <mxCell id="NByrXYBDSUuZ3wbs8CQa-2" value="Return trip" style="shape=ellipse;fillColor=#ffffff;strokeColor=#0057D8;strokeWidth=4;fontColor=#000000;align=left;verticalAlign=middle;fontStyle=0;fontSize=12;labelPosition=right;verticalLabelPosition=middle;spacingLeft=10;sketch=0;hachureGap=4;pointerEvents=0;fontFamily=Helvetica;" vertex="1" parent="UmMyU7tWUx3Kh3aOtCam-1">
          <mxGeometry x="839" y="230" width="10" height="10" as="geometry" />
        </mxCell>
        <mxCell id="NByrXYBDSUuZ3wbs8CQa-7" value="" style="endArrow=none;html=1;fontFamily=Helvetica;startSize=14;endSize=14;sourcePerimeterSpacing=8;targetPerimeterSpacing=8;strokeColor=#CCCCCC;" edge="1" parent="UmMyU7tWUx3Kh3aOtCam-1">
          <mxGeometry width="50" height="50" relative="1" as="geometry">
            <mxPoint x="810" y="258" as="sourcePoint" />
            <mxPoint x="1136" y="258" as="targetPoint" />
          </mxGeometry>
        </mxCell>
        <mxCell id="kxAAJtZ9tgjdCq3XIsez-0" value="Add flight" style="fillColor=none;strokeColor=none;html=1;fontColor=#0057D8;align=center;verticalAlign=middle;fontStyle=0;fontSize=12;hachureGap=4;pointerEvents=0;" vertex="1" parent="UmMyU7tWUx3Kh3aOtCam-1">
          <mxGeometry x="146" y="126" width="86" height="33" as="geometry" />
        </mxCell>
      </root>
    </mxGraphModel>
  </diagram>
  <diagram name="Leg options" id="u3MJzesR_RpeomrZPPhE">
    <mxGraphModel dx="1202" dy="676" grid="0" gridSize="10" guides="1" tooltips="1" connect="1" arrows="1" fold="1" page="1" pageScale="1" pageWidth="1169" pageHeight="827" background="#ffffff" math="0" shadow="0">
      <root>
        <mxCell id="rmQNsYvPww5tRN5KAtkT-0" />
        <mxCell id="rmQNsYvPww5tRN5KAtkT-1" parent="rmQNsYvPww5tRN5KAtkT-0" />
        <mxCell id="rmQNsYvPww5tRN5KAtkT-2" value="" style="rounded=0;whiteSpace=wrap;html=1;shadow=0;glass=0;labelBackgroundColor=none;sketch=0;hachureGap=4;pointerEvents=0;fontFamily=Helvetica;fontSize=10;fontColor=#333333;strokeColor=none;strokeWidth=1;fillColor=#FAFAFA;gradientDirection=south;align=left;verticalAlign=middle;" parent="rmQNsYvPww5tRN5KAtkT-1" vertex="1">
          <mxGeometry x="133" y="236" width="903" height="138" as="geometry" />
        </mxCell>
        <mxCell id="rmQNsYvPww5tRN5KAtkT-4" value="" style="rounded=1;shadow=0;labelBackgroundColor=none;sketch=0;hachureGap=4;pointerEvents=0;fontFamily=Helvetica;fontSize=15;fontColor=none;strokeColor=none;strokeWidth=2;fillColor=#F1F1F4;gradientDirection=south;noLabel=1;fillStyle=auto;" parent="rmQNsYvPww5tRN5KAtkT-1" vertex="1">
          <mxGeometry x="344" y="260.5" width="22" height="22" as="geometry" />
        </mxCell>
        <mxCell id="rmQNsYvPww5tRN5KAtkT-5" value="" style="rounded=1;shadow=0;labelBackgroundColor=none;sketch=0;hachureGap=4;pointerEvents=0;fontFamily=Helvetica;fontSize=15;fontColor=none;strokeColor=none;strokeWidth=2;fillColor=#F1F1F4;gradientDirection=south;noLabel=1;fillStyle=auto;" parent="rmQNsYvPww5tRN5KAtkT-1" vertex="1">
          <mxGeometry x="392" y="260.5" width="22" height="22" as="geometry" />
        </mxCell>
        <mxCell id="rmQNsYvPww5tRN5KAtkT-6" value="&amp;nbsp; &amp;nbsp; &amp;nbsp; &amp;nbsp; Prague" style="rounded=1;arcSize=9;fillColor=#ffffff;strokeColor=#DEE1E6;html=1;strokeWidth=2;spacingLeft=5;fontColor=#596780;align=left;sketch=0;hachureGap=4;pointerEvents=0;fontFamily=Helvetica;fontSize=15;shadow=0;" parent="rmQNsYvPww5tRN5KAtkT-1" vertex="1">
          <mxGeometry x="173" y="305" width="230" height="33" as="geometry" />
        </mxCell>
        <mxCell id="rmQNsYvPww5tRN5KAtkT-8" value="" style="shape=mxgraph.signs.transportation.airplane_1;html=1;pointerEvents=1;fillColor=#596780;strokeColor=none;verticalLabelPosition=bottom;verticalAlign=top;align=center;hachureGap=4;shadow=0;labelBackgroundColor=none;sketch=0;fontFamily=Helvetica;fontSize=15;fontColor=none;" parent="rmQNsYvPww5tRN5KAtkT-6" vertex="1">
          <mxGeometry x="11" y="14" width="16.26" height="5.75" as="geometry" />
        </mxCell>
        <mxCell id="rmQNsYvPww5tRN5KAtkT-12" value="Return trip" style="rounded=1;fillColor=none;strokeColor=#4C9AFF;html=1;fontColor=#596780;align=left;fontSize=14;spacingLeft=10;sketch=0;hachureGap=4;pointerEvents=0;fontFamily=Helvetica;shadow=0;" parent="rmQNsYvPww5tRN5KAtkT-1" vertex="1">
          <mxGeometry x="173" y="255" width="112" height="33" as="geometry" />
        </mxCell>
        <mxCell id="rmQNsYvPww5tRN5KAtkT-13" value="" style="shape=triangle;direction=south;fillColor=#596780;strokeColor=none;html=1;sketch=0;hachureGap=4;pointerEvents=0;fontFamily=Architects Daughter;fontSource=https%3A%2F%2Ffonts.googleapis.com%2Fcss%3Ffamily%3DArchitects%2BDaughter;fontSize=20;" parent="rmQNsYvPww5tRN5KAtkT-12" vertex="1">
          <mxGeometry x="1" y="0.5" width="12" height="6" relative="1" as="geometry">
            <mxPoint x="-20" y="-3" as="offset" />
          </mxGeometry>
        </mxCell>
        <mxCell id="rmQNsYvPww5tRN5KAtkT-20" value="&lt;font style=&quot;font-size: 15px&quot;&gt;&amp;nbsp; &amp;nbsp; &amp;nbsp; &amp;nbsp; Rome&lt;/font&gt;" style="rounded=1;arcSize=9;fillColor=#ffffff;strokeColor=#DEE1E6;html=1;strokeWidth=2;spacingLeft=5;fontColor=#596780;align=left;sketch=0;hachureGap=4;pointerEvents=0;fontFamily=Helvetica;fontSize=15;shadow=0;" parent="rmQNsYvPww5tRN5KAtkT-1" vertex="1">
          <mxGeometry x="449" y="305" width="230" height="33" as="geometry" />
        </mxCell>
        <mxCell id="rmQNsYvPww5tRN5KAtkT-21" value="" style="shape=image;verticalAlign=top;verticalLabelPosition=bottom;labelBackgroundColor=none;imageAspect=0;aspect=fixed;image=https://cdn1.iconfinder.com/data/icons/heroicons-ui/24/switch-horizontal-512.png;hachureGap=4;pointerEvents=0;shadow=0;sketch=0;fontFamily=Helvetica;fontSize=15;fontColor=none;strokeColor=#CCCCCC;fillColor=#CCCCCC;gradientDirection=south;strokeWidth=3;imageBackground=#FAFAFA;noLabel=1;imageBorder=none;" parent="rmQNsYvPww5tRN5KAtkT-1" vertex="1">
          <mxGeometry x="416" y="311.5" width="20" height="20" as="geometry" />
        </mxCell>
        <mxCell id="rmQNsYvPww5tRN5KAtkT-22" value="" style="shape=actor;whiteSpace=wrap;html=1;hachureGap=4;pointerEvents=0;shadow=0;labelBackgroundColor=none;sketch=0;fontFamily=Helvetica;fontSize=15;fontColor=none;strokeColor=#596780;strokeWidth=1;fillColor=none;gradientDirection=south;" parent="rmQNsYvPww5tRN5KAtkT-1" vertex="1">
          <mxGeometry x="313" y="262.5" width="12" height="18" as="geometry" />
        </mxCell>
        <mxCell id="rmQNsYvPww5tRN5KAtkT-23" value="" style="shape=mxgraph.signs.transportation.airplane_2;html=1;pointerEvents=1;fillColor=#596780;strokeColor=none;verticalLabelPosition=bottom;verticalAlign=top;align=center;hachureGap=4;shadow=0;labelBackgroundColor=none;sketch=0;fontFamily=Helvetica;fontSize=14;fontColor=none;" parent="rmQNsYvPww5tRN5KAtkT-1" vertex="1">
          <mxGeometry x="463" y="317" width="16.1" height="9" as="geometry" />
        </mxCell>
        <mxCell id="rmQNsYvPww5tRN5KAtkT-25" value="Continue" style="rounded=1;fillColor=#0057D8;align=center;strokeColor=none;html=1;fontColor=#ffffff;fontSize=12;sketch=0;hachureGap=4;pointerEvents=0;shadow=0;labelBackgroundColor=none;fontFamily=Helvetica;" parent="rmQNsYvPww5tRN5KAtkT-1" vertex="1">
          <mxGeometry x="884" y="305" width="86" height="33" as="geometry" />
        </mxCell>
        <mxCell id="rmQNsYvPww5tRN5KAtkT-28" value="&lt;font style=&quot;font-size: 15px&quot;&gt;&amp;nbsp; &amp;nbsp; &amp;nbsp; &amp;nbsp; &amp;nbsp;21.11 - 27.11&lt;/font&gt;" style="rounded=1;arcSize=9;fillColor=#ffffff;align=left;spacingLeft=5;strokeColor=#DEE1E6;html=1;strokeWidth=2;fontColor=#596780;fontSize=15;hachureGap=4;pointerEvents=0;shadow=0;labelBackgroundColor=none;sketch=0;fontFamily=Helvetica;" parent="rmQNsYvPww5tRN5KAtkT-1" vertex="1">
          <mxGeometry x="708" y="305" width="150" height="33" as="geometry" />
        </mxCell>
        <mxCell id="rmQNsYvPww5tRN5KAtkT-29" value="" style="shape=mxgraph.gmdl.calendar;fillColor=#596780;strokeColor=none" parent="rmQNsYvPww5tRN5KAtkT-28" vertex="1">
          <mxGeometry x="1" y="0.5" width="18" height="18" relative="1" as="geometry">
            <mxPoint x="-134" y="-9" as="offset" />
          </mxGeometry>
        </mxCell>
        <mxCell id="rmQNsYvPww5tRN5KAtkT-83" value="" style="endArrow=none;html=1;fontFamily=Helvetica;fontSize=15;fontColor=none;startSize=14;endSize=14;sourcePerimeterSpacing=8;targetPerimeterSpacing=8;strokeColor=#596780;" parent="rmQNsYvPww5tRN5KAtkT-1" edge="1">
          <mxGeometry width="50" height="50" relative="1" as="geometry">
            <mxPoint x="350" y="271.42999999999995" as="sourcePoint" />
            <mxPoint x="359.5" y="271.42999999999995" as="targetPoint" />
          </mxGeometry>
        </mxCell>
        <mxCell id="rmQNsYvPww5tRN5KAtkT-84" value="" style="endArrow=none;html=1;fontFamily=Helvetica;fontSize=15;fontColor=none;startSize=14;endSize=14;sourcePerimeterSpacing=8;targetPerimeterSpacing=8;strokeColor=#596780;" parent="rmQNsYvPww5tRN5KAtkT-1" edge="1">
          <mxGeometry width="50" height="50" relative="1" as="geometry">
            <mxPoint x="398" y="271.45" as="sourcePoint" />
            <mxPoint x="407.5" y="271.45" as="targetPoint" />
          </mxGeometry>
        </mxCell>
        <mxCell id="rmQNsYvPww5tRN5KAtkT-85" value="" style="endArrow=none;html=1;fontFamily=Helvetica;fontSize=15;fontColor=none;startSize=14;endSize=14;sourcePerimeterSpacing=8;targetPerimeterSpacing=8;strokeColor=#596780;" parent="rmQNsYvPww5tRN5KAtkT-1" edge="1">
          <mxGeometry width="50" height="50" relative="1" as="geometry">
            <mxPoint x="403" y="267.28" as="sourcePoint" />
            <mxPoint x="403" y="275.73" as="targetPoint" />
          </mxGeometry>
        </mxCell>
        <mxCell id="rmQNsYvPww5tRN5KAtkT-86" value="1" style="text;html=1;strokeColor=none;fillColor=none;align=center;verticalAlign=middle;whiteSpace=wrap;rounded=0;shadow=0;labelBackgroundColor=none;sketch=0;hachureGap=4;pointerEvents=0;fontFamily=Helvetica;fontSize=13;fontColor=#4D4D4D;" parent="rmQNsYvPww5tRN5KAtkT-1" vertex="1">
          <mxGeometry x="372" y="260.5" width="15" height="20" as="geometry" />
        </mxCell>
        <mxCell id="rmQNsYvPww5tRN5KAtkT-123" value="" style="rounded=0;whiteSpace=wrap;html=1;shadow=0;glass=0;labelBackgroundColor=none;sketch=0;hachureGap=4;pointerEvents=0;fontFamily=Helvetica;fontSize=10;fontColor=#333333;strokeColor=none;strokeWidth=1;fillColor=#FAFAFA;gradientDirection=south;align=left;verticalAlign=middle;" parent="rmQNsYvPww5tRN5KAtkT-1" vertex="1">
          <mxGeometry x="133" y="33" width="903" height="138" as="geometry" />
        </mxCell>
        <mxCell id="rmQNsYvPww5tRN5KAtkT-124" value="" style="rounded=1;shadow=0;labelBackgroundColor=none;sketch=0;hachureGap=4;pointerEvents=0;fontFamily=Helvetica;fontSize=15;fontColor=none;strokeColor=none;strokeWidth=2;fillColor=#F1F1F4;gradientDirection=south;noLabel=1;fillStyle=auto;" parent="rmQNsYvPww5tRN5KAtkT-1" vertex="1">
          <mxGeometry x="344" y="57.5" width="22" height="22" as="geometry" />
        </mxCell>
        <mxCell id="rmQNsYvPww5tRN5KAtkT-125" value="" style="rounded=1;shadow=0;labelBackgroundColor=none;sketch=0;hachureGap=4;pointerEvents=0;fontFamily=Helvetica;fontSize=15;fontColor=none;strokeColor=none;strokeWidth=2;fillColor=#F1F1F4;gradientDirection=south;noLabel=1;fillStyle=auto;" parent="rmQNsYvPww5tRN5KAtkT-1" vertex="1">
          <mxGeometry x="392" y="57.5" width="22" height="22" as="geometry" />
        </mxCell>
        <mxCell id="rmQNsYvPww5tRN5KAtkT-126" value="&amp;nbsp; &amp;nbsp; &amp;nbsp; &amp;nbsp; From" style="rounded=1;arcSize=9;fillColor=#ffffff;strokeColor=#DEE1E6;html=1;strokeWidth=2;spacingLeft=5;fontColor=#CCCCCC;align=left;sketch=0;hachureGap=4;pointerEvents=0;fontFamily=Helvetica;fontSize=15;shadow=0;" parent="rmQNsYvPww5tRN5KAtkT-1" vertex="1">
          <mxGeometry x="173" y="102" width="230" height="33" as="geometry" />
        </mxCell>
        <mxCell id="rmQNsYvPww5tRN5KAtkT-127" value="" style="shape=mxgraph.signs.transportation.airplane_1;html=1;pointerEvents=1;fillColor=#596780;strokeColor=none;verticalLabelPosition=bottom;verticalAlign=top;align=center;hachureGap=4;shadow=0;labelBackgroundColor=none;sketch=0;fontFamily=Helvetica;fontSize=15;fontColor=none;" parent="rmQNsYvPww5tRN5KAtkT-126" vertex="1">
          <mxGeometry x="11" y="14" width="16.26" height="5.75" as="geometry" />
        </mxCell>
        <mxCell id="rmQNsYvPww5tRN5KAtkT-130" value="&lt;font style=&quot;font-size: 15px&quot; color=&quot;#cccccc&quot;&gt;&amp;nbsp; &amp;nbsp; &amp;nbsp; &amp;nbsp; Where&lt;/font&gt;" style="rounded=1;arcSize=9;fillColor=#ffffff;strokeColor=#DEE1E6;html=1;strokeWidth=2;spacingLeft=5;fontColor=#000000;align=left;sketch=0;hachureGap=4;pointerEvents=0;fontFamily=Helvetica;fontSize=15;shadow=0;" parent="rmQNsYvPww5tRN5KAtkT-1" vertex="1">
          <mxGeometry x="449" y="102" width="230" height="33" as="geometry" />
        </mxCell>
        <mxCell id="rmQNsYvPww5tRN5KAtkT-131" value="" style="shape=image;verticalAlign=top;verticalLabelPosition=bottom;labelBackgroundColor=none;imageAspect=0;aspect=fixed;image=https://cdn1.iconfinder.com/data/icons/heroicons-ui/24/switch-horizontal-512.png;hachureGap=4;pointerEvents=0;shadow=0;sketch=0;fontFamily=Helvetica;fontSize=15;fontColor=none;strokeColor=#CCCCCC;fillColor=#CCCCCC;gradientDirection=south;strokeWidth=3;imageBackground=#FAFAFA;noLabel=1;imageBorder=none;" parent="rmQNsYvPww5tRN5KAtkT-1" vertex="1">
          <mxGeometry x="416" y="108.5" width="20" height="20" as="geometry" />
        </mxCell>
        <mxCell id="rmQNsYvPww5tRN5KAtkT-132" value="" style="shape=actor;whiteSpace=wrap;html=1;hachureGap=4;pointerEvents=0;shadow=0;labelBackgroundColor=none;sketch=0;fontFamily=Helvetica;fontSize=15;fontColor=none;strokeColor=#596780;strokeWidth=1;fillColor=none;gradientDirection=south;" parent="rmQNsYvPww5tRN5KAtkT-1" vertex="1">
          <mxGeometry x="313" y="59.5" width="12" height="18" as="geometry" />
        </mxCell>
        <mxCell id="rmQNsYvPww5tRN5KAtkT-133" value="" style="shape=mxgraph.signs.transportation.airplane_2;html=1;pointerEvents=1;fillColor=#596780;strokeColor=none;verticalLabelPosition=bottom;verticalAlign=top;align=center;hachureGap=4;shadow=0;labelBackgroundColor=none;sketch=0;fontFamily=Helvetica;fontSize=14;fontColor=none;" parent="rmQNsYvPww5tRN5KAtkT-1" vertex="1">
          <mxGeometry x="463" y="114" width="16.1" height="9" as="geometry" />
        </mxCell>
        <mxCell id="rmQNsYvPww5tRN5KAtkT-134" value="Continue" style="rounded=1;fillColor=#0057D8;align=center;strokeColor=none;html=1;fontColor=#ffffff;fontSize=12;sketch=0;hachureGap=4;pointerEvents=0;shadow=0;labelBackgroundColor=none;fontFamily=Helvetica;" parent="rmQNsYvPww5tRN5KAtkT-1" vertex="1">
          <mxGeometry x="884" y="102" width="86" height="33" as="geometry" />
        </mxCell>
        <mxCell id="rmQNsYvPww5tRN5KAtkT-135" value="&lt;font style=&quot;font-size: 15px&quot;&gt;&amp;nbsp; &amp;nbsp; &amp;nbsp; &amp;nbsp; &amp;nbsp;Today&lt;/font&gt;" style="rounded=1;arcSize=9;fillColor=#ffffff;align=left;spacingLeft=5;strokeColor=#DEE1E6;html=1;strokeWidth=2;fontColor=#CCCCCC;fontSize=15;hachureGap=4;pointerEvents=0;shadow=0;labelBackgroundColor=none;sketch=0;fontFamily=Helvetica;" parent="rmQNsYvPww5tRN5KAtkT-1" vertex="1">
          <mxGeometry x="708" y="102" width="150" height="33" as="geometry" />
        </mxCell>
        <mxCell id="rmQNsYvPww5tRN5KAtkT-136" value="" style="shape=mxgraph.gmdl.calendar;fillColor=#596780;strokeColor=none" parent="rmQNsYvPww5tRN5KAtkT-135" vertex="1">
          <mxGeometry x="1" y="0.5" width="18" height="18" relative="1" as="geometry">
            <mxPoint x="-134" y="-9" as="offset" />
          </mxGeometry>
        </mxCell>
        <mxCell id="rmQNsYvPww5tRN5KAtkT-137" value="" style="endArrow=none;html=1;fontFamily=Helvetica;fontSize=15;fontColor=none;startSize=14;endSize=14;sourcePerimeterSpacing=8;targetPerimeterSpacing=8;strokeColor=#596780;" parent="rmQNsYvPww5tRN5KAtkT-1" edge="1">
          <mxGeometry width="50" height="50" relative="1" as="geometry">
            <mxPoint x="350" y="68.42999999999995" as="sourcePoint" />
            <mxPoint x="359.5" y="68.42999999999995" as="targetPoint" />
          </mxGeometry>
        </mxCell>
        <mxCell id="rmQNsYvPww5tRN5KAtkT-138" value="" style="endArrow=none;html=1;fontFamily=Helvetica;fontSize=15;fontColor=none;startSize=14;endSize=14;sourcePerimeterSpacing=8;targetPerimeterSpacing=8;strokeColor=#596780;" parent="rmQNsYvPww5tRN5KAtkT-1" edge="1">
          <mxGeometry width="50" height="50" relative="1" as="geometry">
            <mxPoint x="398" y="68.45000000000005" as="sourcePoint" />
            <mxPoint x="407.5" y="68.45000000000005" as="targetPoint" />
          </mxGeometry>
        </mxCell>
        <mxCell id="rmQNsYvPww5tRN5KAtkT-139" value="" style="endArrow=none;html=1;fontFamily=Helvetica;fontSize=15;fontColor=none;startSize=14;endSize=14;sourcePerimeterSpacing=8;targetPerimeterSpacing=8;strokeColor=#596780;" parent="rmQNsYvPww5tRN5KAtkT-1" edge="1">
          <mxGeometry width="50" height="50" relative="1" as="geometry">
            <mxPoint x="403" y="64.27999999999997" as="sourcePoint" />
            <mxPoint x="403" y="72.73000000000002" as="targetPoint" />
          </mxGeometry>
        </mxCell>
        <mxCell id="rmQNsYvPww5tRN5KAtkT-140" value="1" style="text;html=1;strokeColor=none;fillColor=none;align=center;verticalAlign=middle;whiteSpace=wrap;rounded=0;shadow=0;labelBackgroundColor=none;sketch=0;hachureGap=4;pointerEvents=0;fontFamily=Helvetica;fontSize=13;fontColor=#4D4D4D;" parent="rmQNsYvPww5tRN5KAtkT-1" vertex="1">
          <mxGeometry x="372" y="57.5" width="15" height="20" as="geometry" />
        </mxCell>
        <mxCell id="rmQNsYvPww5tRN5KAtkT-141" value="" style="group" parent="rmQNsYvPww5tRN5KAtkT-1" vertex="1" connectable="0">
          <mxGeometry x="170" y="53.5" width="110" height="153" as="geometry" />
        </mxCell>
        <mxCell id="rmQNsYvPww5tRN5KAtkT-14" value="&lt;font style=&quot;font-size: 12px&quot;&gt;Return trip&lt;/font&gt;" style="rounded=1;fillColor=#D4E1F5;strokeColor=none;html=1;fontColor=#333333;align=left;fontSize=14;spacingLeft=10;sketch=0;hachureGap=4;pointerEvents=0;fontFamily=Helvetica;shadow=0;" parent="rmQNsYvPww5tRN5KAtkT-141" vertex="1">
          <mxGeometry width="100" height="33" as="geometry" />
        </mxCell>
        <mxCell id="rmQNsYvPww5tRN5KAtkT-15" value="" style="shape=triangle;direction=south;fillColor=#596780;strokeColor=none;html=1;sketch=0;hachureGap=4;pointerEvents=0;fontFamily=Helvetica;fontSize=20;fontColor=#ffffff;flipV=1;" parent="rmQNsYvPww5tRN5KAtkT-14" vertex="1">
          <mxGeometry x="1" y="0.5" width="12" height="6" relative="1" as="geometry">
            <mxPoint x="-20" y="-3" as="offset" />
          </mxGeometry>
        </mxCell>
        <mxCell id="rmQNsYvPww5tRN5KAtkT-16" value="" style="rounded=1;fillColor=#ffffff;strokeColor=#DFE1E5;shadow=1;html=1;arcSize=4;sketch=0;hachureGap=4;pointerEvents=0;fontFamily=Helvetica;fontSize=20;" parent="rmQNsYvPww5tRN5KAtkT-141" vertex="1">
          <mxGeometry y="36" width="110" height="117" as="geometry" />
        </mxCell>
        <mxCell id="rmQNsYvPww5tRN5KAtkT-17" value="Return trip" style="rounded=0;fillColor=#E6E6E6;strokeColor=none;shadow=0;html=1;align=left;fontSize=12;spacingLeft=10;fontColor=#333333;resizeWidth=1;sketch=1;hachureGap=4;pointerEvents=0;fontFamily=Helvetica;fillStyle=auto;" parent="rmQNsYvPww5tRN5KAtkT-16" vertex="1">
          <mxGeometry width="110" height="33" relative="1" as="geometry">
            <mxPoint y="6" as="offset" />
          </mxGeometry>
        </mxCell>
        <mxCell id="rmQNsYvPww5tRN5KAtkT-18" value="One way" style="rounded=0;fillColor=none;strokeColor=none;shadow=0;html=1;align=left;fontSize=12;spacingLeft=10;fontColor=#253858;resizeWidth=1;sketch=1;hachureGap=4;pointerEvents=0;fontFamily=Helvetica;" parent="rmQNsYvPww5tRN5KAtkT-16" vertex="1">
          <mxGeometry width="110" height="33" relative="1" as="geometry">
            <mxPoint y="39" as="offset" />
          </mxGeometry>
        </mxCell>
        <mxCell id="rmQNsYvPww5tRN5KAtkT-19" value="Multi-city" style="rounded=0;fillColor=none;strokeColor=none;shadow=0;html=1;align=left;fontSize=12;spacingLeft=10;fontColor=#253858;resizeWidth=1;sketch=1;hachureGap=4;pointerEvents=0;fontFamily=Helvetica;" parent="rmQNsYvPww5tRN5KAtkT-16" vertex="1">
          <mxGeometry width="110" height="33" relative="1" as="geometry">
            <mxPoint y="72" as="offset" />
          </mxGeometry>
        </mxCell>
        <mxCell id="rmQNsYvPww5tRN5KAtkT-165" value="" style="rounded=0;whiteSpace=wrap;html=1;shadow=0;glass=0;labelBackgroundColor=none;sketch=0;hachureGap=4;pointerEvents=0;fontFamily=Helvetica;fontSize=10;fontColor=#333333;strokeColor=none;strokeWidth=1;fillColor=#FAFAFA;gradientDirection=south;align=left;verticalAlign=middle;" parent="rmQNsYvPww5tRN5KAtkT-1" vertex="1">
          <mxGeometry x="133" y="581" width="903" height="203" as="geometry" />
        </mxCell>
        <mxCell id="rmQNsYvPww5tRN5KAtkT-166" value="" style="rounded=1;shadow=0;labelBackgroundColor=none;sketch=0;hachureGap=4;pointerEvents=0;fontFamily=Helvetica;fontSize=15;fontColor=none;strokeColor=none;strokeWidth=2;fillColor=#F1F1F4;gradientDirection=south;noLabel=1;fillStyle=auto;" parent="rmQNsYvPww5tRN5KAtkT-1" vertex="1">
          <mxGeometry x="344" y="605.5" width="22" height="22" as="geometry" />
        </mxCell>
        <mxCell id="rmQNsYvPww5tRN5KAtkT-167" value="" style="rounded=1;shadow=0;labelBackgroundColor=none;sketch=0;hachureGap=4;pointerEvents=0;fontFamily=Helvetica;fontSize=15;fontColor=none;strokeColor=none;strokeWidth=2;fillColor=#F1F1F4;gradientDirection=south;noLabel=1;fillStyle=auto;" parent="rmQNsYvPww5tRN5KAtkT-1" vertex="1">
          <mxGeometry x="392" y="605.5" width="22" height="22" as="geometry" />
        </mxCell>
        <mxCell id="rmQNsYvPww5tRN5KAtkT-168" value="&amp;nbsp; &amp;nbsp; &amp;nbsp; &amp;nbsp;&amp;nbsp;&lt;span style=&quot;color: rgb(89 , 103 , 128)&quot;&gt;Prague&lt;/span&gt;" style="rounded=1;arcSize=9;fillColor=#ffffff;strokeColor=#DEE1E6;html=1;strokeWidth=2;spacingLeft=5;fontColor=#CCCCCC;align=left;sketch=0;hachureGap=4;pointerEvents=0;fontFamily=Helvetica;fontSize=15;shadow=0;" parent="rmQNsYvPww5tRN5KAtkT-1" vertex="1">
          <mxGeometry x="173" y="650" width="230" height="33" as="geometry" />
        </mxCell>
        <mxCell id="rmQNsYvPww5tRN5KAtkT-169" value="" style="shape=mxgraph.signs.transportation.airplane_1;html=1;pointerEvents=1;fillColor=#596780;strokeColor=none;verticalLabelPosition=bottom;verticalAlign=top;align=center;hachureGap=4;shadow=0;labelBackgroundColor=none;sketch=0;fontFamily=Helvetica;fontSize=15;fontColor=none;" parent="rmQNsYvPww5tRN5KAtkT-168" vertex="1">
          <mxGeometry x="11" y="14" width="16.26" height="5.75" as="geometry" />
        </mxCell>
        <mxCell id="rmQNsYvPww5tRN5KAtkT-170" value="Multi-city" style="rounded=1;fillColor=none;strokeColor=#4C9AFF;html=1;fontColor=#596780;align=left;fontSize=14;spacingLeft=10;sketch=0;hachureGap=4;pointerEvents=0;fontFamily=Helvetica;shadow=0;" parent="rmQNsYvPww5tRN5KAtkT-1" vertex="1">
          <mxGeometry x="173" y="600" width="112" height="33" as="geometry" />
        </mxCell>
        <mxCell id="rmQNsYvPww5tRN5KAtkT-171" value="" style="shape=triangle;direction=south;fillColor=#596780;strokeColor=none;html=1;sketch=0;hachureGap=4;pointerEvents=0;fontFamily=Architects Daughter;fontSource=https%3A%2F%2Ffonts.googleapis.com%2Fcss%3Ffamily%3DArchitects%2BDaughter;fontSize=20;" parent="rmQNsYvPww5tRN5KAtkT-170" vertex="1">
          <mxGeometry x="1" y="0.5" width="12" height="6" relative="1" as="geometry">
            <mxPoint x="-20" y="-3" as="offset" />
          </mxGeometry>
        </mxCell>
        <mxCell id="rmQNsYvPww5tRN5KAtkT-172" value="&lt;font style=&quot;font-size: 15px&quot; color=&quot;#cccccc&quot;&gt;&amp;nbsp; &amp;nbsp; &amp;nbsp; &amp;nbsp;&amp;nbsp;&lt;/font&gt;&lt;span style=&quot;color: rgb(89 , 103 , 128)&quot;&gt;Rome&lt;/span&gt;" style="rounded=1;arcSize=9;fillColor=#ffffff;strokeColor=#DEE1E6;html=1;strokeWidth=2;spacingLeft=5;fontColor=#000000;align=left;sketch=0;hachureGap=4;pointerEvents=0;fontFamily=Helvetica;fontSize=15;shadow=0;" parent="rmQNsYvPww5tRN5KAtkT-1" vertex="1">
          <mxGeometry x="449" y="650" width="230" height="33" as="geometry" />
        </mxCell>
        <mxCell id="rmQNsYvPww5tRN5KAtkT-173" value="" style="shape=image;verticalAlign=top;verticalLabelPosition=bottom;labelBackgroundColor=none;imageAspect=0;aspect=fixed;image=https://cdn1.iconfinder.com/data/icons/heroicons-ui/24/switch-horizontal-512.png;hachureGap=4;pointerEvents=0;shadow=0;sketch=0;fontFamily=Helvetica;fontSize=15;fontColor=none;strokeColor=#CCCCCC;fillColor=#CCCCCC;gradientDirection=south;strokeWidth=3;imageBackground=#FAFAFA;noLabel=1;imageBorder=none;" parent="rmQNsYvPww5tRN5KAtkT-1" vertex="1">
          <mxGeometry x="416" y="656.5" width="20" height="20" as="geometry" />
        </mxCell>
        <mxCell id="rmQNsYvPww5tRN5KAtkT-174" value="" style="shape=actor;whiteSpace=wrap;html=1;hachureGap=4;pointerEvents=0;shadow=0;labelBackgroundColor=none;sketch=0;fontFamily=Helvetica;fontSize=15;fontColor=none;strokeColor=#596780;strokeWidth=1;fillColor=none;gradientDirection=south;" parent="rmQNsYvPww5tRN5KAtkT-1" vertex="1">
          <mxGeometry x="313" y="607.5" width="12" height="18" as="geometry" />
        </mxCell>
        <mxCell id="rmQNsYvPww5tRN5KAtkT-175" value="" style="shape=mxgraph.signs.transportation.airplane_2;html=1;pointerEvents=1;fillColor=#596780;strokeColor=none;verticalLabelPosition=bottom;verticalAlign=top;align=center;hachureGap=4;shadow=0;labelBackgroundColor=none;sketch=0;fontFamily=Helvetica;fontSize=14;fontColor=none;" parent="rmQNsYvPww5tRN5KAtkT-1" vertex="1">
          <mxGeometry x="463" y="662" width="16.1" height="9" as="geometry" />
        </mxCell>
        <mxCell id="rmQNsYvPww5tRN5KAtkT-176" value="Continue" style="rounded=1;fillColor=#0057D8;align=center;strokeColor=none;html=1;fontColor=#ffffff;fontSize=12;sketch=0;hachureGap=4;pointerEvents=0;shadow=0;labelBackgroundColor=none;fontFamily=Helvetica;" parent="rmQNsYvPww5tRN5KAtkT-1" vertex="1">
          <mxGeometry x="888" y="702" width="86" height="33" as="geometry" />
        </mxCell>
        <mxCell id="rmQNsYvPww5tRN5KAtkT-177" value="&lt;font style=&quot;font-size: 15px&quot;&gt;&amp;nbsp; &amp;nbsp; &amp;nbsp; &amp;nbsp; &amp;nbsp;&lt;/font&gt;&lt;span style=&quot;color: rgb(89 , 103 , 128)&quot;&gt;21.11&lt;/span&gt;" style="rounded=1;arcSize=9;fillColor=#ffffff;align=left;spacingLeft=5;strokeColor=#DEE1E6;html=1;strokeWidth=2;fontColor=#CCCCCC;fontSize=15;hachureGap=4;pointerEvents=0;shadow=0;labelBackgroundColor=none;sketch=0;fontFamily=Helvetica;" parent="rmQNsYvPww5tRN5KAtkT-1" vertex="1">
          <mxGeometry x="708" y="650" width="150" height="33" as="geometry" />
        </mxCell>
        <mxCell id="rmQNsYvPww5tRN5KAtkT-178" value="" style="shape=mxgraph.gmdl.calendar;fillColor=#596780;strokeColor=none" parent="rmQNsYvPww5tRN5KAtkT-177" vertex="1">
          <mxGeometry x="1" y="0.5" width="18" height="18" relative="1" as="geometry">
            <mxPoint x="-134" y="-9" as="offset" />
          </mxGeometry>
        </mxCell>
        <mxCell id="rmQNsYvPww5tRN5KAtkT-179" value="" style="endArrow=none;html=1;fontFamily=Helvetica;fontSize=15;fontColor=none;startSize=14;endSize=14;sourcePerimeterSpacing=8;targetPerimeterSpacing=8;strokeColor=#596780;" parent="rmQNsYvPww5tRN5KAtkT-1" edge="1">
          <mxGeometry width="50" height="50" relative="1" as="geometry">
            <mxPoint x="350" y="616.4299999999998" as="sourcePoint" />
            <mxPoint x="359.5" y="616.4299999999998" as="targetPoint" />
          </mxGeometry>
        </mxCell>
        <mxCell id="rmQNsYvPww5tRN5KAtkT-180" value="" style="endArrow=none;html=1;fontFamily=Helvetica;fontSize=15;fontColor=none;startSize=14;endSize=14;sourcePerimeterSpacing=8;targetPerimeterSpacing=8;strokeColor=#596780;" parent="rmQNsYvPww5tRN5KAtkT-1" edge="1">
          <mxGeometry width="50" height="50" relative="1" as="geometry">
            <mxPoint x="398" y="616.45" as="sourcePoint" />
            <mxPoint x="407.5" y="616.45" as="targetPoint" />
          </mxGeometry>
        </mxCell>
        <mxCell id="rmQNsYvPww5tRN5KAtkT-181" value="" style="endArrow=none;html=1;fontFamily=Helvetica;fontSize=15;fontColor=none;startSize=14;endSize=14;sourcePerimeterSpacing=8;targetPerimeterSpacing=8;strokeColor=#596780;" parent="rmQNsYvPww5tRN5KAtkT-1" edge="1">
          <mxGeometry width="50" height="50" relative="1" as="geometry">
            <mxPoint x="403" y="612.28" as="sourcePoint" />
            <mxPoint x="403" y="620.73" as="targetPoint" />
          </mxGeometry>
        </mxCell>
        <mxCell id="rmQNsYvPww5tRN5KAtkT-182" value="1" style="text;html=1;strokeColor=none;fillColor=none;align=center;verticalAlign=middle;whiteSpace=wrap;rounded=0;shadow=0;labelBackgroundColor=none;sketch=0;hachureGap=4;pointerEvents=0;fontFamily=Helvetica;fontSize=13;fontColor=#4D4D4D;" parent="rmQNsYvPww5tRN5KAtkT-1" vertex="1">
          <mxGeometry x="372" y="605.5" width="15" height="20" as="geometry" />
        </mxCell>
        <mxCell id="rmQNsYvPww5tRN5KAtkT-183" value="Add flight" style="fillColor=none;strokeColor=none;html=1;fontColor=#0057D8;align=center;verticalAlign=middle;fontStyle=0;fontSize=12;hachureGap=4;pointerEvents=0;" parent="rmQNsYvPww5tRN5KAtkT-1" vertex="1">
          <mxGeometry x="173" y="743" width="86" height="33" as="geometry" />
        </mxCell>
        <mxCell id="rmQNsYvPww5tRN5KAtkT-184" value="&amp;nbsp; &amp;nbsp; &amp;nbsp; &amp;nbsp; From" style="rounded=1;arcSize=9;fillColor=#ffffff;strokeColor=#DEE1E6;html=1;strokeWidth=2;spacingLeft=5;fontColor=#CCCCCC;align=left;sketch=0;hachureGap=4;pointerEvents=0;fontFamily=Helvetica;fontSize=15;shadow=0;" parent="rmQNsYvPww5tRN5KAtkT-1" vertex="1">
          <mxGeometry x="173" y="702" width="230" height="33" as="geometry" />
        </mxCell>
        <mxCell id="rmQNsYvPww5tRN5KAtkT-185" value="" style="shape=mxgraph.signs.transportation.airplane_1;html=1;pointerEvents=1;fillColor=#596780;strokeColor=none;verticalLabelPosition=bottom;verticalAlign=top;align=center;hachureGap=4;shadow=0;labelBackgroundColor=none;sketch=0;fontFamily=Helvetica;fontSize=15;fontColor=none;" parent="rmQNsYvPww5tRN5KAtkT-184" vertex="1">
          <mxGeometry x="11" y="14" width="16.26" height="5.75" as="geometry" />
        </mxCell>
        <mxCell id="rmQNsYvPww5tRN5KAtkT-186" value="&lt;font style=&quot;font-size: 15px&quot; color=&quot;#cccccc&quot;&gt;&amp;nbsp; &amp;nbsp; &amp;nbsp; &amp;nbsp; Where&lt;/font&gt;" style="rounded=1;arcSize=9;fillColor=#ffffff;strokeColor=#DEE1E6;html=1;strokeWidth=2;spacingLeft=5;fontColor=#000000;align=left;sketch=0;hachureGap=4;pointerEvents=0;fontFamily=Helvetica;fontSize=15;shadow=0;" parent="rmQNsYvPww5tRN5KAtkT-1" vertex="1">
          <mxGeometry x="449" y="702" width="230" height="33" as="geometry" />
        </mxCell>
        <mxCell id="rmQNsYvPww5tRN5KAtkT-187" value="" style="shape=image;verticalAlign=top;verticalLabelPosition=bottom;labelBackgroundColor=none;imageAspect=0;aspect=fixed;image=https://cdn1.iconfinder.com/data/icons/heroicons-ui/24/switch-horizontal-512.png;hachureGap=4;pointerEvents=0;shadow=0;sketch=0;fontFamily=Helvetica;fontSize=15;fontColor=none;strokeColor=#CCCCCC;fillColor=#CCCCCC;gradientDirection=south;strokeWidth=3;imageBackground=#FAFAFA;noLabel=1;imageBorder=none;" parent="rmQNsYvPww5tRN5KAtkT-1" vertex="1">
          <mxGeometry x="416" y="708.5" width="20" height="20" as="geometry" />
        </mxCell>
        <mxCell id="rmQNsYvPww5tRN5KAtkT-188" value="" style="shape=mxgraph.signs.transportation.airplane_2;html=1;pointerEvents=1;fillColor=#596780;strokeColor=none;verticalLabelPosition=bottom;verticalAlign=top;align=center;hachureGap=4;shadow=0;labelBackgroundColor=none;sketch=0;fontFamily=Helvetica;fontSize=14;fontColor=none;" parent="rmQNsYvPww5tRN5KAtkT-1" vertex="1">
          <mxGeometry x="463" y="714" width="16.1" height="9" as="geometry" />
        </mxCell>
        <mxCell id="rmQNsYvPww5tRN5KAtkT-189" value="&lt;font style=&quot;font-size: 15px&quot;&gt;&amp;nbsp; &amp;nbsp; &amp;nbsp; &amp;nbsp; &amp;nbsp;Today&lt;/font&gt;" style="rounded=1;arcSize=9;fillColor=#ffffff;align=left;spacingLeft=5;strokeColor=#DEE1E6;html=1;strokeWidth=2;fontColor=#CCCCCC;fontSize=15;hachureGap=4;pointerEvents=0;shadow=0;labelBackgroundColor=none;sketch=0;fontFamily=Helvetica;" parent="rmQNsYvPww5tRN5KAtkT-1" vertex="1">
          <mxGeometry x="708" y="702" width="150" height="33" as="geometry" />
        </mxCell>
        <mxCell id="rmQNsYvPww5tRN5KAtkT-190" value="" style="shape=mxgraph.gmdl.calendar;fillColor=#596780;strokeColor=none" parent="rmQNsYvPww5tRN5KAtkT-189" vertex="1">
          <mxGeometry x="1" y="0.5" width="18" height="18" relative="1" as="geometry">
            <mxPoint x="-134" y="-9" as="offset" />
          </mxGeometry>
        </mxCell>
        <mxCell id="GvzeCXD3gM19rgIFTcBI-0" value="" style="rounded=0;whiteSpace=wrap;html=1;shadow=0;glass=0;labelBackgroundColor=none;sketch=0;hachureGap=4;pointerEvents=0;fontFamily=Helvetica;fontSize=10;fontColor=#333333;strokeColor=none;strokeWidth=1;fillColor=#FAFAFA;gradientDirection=south;align=left;verticalAlign=middle;" parent="rmQNsYvPww5tRN5KAtkT-1" vertex="1">
          <mxGeometry x="133" y="405" width="903" height="138" as="geometry" />
        </mxCell>
        <mxCell id="GvzeCXD3gM19rgIFTcBI-1" value="" style="rounded=1;shadow=0;labelBackgroundColor=none;sketch=0;hachureGap=4;pointerEvents=0;fontFamily=Helvetica;fontSize=15;fontColor=none;strokeColor=none;strokeWidth=2;fillColor=#F1F1F4;gradientDirection=south;noLabel=1;fillStyle=auto;" parent="rmQNsYvPww5tRN5KAtkT-1" vertex="1">
          <mxGeometry x="344" y="429.5" width="22" height="22" as="geometry" />
        </mxCell>
        <mxCell id="GvzeCXD3gM19rgIFTcBI-2" value="" style="rounded=1;shadow=0;labelBackgroundColor=none;sketch=0;hachureGap=4;pointerEvents=0;fontFamily=Helvetica;fontSize=15;fontColor=none;strokeColor=none;strokeWidth=2;fillColor=#F1F1F4;gradientDirection=south;noLabel=1;fillStyle=auto;" parent="rmQNsYvPww5tRN5KAtkT-1" vertex="1">
          <mxGeometry x="392" y="429.5" width="22" height="22" as="geometry" />
        </mxCell>
        <mxCell id="GvzeCXD3gM19rgIFTcBI-3" value="&amp;nbsp; &amp;nbsp; &amp;nbsp; &amp;nbsp; Prague" style="rounded=1;arcSize=9;fillColor=#ffffff;strokeColor=#DEE1E6;html=1;strokeWidth=2;spacingLeft=5;fontColor=#596780;align=left;sketch=0;hachureGap=4;pointerEvents=0;fontFamily=Helvetica;fontSize=15;shadow=0;" parent="rmQNsYvPww5tRN5KAtkT-1" vertex="1">
          <mxGeometry x="173" y="474" width="230" height="33" as="geometry" />
        </mxCell>
        <mxCell id="GvzeCXD3gM19rgIFTcBI-4" value="" style="shape=mxgraph.signs.transportation.airplane_1;html=1;pointerEvents=1;fillColor=#596780;strokeColor=none;verticalLabelPosition=bottom;verticalAlign=top;align=center;hachureGap=4;shadow=0;labelBackgroundColor=none;sketch=0;fontFamily=Helvetica;fontSize=15;fontColor=none;" parent="GvzeCXD3gM19rgIFTcBI-3" vertex="1">
          <mxGeometry x="11" y="14" width="16.26" height="5.75" as="geometry" />
        </mxCell>
        <mxCell id="GvzeCXD3gM19rgIFTcBI-5" value="One way" style="rounded=1;fillColor=none;strokeColor=#4C9AFF;html=1;fontColor=#596780;align=left;fontSize=14;spacingLeft=10;sketch=0;hachureGap=4;pointerEvents=0;fontFamily=Helvetica;shadow=0;" parent="rmQNsYvPww5tRN5KAtkT-1" vertex="1">
          <mxGeometry x="173" y="424" width="112" height="33" as="geometry" />
        </mxCell>
        <mxCell id="GvzeCXD3gM19rgIFTcBI-6" value="" style="shape=triangle;direction=south;fillColor=#596780;strokeColor=none;html=1;sketch=0;hachureGap=4;pointerEvents=0;fontFamily=Architects Daughter;fontSource=https%3A%2F%2Ffonts.googleapis.com%2Fcss%3Ffamily%3DArchitects%2BDaughter;fontSize=20;" parent="GvzeCXD3gM19rgIFTcBI-5" vertex="1">
          <mxGeometry x="1" y="0.5" width="12" height="6" relative="1" as="geometry">
            <mxPoint x="-20" y="-3" as="offset" />
          </mxGeometry>
        </mxCell>
        <mxCell id="GvzeCXD3gM19rgIFTcBI-7" value="&lt;font style=&quot;font-size: 15px&quot;&gt;&amp;nbsp; &amp;nbsp; &amp;nbsp; &amp;nbsp; Rome&lt;/font&gt;" style="rounded=1;arcSize=9;fillColor=#ffffff;strokeColor=#DEE1E6;html=1;strokeWidth=2;spacingLeft=5;fontColor=#596780;align=left;sketch=0;hachureGap=4;pointerEvents=0;fontFamily=Helvetica;fontSize=15;shadow=0;" parent="rmQNsYvPww5tRN5KAtkT-1" vertex="1">
          <mxGeometry x="449" y="474" width="230" height="33" as="geometry" />
        </mxCell>
        <mxCell id="GvzeCXD3gM19rgIFTcBI-8" value="" style="shape=image;verticalAlign=top;verticalLabelPosition=bottom;labelBackgroundColor=none;imageAspect=0;aspect=fixed;image=https://cdn1.iconfinder.com/data/icons/heroicons-ui/24/switch-horizontal-512.png;hachureGap=4;pointerEvents=0;shadow=0;sketch=0;fontFamily=Helvetica;fontSize=15;fontColor=none;strokeColor=#CCCCCC;fillColor=#CCCCCC;gradientDirection=south;strokeWidth=3;imageBackground=#FAFAFA;noLabel=1;imageBorder=none;" parent="rmQNsYvPww5tRN5KAtkT-1" vertex="1">
          <mxGeometry x="416" y="480.5" width="20" height="20" as="geometry" />
        </mxCell>
        <mxCell id="GvzeCXD3gM19rgIFTcBI-9" value="" style="shape=actor;whiteSpace=wrap;html=1;hachureGap=4;pointerEvents=0;shadow=0;labelBackgroundColor=none;sketch=0;fontFamily=Helvetica;fontSize=15;fontColor=none;strokeColor=#596780;strokeWidth=1;fillColor=none;gradientDirection=south;" parent="rmQNsYvPww5tRN5KAtkT-1" vertex="1">
          <mxGeometry x="313" y="431.5" width="12" height="18" as="geometry" />
        </mxCell>
        <mxCell id="GvzeCXD3gM19rgIFTcBI-10" value="" style="shape=mxgraph.signs.transportation.airplane_2;html=1;pointerEvents=1;fillColor=#596780;strokeColor=none;verticalLabelPosition=bottom;verticalAlign=top;align=center;hachureGap=4;shadow=0;labelBackgroundColor=none;sketch=0;fontFamily=Helvetica;fontSize=14;fontColor=none;" parent="rmQNsYvPww5tRN5KAtkT-1" vertex="1">
          <mxGeometry x="463" y="486" width="16.1" height="9" as="geometry" />
        </mxCell>
        <mxCell id="GvzeCXD3gM19rgIFTcBI-11" value="Continue" style="rounded=1;fillColor=#0057D8;align=center;strokeColor=none;html=1;fontColor=#ffffff;fontSize=12;sketch=0;hachureGap=4;pointerEvents=0;shadow=0;labelBackgroundColor=none;fontFamily=Helvetica;" parent="rmQNsYvPww5tRN5KAtkT-1" vertex="1">
          <mxGeometry x="884" y="474" width="86" height="33" as="geometry" />
        </mxCell>
        <mxCell id="GvzeCXD3gM19rgIFTcBI-12" value="&lt;font style=&quot;font-size: 15px&quot;&gt;&amp;nbsp; &amp;nbsp; &amp;nbsp; &amp;nbsp; &amp;nbsp;21.11&lt;/font&gt;" style="rounded=1;arcSize=9;fillColor=#ffffff;align=left;spacingLeft=5;strokeColor=#DEE1E6;html=1;strokeWidth=2;fontColor=#596780;fontSize=15;hachureGap=4;pointerEvents=0;shadow=0;labelBackgroundColor=none;sketch=0;fontFamily=Helvetica;" parent="rmQNsYvPww5tRN5KAtkT-1" vertex="1">
          <mxGeometry x="708" y="474" width="150" height="33" as="geometry" />
        </mxCell>
        <mxCell id="GvzeCXD3gM19rgIFTcBI-13" value="" style="shape=mxgraph.gmdl.calendar;fillColor=#596780;strokeColor=none" parent="GvzeCXD3gM19rgIFTcBI-12" vertex="1">
          <mxGeometry x="1" y="0.5" width="18" height="18" relative="1" as="geometry">
            <mxPoint x="-134" y="-9" as="offset" />
          </mxGeometry>
        </mxCell>
        <mxCell id="GvzeCXD3gM19rgIFTcBI-14" value="" style="endArrow=none;html=1;fontFamily=Helvetica;fontSize=15;fontColor=none;startSize=14;endSize=14;sourcePerimeterSpacing=8;targetPerimeterSpacing=8;strokeColor=#596780;" parent="rmQNsYvPww5tRN5KAtkT-1" edge="1">
          <mxGeometry width="50" height="50" relative="1" as="geometry">
            <mxPoint x="350" y="440.42999999999984" as="sourcePoint" />
            <mxPoint x="359.5" y="440.42999999999984" as="targetPoint" />
          </mxGeometry>
        </mxCell>
        <mxCell id="GvzeCXD3gM19rgIFTcBI-15" value="" style="endArrow=none;html=1;fontFamily=Helvetica;fontSize=15;fontColor=none;startSize=14;endSize=14;sourcePerimeterSpacing=8;targetPerimeterSpacing=8;strokeColor=#596780;" parent="rmQNsYvPww5tRN5KAtkT-1" edge="1">
          <mxGeometry width="50" height="50" relative="1" as="geometry">
            <mxPoint x="398" y="440.45000000000005" as="sourcePoint" />
            <mxPoint x="407.5" y="440.45000000000005" as="targetPoint" />
          </mxGeometry>
        </mxCell>
        <mxCell id="GvzeCXD3gM19rgIFTcBI-16" value="" style="endArrow=none;html=1;fontFamily=Helvetica;fontSize=15;fontColor=none;startSize=14;endSize=14;sourcePerimeterSpacing=8;targetPerimeterSpacing=8;strokeColor=#596780;" parent="rmQNsYvPww5tRN5KAtkT-1" edge="1">
          <mxGeometry width="50" height="50" relative="1" as="geometry">
            <mxPoint x="403" y="436.28" as="sourcePoint" />
            <mxPoint x="403" y="444.73" as="targetPoint" />
          </mxGeometry>
        </mxCell>
        <mxCell id="GvzeCXD3gM19rgIFTcBI-17" value="1" style="text;html=1;strokeColor=none;fillColor=none;align=center;verticalAlign=middle;whiteSpace=wrap;rounded=0;shadow=0;labelBackgroundColor=none;sketch=0;hachureGap=4;pointerEvents=0;fontFamily=Helvetica;fontSize=13;fontColor=#4D4D4D;" parent="rmQNsYvPww5tRN5KAtkT-1" vertex="1">
          <mxGeometry x="372" y="429.5" width="15" height="20" as="geometry" />
        </mxCell>
        <mxCell id="uZLirgHRYd2FlXyjieLx-0" value="" style="ellipse;whiteSpace=wrap;html=1;rounded=0;hachureGap=4;pointerEvents=0;strokeColor=#B20000;fillColor=#e51400;opacity=10;fontColor=#ffffff;" parent="rmQNsYvPww5tRN5KAtkT-1" vertex="1">
          <mxGeometry x="788" y="278" width="77" height="80" as="geometry" />
        </mxCell>
      </root>
    </mxGraphModel>
  </diagram>
  <diagram name="Second part" id="tmoDr3dDE3FNvjAFJT1f">
    <mxGraphModel dx="1202" dy="676" grid="0" gridSize="10" guides="1" tooltips="1" connect="1" arrows="1" fold="1" page="1" pageScale="1" pageWidth="1169" pageHeight="827" background="#ffffff" math="0" shadow="0">
      <root>
        <mxCell id="jOJtsZhNvGcymittiSNQ-0" />
        <mxCell id="jOJtsZhNvGcymittiSNQ-1" parent="jOJtsZhNvGcymittiSNQ-0" />
        <mxCell id="jOJtsZhNvGcymittiSNQ-2" value="" style="rounded=0;whiteSpace=wrap;html=1;shadow=0;glass=0;labelBackgroundColor=none;sketch=0;hachureGap=4;pointerEvents=0;fontFamily=Helvetica;fontSize=10;fontColor=#333333;strokeColor=none;strokeWidth=1;fillColor=#FAFAFA;gradientDirection=south;align=left;verticalAlign=middle;" parent="jOJtsZhNvGcymittiSNQ-1" vertex="1">
          <mxGeometry x="137" y="99" width="903" height="417" as="geometry" />
        </mxCell>
        <mxCell id="jOJtsZhNvGcymittiSNQ-3" value="" style="rounded=1;shadow=0;labelBackgroundColor=none;sketch=0;hachureGap=4;pointerEvents=0;fontFamily=Helvetica;fontSize=15;fontColor=none;strokeColor=none;strokeWidth=2;fillColor=#F1F1F4;gradientDirection=south;noLabel=1;fillStyle=auto;" parent="jOJtsZhNvGcymittiSNQ-1" vertex="1">
          <mxGeometry x="344" y="128.5" width="22" height="22" as="geometry" />
        </mxCell>
        <mxCell id="jOJtsZhNvGcymittiSNQ-4" value="" style="rounded=1;shadow=0;labelBackgroundColor=none;sketch=0;hachureGap=4;pointerEvents=0;fontFamily=Helvetica;fontSize=15;fontColor=none;strokeColor=none;strokeWidth=2;fillColor=#F1F1F4;gradientDirection=south;noLabel=1;fillStyle=auto;" parent="jOJtsZhNvGcymittiSNQ-1" vertex="1">
          <mxGeometry x="392" y="128.5" width="22" height="22" as="geometry" />
        </mxCell>
        <mxCell id="jOJtsZhNvGcymittiSNQ-5" value="&amp;nbsp; &amp;nbsp; &amp;nbsp; &amp;nbsp; Prague" style="rounded=1;arcSize=9;fillColor=#ffffff;strokeColor=#DEE1E6;html=1;strokeWidth=2;spacingLeft=5;fontColor=#596780;align=left;sketch=0;hachureGap=4;pointerEvents=0;fontFamily=Helvetica;fontSize=15;shadow=0;" parent="jOJtsZhNvGcymittiSNQ-1" vertex="1">
          <mxGeometry x="173" y="173" width="230" height="33" as="geometry" />
        </mxCell>
        <mxCell id="jOJtsZhNvGcymittiSNQ-6" value="" style="shape=mxgraph.signs.transportation.airplane_1;html=1;pointerEvents=1;fillColor=#596780;strokeColor=none;verticalLabelPosition=bottom;verticalAlign=top;align=center;hachureGap=4;shadow=0;labelBackgroundColor=none;sketch=0;fontFamily=Helvetica;fontSize=15;fontColor=none;" parent="jOJtsZhNvGcymittiSNQ-5" vertex="1">
          <mxGeometry x="11" y="14" width="16.26" height="5.75" as="geometry" />
        </mxCell>
        <mxCell id="jOJtsZhNvGcymittiSNQ-7" value="Return trip" style="rounded=1;fillColor=none;strokeColor=#CCCCCC;html=1;fontColor=#596780;align=left;fontSize=14;spacingLeft=10;sketch=0;hachureGap=4;pointerEvents=0;fontFamily=Helvetica;shadow=0;" parent="jOJtsZhNvGcymittiSNQ-1" vertex="1">
          <mxGeometry x="173" y="123" width="112" height="33" as="geometry" />
        </mxCell>
        <mxCell id="jOJtsZhNvGcymittiSNQ-8" value="" style="shape=triangle;direction=south;fillColor=#596780;strokeColor=none;html=1;sketch=0;hachureGap=4;pointerEvents=0;fontFamily=Architects Daughter;fontSource=https%3A%2F%2Ffonts.googleapis.com%2Fcss%3Ffamily%3DArchitects%2BDaughter;fontSize=20;" parent="jOJtsZhNvGcymittiSNQ-7" vertex="1">
          <mxGeometry x="1" y="0.5" width="12" height="6" relative="1" as="geometry">
            <mxPoint x="-20" y="-3" as="offset" />
          </mxGeometry>
        </mxCell>
        <mxCell id="jOJtsZhNvGcymittiSNQ-9" value="&lt;font style=&quot;font-size: 15px&quot;&gt;&amp;nbsp; &amp;nbsp; &amp;nbsp; &amp;nbsp; Rome&lt;/font&gt;" style="rounded=1;arcSize=9;fillColor=#ffffff;strokeColor=#DEE1E6;html=1;strokeWidth=2;spacingLeft=5;fontColor=#596780;align=left;sketch=0;hachureGap=4;pointerEvents=0;fontFamily=Helvetica;fontSize=15;shadow=0;" parent="jOJtsZhNvGcymittiSNQ-1" vertex="1">
          <mxGeometry x="449" y="173" width="230" height="33" as="geometry" />
        </mxCell>
        <mxCell id="jOJtsZhNvGcymittiSNQ-10" value="" style="shape=image;verticalAlign=top;verticalLabelPosition=bottom;labelBackgroundColor=none;imageAspect=0;aspect=fixed;image=https://cdn1.iconfinder.com/data/icons/heroicons-ui/24/switch-horizontal-512.png;hachureGap=4;pointerEvents=0;shadow=0;sketch=0;fontFamily=Helvetica;fontSize=15;fontColor=none;strokeColor=#CCCCCC;fillColor=#CCCCCC;gradientDirection=south;strokeWidth=3;imageBackground=#FAFAFA;noLabel=1;imageBorder=none;" parent="jOJtsZhNvGcymittiSNQ-1" vertex="1">
          <mxGeometry x="416" y="179.5" width="20" height="20" as="geometry" />
        </mxCell>
        <mxCell id="jOJtsZhNvGcymittiSNQ-11" value="" style="shape=actor;whiteSpace=wrap;html=1;hachureGap=4;pointerEvents=0;shadow=0;labelBackgroundColor=none;sketch=0;fontFamily=Helvetica;fontSize=15;fontColor=none;strokeColor=#596780;strokeWidth=1;fillColor=none;gradientDirection=south;" parent="jOJtsZhNvGcymittiSNQ-1" vertex="1">
          <mxGeometry x="313" y="130.5" width="12" height="18" as="geometry" />
        </mxCell>
        <mxCell id="jOJtsZhNvGcymittiSNQ-12" value="" style="shape=mxgraph.signs.transportation.airplane_2;html=1;pointerEvents=1;fillColor=#596780;strokeColor=none;verticalLabelPosition=bottom;verticalAlign=top;align=center;hachureGap=4;shadow=0;labelBackgroundColor=none;sketch=0;fontFamily=Helvetica;fontSize=14;fontColor=none;" parent="jOJtsZhNvGcymittiSNQ-1" vertex="1">
          <mxGeometry x="463" y="185" width="16.1" height="9" as="geometry" />
        </mxCell>
        <mxCell id="jOJtsZhNvGcymittiSNQ-14" value="&lt;font style=&quot;font-size: 15px&quot;&gt;&amp;nbsp; &amp;nbsp; &amp;nbsp; &amp;nbsp; &amp;nbsp;21.11 - 27.11&lt;/font&gt;" style="rounded=1;arcSize=9;fillColor=#ffffff;align=left;spacingLeft=5;strokeColor=#DEE1E6;html=1;strokeWidth=2;fontColor=#596780;fontSize=15;hachureGap=4;pointerEvents=0;shadow=0;labelBackgroundColor=none;sketch=0;fontFamily=Helvetica;" parent="jOJtsZhNvGcymittiSNQ-1" vertex="1">
          <mxGeometry x="708" y="173" width="150" height="33" as="geometry" />
        </mxCell>
        <mxCell id="jOJtsZhNvGcymittiSNQ-15" value="" style="shape=mxgraph.gmdl.calendar;fillColor=#596780;strokeColor=none" parent="jOJtsZhNvGcymittiSNQ-14" vertex="1">
          <mxGeometry x="1" y="0.5" width="18" height="18" relative="1" as="geometry">
            <mxPoint x="-134" y="-9" as="offset" />
          </mxGeometry>
        </mxCell>
        <mxCell id="jOJtsZhNvGcymittiSNQ-16" value="" style="endArrow=none;html=1;fontFamily=Helvetica;fontSize=15;fontColor=none;startSize=14;endSize=14;sourcePerimeterSpacing=8;targetPerimeterSpacing=8;strokeColor=#596780;" parent="jOJtsZhNvGcymittiSNQ-1" edge="1">
          <mxGeometry width="50" height="50" relative="1" as="geometry">
            <mxPoint x="350" y="139.42999999999995" as="sourcePoint" />
            <mxPoint x="359.5" y="139.42999999999995" as="targetPoint" />
          </mxGeometry>
        </mxCell>
        <mxCell id="jOJtsZhNvGcymittiSNQ-17" value="" style="endArrow=none;html=1;fontFamily=Helvetica;fontSize=15;fontColor=none;startSize=14;endSize=14;sourcePerimeterSpacing=8;targetPerimeterSpacing=8;strokeColor=#596780;" parent="jOJtsZhNvGcymittiSNQ-1" edge="1">
          <mxGeometry width="50" height="50" relative="1" as="geometry">
            <mxPoint x="398" y="139.45" as="sourcePoint" />
            <mxPoint x="407.5" y="139.45" as="targetPoint" />
          </mxGeometry>
        </mxCell>
        <mxCell id="jOJtsZhNvGcymittiSNQ-18" value="" style="endArrow=none;html=1;fontFamily=Helvetica;fontSize=15;fontColor=none;startSize=14;endSize=14;sourcePerimeterSpacing=8;targetPerimeterSpacing=8;strokeColor=#596780;" parent="jOJtsZhNvGcymittiSNQ-1" edge="1">
          <mxGeometry width="50" height="50" relative="1" as="geometry">
            <mxPoint x="403" y="135.27999999999997" as="sourcePoint" />
            <mxPoint x="403" y="143.73000000000002" as="targetPoint" />
          </mxGeometry>
        </mxCell>
        <mxCell id="jOJtsZhNvGcymittiSNQ-19" value="1" style="text;html=1;strokeColor=none;fillColor=none;align=center;verticalAlign=middle;whiteSpace=wrap;rounded=0;shadow=0;labelBackgroundColor=none;sketch=0;hachureGap=4;pointerEvents=0;fontFamily=Helvetica;fontSize=13;fontColor=#4D4D4D;" parent="jOJtsZhNvGcymittiSNQ-1" vertex="1">
          <mxGeometry x="372" y="128.5" width="15" height="20" as="geometry" />
        </mxCell>
        <mxCell id="7oaxzK2SUXjivdIPoJN7-1" value="Name&amp;nbsp;&lt;sup&gt;&lt;font color=&quot;#ff0000&quot;&gt;*&lt;/font&gt;&lt;/sup&gt;" style="fillColor=none;strokeColor=none;html=1;fontSize=11;fontStyle=0;align=left;fontColor=#596780;fontStyle=1;fontSize=11;hachureGap=4;pointerEvents=0;shadow=0;glass=0;labelBackgroundColor=none;sketch=0;fontFamily=Helvetica;" parent="jOJtsZhNvGcymittiSNQ-1" vertex="1">
          <mxGeometry x="176" y="232" width="172" height="20" as="geometry" />
        </mxCell>
        <mxCell id="7oaxzK2SUXjivdIPoJN7-2" value="Messina Cake" style="rounded=1;arcSize=9;align=left;spacingLeft=5;strokeColor=#E6E6E6;html=1;strokeWidth=2;fontSize=12;hachureGap=4;pointerEvents=0;shadow=0;glass=0;labelBackgroundColor=none;sketch=0;fontFamily=Helvetica;fontColor=none;fillColor=none;gradientDirection=south;" parent="jOJtsZhNvGcymittiSNQ-1" vertex="1">
          <mxGeometry x="176" y="257" width="172" height="33" as="geometry" />
        </mxCell>
        <mxCell id="7oaxzK2SUXjivdIPoJN7-3" value="Email&amp;nbsp;&lt;sup&gt;&lt;font color=&quot;#ff0000&quot;&gt;*&lt;/font&gt;&lt;/sup&gt;" style="fillColor=none;strokeColor=none;html=1;fontSize=11;fontStyle=0;align=left;fontColor=#596780;fontStyle=1;fontSize=11;hachureGap=4;pointerEvents=0;shadow=0;glass=0;labelBackgroundColor=none;sketch=0;fontFamily=Helvetica;" parent="jOJtsZhNvGcymittiSNQ-1" vertex="1">
          <mxGeometry x="373" y="233" width="172" height="20" as="geometry" />
        </mxCell>
        <mxCell id="7oaxzK2SUXjivdIPoJN7-4" value="messina#gmail.com" style="rounded=1;arcSize=9;align=left;spacingLeft=5;strokeColor=#F19C99;html=1;strokeWidth=2;fontSize=12;hachureGap=4;pointerEvents=0;shadow=0;glass=0;labelBackgroundColor=none;sketch=0;fontFamily=Helvetica;fontColor=none;fillColor=none;gradientDirection=south;" parent="jOJtsZhNvGcymittiSNQ-1" vertex="1">
          <mxGeometry x="373" y="258" width="172" height="33" as="geometry" />
        </mxCell>
        <mxCell id="7oaxzK2SUXjivdIPoJN7-5" value="Phone" style="fillColor=none;strokeColor=none;html=1;fontSize=11;fontStyle=0;align=left;fontColor=#596780;fontStyle=1;fontSize=11;hachureGap=4;pointerEvents=0;shadow=0;glass=0;labelBackgroundColor=none;sketch=0;fontFamily=Helvetica;" parent="jOJtsZhNvGcymittiSNQ-1" vertex="1">
          <mxGeometry x="569" y="233" width="172" height="20" as="geometry" />
        </mxCell>
        <mxCell id="7oaxzK2SUXjivdIPoJN7-6" value="" style="rounded=1;arcSize=9;align=left;spacingLeft=5;strokeColor=#DEE1E6;html=1;strokeWidth=2;fontSize=12;hachureGap=4;pointerEvents=0;shadow=0;glass=0;labelBackgroundColor=none;sketch=0;fontFamily=Helvetica;fontColor=none;fillColor=none;gradientDirection=south;" parent="jOJtsZhNvGcymittiSNQ-1" vertex="1">
          <mxGeometry x="569" y="258" width="172" height="33" as="geometry" />
        </mxCell>
        <mxCell id="7oaxzK2SUXjivdIPoJN7-7" value="&lt;font face=&quot;Helvetica&quot;&gt;Enter your additional requests&lt;/font&gt;" style="rounded=1;arcSize=4;fillColor=none;align=left;spacingLeft=5;strokeColor=#DEE1E6;html=1;strokeWidth=2;fontColor=#B3B3B3;fontSize=12;verticalAlign=top;sketch=0;hachureGap=4;pointerEvents=0;fontFamily=Architects Daughter;fontSource=https%3A%2F%2Ffonts.googleapis.com%2Fcss%3Ffamily%3DArchitects%2BDaughter;shadow=0;glass=0;labelBackgroundColor=none;" parent="jOJtsZhNvGcymittiSNQ-1" vertex="1">
          <mxGeometry x="176" y="315" width="371" height="115" as="geometry" />
        </mxCell>
        <mxCell id="7oaxzK2SUXjivdIPoJN7-8" value="" style="fillColor=#F1F2F4;strokeColor=none;rounded=1;arcSize=50;sketch=0;hachureGap=4;pointerEvents=0;fontFamily=Architects Daughter;fontSource=https%3A%2F%2Ffonts.googleapis.com%2Fcss%3Ffamily%3DArchitects%2BDaughter;fontSize=20;shadow=0;glass=0;labelBackgroundColor=none;fontColor=#B3B3B3;html=0;" parent="jOJtsZhNvGcymittiSNQ-1" vertex="1">
          <mxGeometry x="569" y="317" width="30" height="16" as="geometry" />
        </mxCell>
        <mxCell id="7oaxzK2SUXjivdIPoJN7-9" value="" style="shape=ellipse;strokeColor=none;fillColor=#C2C7D0;sketch=0;hachureGap=4;pointerEvents=0;fontFamily=Architects Daughter;fontSource=https%3A%2F%2Ffonts.googleapis.com%2Fcss%3Ffamily%3DArchitects%2BDaughter;fontSize=20;" parent="7oaxzK2SUXjivdIPoJN7-8" vertex="1">
          <mxGeometry y="0.5" width="12" height="12" relative="1" as="geometry">
            <mxPoint x="2" y="-6" as="offset" />
          </mxGeometry>
        </mxCell>
        <mxCell id="7oaxzK2SUXjivdIPoJN7-10" value="" style="html=1;shadow=0;dashed=0;shape=mxgraph.atlassian.x;strokeColor=#C2C7D0;sketch=1;hachureGap=4;pointerEvents=0;fontFamily=Architects Daughter;fontSource=https%3A%2F%2Ffonts.googleapis.com%2Fcss%3Ffamily%3DArchitects%2BDaughter;fontSize=20;" parent="7oaxzK2SUXjivdIPoJN7-8" vertex="1">
          <mxGeometry x="1" y="0.5" width="5" height="5" relative="1" as="geometry">
            <mxPoint x="-10" y="-3" as="offset" />
          </mxGeometry>
        </mxCell>
        <mxCell id="7oaxzK2SUXjivdIPoJN7-11" value="Hostess" style="rounded=1;arcSize=10;fillColor=none;strokeColor=none;html=1;fontSize=11;align=left;fontColor=#596780;fontStyle=0;fontSize=11;sketch=0;hachureGap=4;pointerEvents=0;fontFamily=Helvetica;shadow=0;glass=0;labelBackgroundColor=none;" parent="jOJtsZhNvGcymittiSNQ-1" vertex="1">
          <mxGeometry x="629" y="315" width="65" height="20" as="geometry" />
        </mxCell>
        <mxCell id="7oaxzK2SUXjivdIPoJN7-12" value="" style="fillColor=#36B37E;strokeColor=none;rounded=1;arcSize=50;sketch=0;hachureGap=4;pointerEvents=0;fontFamily=Architects Daughter;fontSource=https%3A%2F%2Ffonts.googleapis.com%2Fcss%3Ffamily%3DArchitects%2BDaughter;fontSize=20;shadow=0;glass=0;labelBackgroundColor=none;fontColor=#596780;html=0;" parent="jOJtsZhNvGcymittiSNQ-1" vertex="1">
          <mxGeometry x="569" y="348" width="30" height="16" as="geometry" />
        </mxCell>
        <mxCell id="7oaxzK2SUXjivdIPoJN7-13" value="" style="shape=ellipse;strokeColor=none;fillColor=#9AD9BE;sketch=0;hachureGap=4;pointerEvents=0;fontFamily=Architects Daughter;fontSource=https%3A%2F%2Ffonts.googleapis.com%2Fcss%3Ffamily%3DArchitects%2BDaughter;fontSize=20;" parent="7oaxzK2SUXjivdIPoJN7-12" vertex="1">
          <mxGeometry x="1" y="0.5" width="12" height="12" relative="1" as="geometry">
            <mxPoint x="-14" y="-6" as="offset" />
          </mxGeometry>
        </mxCell>
        <mxCell id="7oaxzK2SUXjivdIPoJN7-14" value="" style="html=1;shadow=0;dashed=0;shape=mxgraph.atlassian.check;strokeColor=#9AD9BE;sketch=1;hachureGap=4;pointerEvents=0;fontFamily=Architects Daughter;fontSource=https%3A%2F%2Ffonts.googleapis.com%2Fcss%3Ffamily%3DArchitects%2BDaughter;fontSize=20;" parent="7oaxzK2SUXjivdIPoJN7-12" vertex="1">
          <mxGeometry y="0.5" width="6" height="5" relative="1" as="geometry">
            <mxPoint x="4" y="-3" as="offset" />
          </mxGeometry>
        </mxCell>
        <mxCell id="7oaxzK2SUXjivdIPoJN7-15" value="Catering" style="rounded=1;arcSize=10;fillColor=none;strokeColor=none;html=1;fontSize=11;align=left;fontColor=#596780;fontStyle=0;fontSize=11;sketch=0;hachureGap=4;pointerEvents=0;fontFamily=Helvetica;shadow=0;glass=0;labelBackgroundColor=none;" parent="jOJtsZhNvGcymittiSNQ-1" vertex="1">
          <mxGeometry x="629" y="346" width="95" height="20" as="geometry" />
        </mxCell>
        <mxCell id="7oaxzK2SUXjivdIPoJN7-16" value="" style="fillColor=#F1F2F4;strokeColor=none;rounded=1;arcSize=50;sketch=0;hachureGap=4;pointerEvents=0;fontFamily=Architects Daughter;fontSource=https%3A%2F%2Ffonts.googleapis.com%2Fcss%3Ffamily%3DArchitects%2BDaughter;fontSize=20;shadow=0;glass=0;labelBackgroundColor=none;fontColor=#B3B3B3;html=0;" parent="jOJtsZhNvGcymittiSNQ-1" vertex="1">
          <mxGeometry x="569" y="379" width="30" height="16" as="geometry" />
        </mxCell>
        <mxCell id="7oaxzK2SUXjivdIPoJN7-17" value="" style="shape=ellipse;strokeColor=none;fillColor=#C2C7D0;sketch=0;hachureGap=4;pointerEvents=0;fontFamily=Architects Daughter;fontSource=https%3A%2F%2Ffonts.googleapis.com%2Fcss%3Ffamily%3DArchitects%2BDaughter;fontSize=20;" parent="7oaxzK2SUXjivdIPoJN7-16" vertex="1">
          <mxGeometry y="0.5" width="12" height="12" relative="1" as="geometry">
            <mxPoint x="2" y="-6" as="offset" />
          </mxGeometry>
        </mxCell>
        <mxCell id="7oaxzK2SUXjivdIPoJN7-18" value="" style="html=1;shadow=0;dashed=0;shape=mxgraph.atlassian.x;strokeColor=#C2C7D0;sketch=1;hachureGap=4;pointerEvents=0;fontFamily=Architects Daughter;fontSource=https%3A%2F%2Ffonts.googleapis.com%2Fcss%3Ffamily%3DArchitects%2BDaughter;fontSize=20;" parent="7oaxzK2SUXjivdIPoJN7-16" vertex="1">
          <mxGeometry x="1" y="0.5" width="5" height="5" relative="1" as="geometry">
            <mxPoint x="-10" y="-3" as="offset" />
          </mxGeometry>
        </mxCell>
        <mxCell id="7oaxzK2SUXjivdIPoJN7-19" value="Limousine transfer" style="rounded=1;arcSize=10;fillColor=none;strokeColor=none;html=1;fontSize=11;align=left;fontColor=#596780;fontStyle=0;fontSize=11;sketch=0;hachureGap=4;pointerEvents=0;fontFamily=Helvetica;shadow=0;glass=0;labelBackgroundColor=none;" parent="jOJtsZhNvGcymittiSNQ-1" vertex="1">
          <mxGeometry x="629" y="377" width="101" height="20" as="geometry" />
        </mxCell>
        <mxCell id="7oaxzK2SUXjivdIPoJN7-20" value="Send" style="rounded=1;fillColor=#0057D8;strokeColor=none;html=1;fontColor=#ffffff;align=center;verticalAlign=middle;fontStyle=0;fontSize=12;sketch=0;hachureGap=4;pointerEvents=0;shadow=0;glass=0;labelBackgroundColor=none;fontFamily=Helvetica;" parent="jOJtsZhNvGcymittiSNQ-1" vertex="1">
          <mxGeometry x="173" y="455" width="86" height="33" as="geometry" />
        </mxCell>
        <mxCell id="7oaxzK2SUXjivdIPoJN7-21" value="" style="fillColor=#F1F2F4;strokeColor=none;rounded=1;arcSize=50;sketch=0;hachureGap=4;pointerEvents=0;fontFamily=Architects Daughter;fontSource=https%3A%2F%2Ffonts.googleapis.com%2Fcss%3Ffamily%3DArchitects%2BDaughter;fontSize=20;shadow=0;glass=0;labelBackgroundColor=none;fontColor=#B3B3B3;html=0;" parent="jOJtsZhNvGcymittiSNQ-1" vertex="1">
          <mxGeometry x="569" y="412" width="30" height="16" as="geometry" />
        </mxCell>
        <mxCell id="7oaxzK2SUXjivdIPoJN7-22" value="" style="shape=ellipse;strokeColor=none;fillColor=#C2C7D0;sketch=0;hachureGap=4;pointerEvents=0;fontFamily=Architects Daughter;fontSource=https%3A%2F%2Ffonts.googleapis.com%2Fcss%3Ffamily%3DArchitects%2BDaughter;fontSize=20;" parent="7oaxzK2SUXjivdIPoJN7-21" vertex="1">
          <mxGeometry y="0.5" width="12" height="12" relative="1" as="geometry">
            <mxPoint x="2" y="-6" as="offset" />
          </mxGeometry>
        </mxCell>
        <mxCell id="7oaxzK2SUXjivdIPoJN7-23" value="" style="html=1;shadow=0;dashed=0;shape=mxgraph.atlassian.x;strokeColor=#C2C7D0;sketch=1;hachureGap=4;pointerEvents=0;fontFamily=Architects Daughter;fontSource=https%3A%2F%2Ffonts.googleapis.com%2Fcss%3Ffamily%3DArchitects%2BDaughter;fontSize=20;" parent="7oaxzK2SUXjivdIPoJN7-21" vertex="1">
          <mxGeometry x="1" y="0.5" width="5" height="5" relative="1" as="geometry">
            <mxPoint x="-10" y="-3" as="offset" />
          </mxGeometry>
        </mxCell>
        <mxCell id="7oaxzK2SUXjivdIPoJN7-24" value="" style="shape=mxgraph.signs.animals.dog_on_leash;html=1;pointerEvents=1;fillColor=#596780;strokeColor=none;verticalLabelPosition=bottom;verticalAlign=top;align=center;hachureGap=4;shadow=0;glass=0;labelBackgroundColor=none;sketch=0;fontFamily=Helvetica;fontSize=13;fontColor=#596780;" parent="jOJtsZhNvGcymittiSNQ-1" vertex="1">
          <mxGeometry x="661" y="412.5" width="15.99" height="15" as="geometry" />
        </mxCell>
        <mxCell id="7oaxzK2SUXjivdIPoJN7-25" value="Pets" style="rounded=1;arcSize=10;fillColor=none;strokeColor=none;html=1;fontSize=11;align=left;fontColor=#596780;fontStyle=0;fontSize=11;sketch=0;hachureGap=4;pointerEvents=0;fontFamily=Helvetica;shadow=0;glass=0;labelBackgroundColor=none;" parent="jOJtsZhNvGcymittiSNQ-1" vertex="1">
          <mxGeometry x="629" y="410" width="101" height="20" as="geometry" />
        </mxCell>
        <mxCell id="owaa-c_TzHauTxvGBib9-0" value="&lt;font style=&quot;font-size: 8px ; line-height: 100%&quot;&gt;Email 1&lt;/font&gt;" style="sketch=0;outlineConnect=0;fontColor=#232F3E;gradientColor=none;strokeColor=none;fillColor=#ffffff;dashed=0;verticalLabelPosition=bottom;verticalAlign=top;align=center;html=1;fontSize=12;fontStyle=0;aspect=fixed;shape=mxgraph.aws4.resourceIcon;resIcon=mxgraph.aws4.email_notification;hachureGap=4;pointerEvents=0;shadow=0;glass=0;labelBackgroundColor=none;fontFamily=Helvetica;" parent="jOJtsZhNvGcymittiSNQ-1" vertex="1">
          <mxGeometry x="824" y="541" width="60" height="60" as="geometry" />
        </mxCell>
        <mxCell id="owaa-c_TzHauTxvGBib9-1" value="&lt;font style=&quot;font-size: 8px ; line-height: 100%&quot;&gt;Email 2&lt;/font&gt;" style="sketch=0;outlineConnect=0;fontColor=#232F3E;gradientColor=none;strokeColor=none;fillColor=#ffffff;dashed=0;verticalLabelPosition=bottom;verticalAlign=top;align=center;html=1;fontSize=12;fontStyle=0;aspect=fixed;shape=mxgraph.aws4.resourceIcon;resIcon=mxgraph.aws4.email_notification;hachureGap=4;pointerEvents=0;shadow=0;glass=0;labelBackgroundColor=none;fontFamily=Helvetica;" parent="jOJtsZhNvGcymittiSNQ-1" vertex="1">
          <mxGeometry x="901" y="541" width="60" height="60" as="geometry" />
        </mxCell>
        <mxCell id="owaa-c_TzHauTxvGBib9-2" value="&lt;font style=&quot;font-size: 8px ; line-height: 100%&quot;&gt;Email 3&lt;/font&gt;" style="sketch=0;outlineConnect=0;fontColor=#232F3E;gradientColor=none;strokeColor=none;fillColor=#ffffff;dashed=0;verticalLabelPosition=bottom;verticalAlign=top;align=center;html=1;fontSize=12;fontStyle=0;aspect=fixed;shape=mxgraph.aws4.resourceIcon;resIcon=mxgraph.aws4.email_notification;hachureGap=4;pointerEvents=0;shadow=0;glass=0;labelBackgroundColor=none;fontFamily=Helvetica;" parent="jOJtsZhNvGcymittiSNQ-1" vertex="1">
          <mxGeometry x="978" y="541" width="60" height="60" as="geometry" />
        </mxCell>
        <mxCell id="owaa-c_TzHauTxvGBib9-3" value="" style="shape=image;html=1;verticalAlign=top;verticalLabelPosition=bottom;labelBackgroundColor=#ffffff;imageAspect=0;aspect=fixed;image=https://cdn3.iconfinder.com/data/icons/the-elegant-set/96/document-spreadsheet.png;hachureGap=4;pointerEvents=0;shadow=0;glass=0;sketch=0;fontFamily=Helvetica;fontSize=10;fontColor=#596780;strokeColor=default;strokeWidth=1;fillColor=default;gradientDirection=south;" parent="jOJtsZhNvGcymittiSNQ-1" vertex="1">
          <mxGeometry x="830.5" y="649" width="47" height="47" as="geometry" />
        </mxCell>
        <mxCell id="owaa-c_TzHauTxvGBib9-4" value="&lt;font style=&quot;font-size: 8px&quot;&gt;CSV / CRM&lt;/font&gt;" style="text;html=1;strokeColor=none;fillColor=none;align=left;verticalAlign=middle;whiteSpace=wrap;rounded=0;shadow=0;glass=0;labelBackgroundColor=none;sketch=0;hachureGap=4;pointerEvents=0;fontFamily=Helvetica;fontSize=10;fontColor=#596780;" parent="jOJtsZhNvGcymittiSNQ-1" vertex="1">
          <mxGeometry x="834" y="705.5" width="50" height="20" as="geometry" />
        </mxCell>
        <mxCell id="E0AxF228PH6DUfUmsv_k-0" value="" style="rounded=0;fillColor=#D5E8D4;strokeColor=none;shadow=0;html=1;align=left;fontSize=12;spacingLeft=10;fontColor=#333333;resizeWidth=1;sketch=1;hachureGap=4;pointerEvents=0;fontFamily=Helvetica;fillStyle=auto;" parent="jOJtsZhNvGcymittiSNQ-1" vertex="1">
          <mxGeometry x="137" y="607" width="306" height="33" as="geometry" />
        </mxCell>
        <mxCell id="E0AxF228PH6DUfUmsv_k-1" value="SUCCESS" style="dashed=0;html=1;rounded=1;strokeColor=#008364;fontSize=10;align=center;fontStyle=1;strokeWidth=1;fontColor=#008364;hachureGap=4;pointerEvents=0;shadow=0;glass=0;labelBackgroundColor=none;sketch=0;fontFamily=Helvetica;fillColor=#D5E8D4;gradientDirection=south;" parent="jOJtsZhNvGcymittiSNQ-1" vertex="1">
          <mxGeometry x="155" y="613.5" width="70" height="20" as="geometry" />
        </mxCell>
        <mxCell id="E0AxF228PH6DUfUmsv_k-2" value="Our representative will contact you soon!" style="text;html=1;strokeColor=none;fillColor=none;align=center;verticalAlign=middle;whiteSpace=wrap;rounded=0;shadow=0;glass=0;labelBackgroundColor=none;sketch=0;hachureGap=4;pointerEvents=0;fontFamily=Helvetica;fontSize=10;fontColor=#596780;" parent="jOJtsZhNvGcymittiSNQ-1" vertex="1">
          <mxGeometry x="236" y="613.5" width="193" height="20" as="geometry" />
        </mxCell>
        <mxCell id="E0AxF228PH6DUfUmsv_k-3" value="" style="endArrow=open;html=1;fontFamily=Helvetica;fontSize=13;fontColor=#596780;startSize=14;endSize=14;sourcePerimeterSpacing=8;targetPerimeterSpacing=8;strokeColor=#B3B3B3;rounded=1;" parent="jOJtsZhNvGcymittiSNQ-1" edge="1">
          <mxGeometry relative="1" as="geometry">
            <mxPoint x="466" y="622" as="sourcePoint" />
            <mxPoint x="753" y="622" as="targetPoint" />
          </mxGeometry>
        </mxCell>
        <mxCell id="E0AxF228PH6DUfUmsv_k-4" value="" style="shape=message;html=1;outlineConnect=0;fillColor=default;strokeColor=#008364;" parent="E0AxF228PH6DUfUmsv_k-3" vertex="1">
          <mxGeometry width="20" height="14" relative="1" as="geometry">
            <mxPoint x="-18" y="-6" as="offset" />
          </mxGeometry>
        </mxCell>
      </root>
    </mxGraphModel>
  </diagram>
</mxfile>
